<!-- Generator: Adobe Illustrator 19.1.0, SVG Export Plug-In  -->
<svg version="1.1"
	 xmlns="http://www.w3.org/2000/svg" xmlns:xlink="http://www.w3.org/1999/xlink" xmlns:a="http://ns.adobe.com/AdobeSVGViewerExtensions/3.0/"
	 x="0px" y="0px" width="20px" height="14.2px" viewBox="0 0 20 14.2" enable-background="new 0 0 20 14.2" xml:space="preserve">
<defs>
</defs>
<path d="M19.4,0H0.6C0.3,0,0,0.3,0,0.6v13c0,0.3,0.3,0.6,0.6,0.6h18.8c0.3,0,0.6-0.3,0.6-0.6v-13
	C20,0.3,19.7,0,19.4,0z M1.2,2l2.9,2.7L1.2,7.5V2z M2.2,1.2h15.7L10,8.5L2.2,1.2z M18.8,2v5.5l-2.9-2.8L18.8,2z M1.2,13V9.2L5,5.6
	l4.5,4.2C9.7,9.9,9.9,9.9,10,9.9c0.1,0,0.3-0.1,0.4-0.2L15,5.6l3.7,3.5c0,0,0.1,0,0.1,0.1V13H1.2z"/>
</svg>
