<!-- Generator: Adobe Illustrator 19.1.0, SVG Export Plug-In  -->
<svg version="1.1"
	 xmlns="http://www.w3.org/2000/svg" xmlns:xlink="http://www.w3.org/1999/xlink" xmlns:a="http://ns.adobe.com/AdobeSVGViewerExtensions/3.0/"
	 x="0px" y="0px" width="26.3px" height="42.1px" viewBox="0 0 26.3 42.1" enable-background="new 0 0 26.3 42.1"
	 xml:space="preserve">
<defs>
</defs>
<g>
	<g>
		<path fill="#5A4A42" d="M15.2,15.9l6.4-6.5c0.2-0.2,0.3-0.4,0.3-0.6V0.9c0-0.5-0.4-0.9-0.9-0.9H5.4C4.9,0,4.5,0.4,4.5,0.9v7.9
			c0,0.2,0.1,0.5,0.3,0.6l6.4,6.5C4.9,16.8,0,22.3,0,28.9c0,7.3,5.9,13.2,13.2,13.2s13.2-5.9,13.2-13.2
			C26.3,22.3,21.5,16.8,15.2,15.9z M23.7,24.7l-6.6-1l-3-6.1C18.4,17.9,22.2,20.7,23.7,24.7z M17.7,31l1,5.6l-5-2.7
			c-0.3-0.1-0.6-0.1-0.8,0l-5,2.7l1-5.6c0.1-0.3,0-0.6-0.3-0.8l-4.1-4l5.7-0.8c0.3,0,0.5-0.2,0.7-0.5l2.5-5.1l2.5,5.1
			c0.1,0.3,0.4,0.4,0.7,0.5l5.7,0.8l-4.1,4C17.7,30.4,17.6,30.7,17.7,31z M6.3,1.8H20v6.6l-6.9,6.9L6.3,8.4L6.3,1.8L6.3,1.8z
			 M12.3,17.6l-3,6.1l-6.6,1C4.2,20.7,7.9,17.9,12.3,17.6L12.3,17.6z M1.8,28.9c0-0.8,0.1-1.6,0.3-2.4l4.8,4.7l-1.1,6.3
			C3.3,35.4,1.8,32.3,1.8,28.9z M7.5,38.8l5.7-3l5.7,3c-1.7,1-3.6,1.5-5.7,1.5S9.2,39.7,7.5,38.8z M20.6,37.5l-1.1-6.3l4.8-4.7
			c0.2,0.8,0.3,1.6,0.3,2.4C24.5,32.3,23,35.4,20.6,37.5z"/>
	</g>
</g>
</svg>
