<!-- Generator: Adobe Illustrator 19.1.0, SVG Export Plug-In  -->
<svg version="1.1"
	 xmlns="http://www.w3.org/2000/svg" xmlns:xlink="http://www.w3.org/1999/xlink" xmlns:a="http://ns.adobe.com/AdobeSVGViewerExtensions/3.0/"
	 x="0px" y="0px" width="130px" height="68.4px" viewBox="0 0 130 68.4" enable-background="new 0 0 130 68.4" xml:space="preserve"
	>
<defs>
</defs>
<g>
	<g>
		<path d="M65,49.3c-0.2,0.7-1,2-1.6,2.6l0.6,0.8c0.2-0.1,0.9-0.4,1.1-0.3c0.2-0.1,0.9,0.2,1.1,0.3l0.6-0.7
			C66,51.3,65.2,50,65,49.3z M65,51.7c-0.2,0-0.5,0.1-0.8,0.2c0.3-0.4,0.6-0.8,0.8-1.2c0.2,0.4,0.5,0.8,0.8,1.1
			C65.5,51.8,65.2,51.7,65,51.7z"/>
	</g>
	<g>
		<path d="M34.4,49.2c0.2,0.2,0.5,0.4,0.7,0.6c1.4,1.5,1.9,4.3,0.9,6.2c1.2-2.1,4.4-2.9,6.4-1.6
			c-0.2-0.2-0.5-0.4-0.7-0.6c-1.4-1.5-1.9-4.3-0.9-6.1C39.6,49.7,36.4,50.5,34.4,49.2z M38,50.1c0.7-0.2,1.3-0.4,1.8-0.8
			c-0.1,1.3,0.2,2.8,0.9,3.9c-1.3-0.1-2.7,0.2-3.7,1c0.1-1.3-0.2-2.8-0.9-4C36.7,50.3,37.4,50.3,38,50.1z"/>
	</g>
	<g>
		<path d="M38.8,52.3l0.1,0.4c0.5-0.1,1-0.1,1.4,0.2c-0.4-0.2-0.6-0.7-0.8-1.2L39,51.8c0,0.1,0,0.2-0.1,0.3
			C38.9,52.2,38.8,52.3,38.8,52.3z"/>
	</g>
	<g>
		<path d="M38.1,52.3c-0.1-0.1-0.1-0.1-0.2-0.2l-0.4,0.1c0.1,0.5,0.1,1.1-0.2,1.4c0.2-0.4,0.7-0.7,1.1-0.8l-0.1-0.4
			C38.2,52.4,38.2,52.4,38.1,52.3z"/>
	</g>
	<g>
		<path d="M37.4,51.8l0.4-0.1c0-0.1,0-0.2,0.1-0.3c0.1-0.1,0.1-0.2,0.2-0.2L38,50.7c-0.5,0.1-1,0.1-1.4-0.2
			C36.9,50.8,37.2,51.2,37.4,51.8z"/>
	</g>
	<g>
		<path d="M38.7,51.1c0.1,0.1,0.2,0.1,0.2,0.2l0.4-0.1c-0.1-0.5-0.1-1.1,0.2-1.4c-0.2,0.4-0.7,0.7-1.1,0.8l0.1,0.4
			C38.6,51.1,38.7,51.1,38.7,51.1z"/>
	</g>
	<g>
		<path d="M38.6,51.4c-0.2-0.1-0.5-0.1-0.6,0.2c-0.1,0.2-0.1,0.5,0.1,0.6c0.2,0.1,0.5,0.1,0.6-0.2
			C38.9,51.8,38.8,51.5,38.6,51.4z"/>
	</g>
	<g>
		<path d="M90.6,47.9c-0.2-0.3-0.4-0.5-0.6-0.8c1.1,2.1,0.3,5.5-1.7,6.7c1.7-1,4.3-0.5,5.7,1
			c0.2,0.2,0.4,0.5,0.6,0.8c-1.1-2.1-0.3-5.5,1.7-6.7C94.6,49.9,92.1,49.4,90.6,47.9z M93.9,51.7c-0.2,0.7-0.2,1.4-0.2,2
			c-1.1-0.8-2.4-1.2-3.7-1.1c0.7-1.1,1.1-2.6,1-3.9c1.1,0.8,2.4,1.2,3.7,1.1C94.3,50.4,94,51.1,93.9,51.7z"/>
	</g>
	<g>
		<path d="M92.7,51.9C92.6,52,92.5,52,92.4,52l-0.1,0.4c0.5,0.2,0.9,0.5,1.1,0.8c-0.2-0.4-0.2-0.9-0.1-1.4l-0.4-0.1
			C92.8,51.8,92.8,51.8,92.7,51.9z"/>
	</g>
	<g>
		<path d="M91.8,51.6c-0.1-0.1-0.1-0.2-0.1-0.3l-0.4-0.1c-0.2,0.5-0.4,1-0.8,1.2c0.4-0.2,0.9-0.2,1.4-0.1l0.1-0.4
			C91.9,51.8,91.8,51.7,91.8,51.6z"/>
	</g>
	<g>
		<path d="M92,50.7c0.1-0.1,0.2-0.1,0.3-0.1l0.1-0.4c-0.5-0.2-0.9-0.5-1.1-0.8c0.2,0.4,0.2,0.9,0.1,1.4l0.4,0.1
			C91.9,50.8,91.9,50.7,92,50.7z"/>
	</g>
	<g>
		<path d="M94.2,50.2c-0.4,0.2-0.9,0.2-1.4,0.1l-0.1,0.4c0.1,0.1,0.2,0.1,0.2,0.2C93,51,93,51.1,93,51.2l0.4,0.1
			C93.5,50.8,93.8,50.4,94.2,50.2z"/>
	</g>
	<g>
		<path d="M92.7,51.1c-0.1-0.2-0.4-0.3-0.6-0.2c-0.2,0.1-0.3,0.4-0.2,0.6c0.1,0.2,0.4,0.3,0.6,0.2
			C92.8,51.6,92.8,51.3,92.7,51.1z"/>
	</g>
	<g>
		<path d="M118.1,30.7c-0.3-0.2-0.5-0.4-0.8-0.6c-1.4-1.5-1.9-4.2-0.9-6c-1.1,2.1-4.3,3-6.3,1.8
			c0.3,0.2,0.6,0.4,0.8,0.6c1.4,1.5,1.9,4.2,0.9,6C112.9,30.4,116.1,29.5,118.1,30.7z M114.5,29.9c-0.7,0.2-1.3,0.5-1.8,0.9
			c0.1-1.3-0.3-2.8-1-3.9c1.3,0.1,2.6-0.3,3.7-1.1c-0.1,1.3,0.3,2.8,1,3.9C115.8,29.7,115.2,29.7,114.5,29.9z"/>
	</g>
	<g>
		<path d="M115.1,28.3l-0.4,0.1c0,0.1,0,0.2-0.1,0.3c-0.1,0.1-0.1,0.2-0.2,0.2l0.1,0.4c0.5-0.1,1-0.1,1.4,0.1
			C115.6,29.2,115.3,28.8,115.1,28.3z"/>
	</g>
	<g>
		<path d="M114.4,27.7c0.1,0.1,0.2,0.1,0.2,0.2l0.4-0.1c-0.1-0.5-0.1-1.1,0.1-1.4c-0.2,0.4-0.6,0.7-1.1,0.8l0.1,0.4
			C114.2,27.6,114.3,27.7,114.4,27.7z"/>
	</g>
	<g>
		<path d="M113.7,27.8l-0.1-0.4c-0.5,0.1-1,0.1-1.4-0.1c0.4,0.2,0.6,0.7,0.8,1.2l0.4-0.1c0-0.1,0-0.2,0.1-0.3
			C113.5,27.9,113.6,27.8,113.7,27.8z"/>
	</g>
	<g>
		<path d="M113.7,28.9c-0.1-0.1-0.2-0.1-0.2-0.2l-0.4,0.1c0.1,0.5,0.1,1.1-0.1,1.4c0.2-0.4,0.6-0.7,1.1-0.8L114,29
			C113.9,29,113.8,29,113.7,28.9z"/>
	</g>
	<g>
		<path d="M113.9,28.7c0.2,0.1,0.5,0,0.6-0.2c0.1-0.2,0-0.5-0.2-0.6c-0.2-0.1-0.5,0-0.6,0.2
			C113.6,28.3,113.7,28.6,113.9,28.7z"/>
	</g>
	<g>
		<path d="M13.9,24.4c-0.2-0.2-0.4-0.5-0.5-0.7c1.2,2.1,0.4,5.5-1.5,6.7c1.7-1.1,4.4-0.6,5.8,0.9
			c0.2,0.2,0.4,0.5,0.5,0.7c-1.2-2.1-0.4-5.4,1.5-6.7C18,26.4,15.3,25.9,13.9,24.4z M17.3,28.2c-0.2,0.7-0.2,1.4-0.1,2
			c-1.1-0.7-2.5-1.1-3.7-0.9c0.7-1.1,1-2.6,0.9-4c1.1,0.8,2.5,1.1,3.7,1C17.7,26.9,17.5,27.5,17.3,28.2z"/>
	</g>
	<g>
		<path d="M15.4,27.2c0.1-0.1,0.2-0.1,0.3-0.1l0.1-0.4c-0.5-0.2-0.9-0.4-1.1-0.8c0.2,0.4,0.3,0.9,0.2,1.4l0.4,0.1
			C15.3,27.4,15.3,27.3,15.4,27.2z"/>
	</g>
	<g>
		<path d="M15.2,28.2c-0.1-0.1-0.1-0.2-0.1-0.3l-0.4-0.1c-0.1,0.5-0.4,1-0.8,1.2c0.4-0.2,0.9-0.3,1.4-0.2l0.1-0.4
			C15.3,28.3,15.2,28.3,15.2,28.2z"/>
	</g>
	<g>
		<path d="M16.1,28.4c-0.1,0.1-0.2,0.1-0.3,0.1l-0.1,0.4c0.5,0.1,0.9,0.4,1.1,0.8c-0.2-0.4-0.3-0.9-0.2-1.4l-0.4-0.1
			C16.3,28.3,16.2,28.4,16.1,28.4z"/>
	</g>
	<g>
		<path d="M17.6,26.7c-0.4,0.2-0.9,0.3-1.4,0.2l-0.1,0.4c0.1,0,0.2,0.1,0.2,0.2c0.1,0.1,0.1,0.2,0.1,0.3l0.4,0.1
			C17,27.3,17.2,26.9,17.6,26.7z"/>
	</g>
	<g>
		<path d="M16.1,27.6c-0.1-0.2-0.4-0.3-0.6-0.2c-0.2,0.1-0.3,0.4-0.1,0.6c0.1,0.2,0.4,0.3,0.6,0.2
			C16.2,28.1,16.3,27.8,16.1,27.6z"/>
	</g>
	<g>
		<path d="M34.9,5.3L34.9,5.3c0-1.4,0.6-2.7,1.6-3.8c0.8-0.8,1.7-1.3,2.6-1.6H38c-0.6,0.3-1.2,0.7-1.7,1.3
			C35.5,2.1,35,3,34.7,4c-0.5-1.7-1.8-3.2-3.3-4h-1c2.2,0.6,4.2,2.9,4.2,5.3v0.1H34.9z"/>
	</g>
	<g>
		<path d="M95.5,5.3L95.5,5.3c0-1.4,0.6-2.7,1.6-3.8c0.8-0.8,1.7-1.3,2.6-1.6h-1.1c-0.6,0.3-1.2,0.7-1.7,1.3
			C96.1,2.1,95.5,3,95.3,4c-0.5-1.7-1.8-3.2-3.3-4h-1.1c2.2,0.5,4.3,2.9,4.3,5.3v0.1L95.5,5.3z"/>
	</g>
	<g>
		<path d="M130,0h-0.6c-0.1,0.7-0.6,1.5-0.9,1.8l-0.4,0.5l0.4,0.5c0.5,0.5,0.7,1.3,0.7,2.2c0,0.6-0.1,1.3-0.2,1.9
			c-1.2-3.2-3.9-5.7-6.1-6.7c0,0,0-0.1,0-0.2h-5.2c-1.3,0.5-2.4,1.3-3.5,2.3C113,1.1,111.9,0.4,111,0h-2.2c-0.4,0.2-0.7,0.6-1,1.1
			c-0.2,0.4-0.3,0.8-0.3,1.2c-0.3-0.1-0.7-0.3-1.1-0.5l-0.1-0.1c-0.6-0.3-1.3-0.4-2-0.4c0.9-0.5,1.8-1,2.6-1.2h-2.6
			c-1.5,0.7-3.3,1.8-4.7,3.1c-0.4,0.3-0.7,0.6-0.9,0.8l0,0c-2.5,2.5-5,4.5-8.5,4.5c-1.4,0-2.4-0.3-3.1-0.8c0.3,0.1,0.6,0.2,0.8,0.2
			c0.9,0,1.4-0.6,1.8-1c0,0,0,0,0,0c0.1,0.4,0.4,0.6,0.8,0.6c0.5,0,0.8-0.4,0.8-0.8c0-0.5-0.4-0.8-0.8-0.8c-0.1,0-0.2,0-0.4,0.1
			c-0.3,0.1-0.5,0.4-0.8,0.6c-0.4,0.4-0.8,0.8-1.5,0.8c-1.2,0-1.7-1-1.7-2.6c0-2.3,0.5-3.5,1.8-4.1c-0.8,0.5-1.3,1.2-1.3,2.2
			c0,0.9,1.1,1.8,1.1,2c0,0-0.1,0-0.2,0c-0.4,0-0.7,0.3-0.7,0.7c0,0.4,0.3,0.7,0.7,0.7c0.2,0,0.4-0.1,0.5-0.3l0,0c0,0,0-0.1,0-0.1
			c0,0,0-0.1,0-0.1c0-0.1,0-0.1,0-0.2c0,0,0,0,0,0c0,0,0,0,0,0c0-0.5-0.3-0.9-0.5-1.2c-0.3-0.4-0.6-0.9-0.6-1.4
			c0.1-1.2,1.3-2.2,2.7-2.6h-2.5c-1.5,0.6-2.5,1.9-2.5,4.5c0,0,0,0.1,0,0.1c-0.1-0.3-0.3-0.7-0.4-1c-0.2-0.4-0.3-0.9-0.5-1.3
			c0.3-0.5,1.2-1.4,1.7-1.5c-0.3-0.4-0.7-0.7-1.1-0.9h-1.4c0.5,0.4,0.8,1,1.3,0.9c-0.2,0.3-0.6,0.4-1.1,0.4c-0.3-0.5-0.6-0.9-1-1.2
			h-2.9v0.4c1,0,1.9,0.6,2.7,1.5c-0.6,0.7-1.7,1.5-2.3,0.8c0.3,0.1,0.8-0.3,0.7-0.7c-0.1-0.5-0.3-0.8-0.8-0.8
			c-0.5-0.1-1,0.3-1.1,0.8c-0.1,0.5,0.1,1.5,0.8,1.3c-1.5,0.9-0.3,3.8-3.4,5.1c0,0,1.4,0.5,2.6-0.3c1.5-0.9,1.1-4.2,4-5.2
			c0.2,0.4,0.4,0.8,0.6,1.2c1.1,2.7,2.4,6.6,6.8,6.6c0.2,0,0.5,0,0.7,0c0.3,1,0.2,3.1-1.2,4.6c-0.7,0.8-1.5,1.2-2.2,1.7
			c-0.6,0.4-1.2,0.8-1.7,1.3c-0.3,0.3-1.1,1.4-1.2,2.2c-0.7,0.1-1.7,0.9-2.1,1.3c-0.5,0.5-0.9,1.2-1.2,1.8c-0.4,0.8-0.9,1.6-1.6,2.3
			c-1.4,1.4-3.4,1.5-4.3,1.2c0-0.3,0-0.5,0-0.8c0-4.7-3.7-6.1-6.2-7.2c-0.4-0.2-0.8-0.4-1.2-0.6c1-3.1,4.1-2.6,4.9-4.3
			c0.7-1.3,0.3-2.8,0.3-2.8c-1.2,3.3-4,1.9-4.9,3.6c0.2-0.8-0.7-1-1.2-0.9c-0.5,0.1-0.9,0.7-0.8,1.2c0.1,0.5,0.3,0.8,0.8,0.8
			c0.4,0.1,0.8-0.4,0.7-0.7c0.7,0.6-0.1,1.8-0.7,2.4c-0.9-0.8-1.5-1.7-1.5-2.8h-1.3c0,1.1-0.5,2-1.5,2.8c-0.6-0.6-1.4-1.8-0.7-2.4
			c-0.1,0.3,0.3,0.8,0.7,0.7c0.5-0.1,0.7-0.3,0.8-0.8c0.1-0.5-0.3-1.1-0.8-1.2c-0.5-0.1-1.4,0.1-1.2,0.9c-0.9-1.6-3.6-0.3-4.9-3.6
			c0,0-0.4,1.5,0.3,2.8c0.9,1.6,4,1.1,4.9,4.3c-0.4,0.2-0.7,0.4-1.2,0.6c-2.5,1.1-6.2,2.5-6.2,7.2c0,0.3,0,0.5,0,0.8
			c-0.9,0.3-3,0.2-4.3-1.2c-0.7-0.8-1.2-1.5-1.6-2.3c-0.4-0.7-0.7-1.3-1.2-1.8c-0.3-0.3-1.4-1.1-2.1-1.3c-0.1-0.7-0.9-1.8-1.2-2.2
			c-0.5-0.5-1.1-0.9-1.7-1.3c-0.7-0.5-1.5-0.9-2.2-1.7c-1.4-1.4-1.4-3.6-1.2-4.6c0.2,0,0.5,0,0.7,0c4.4,0,5.7-3.9,6.8-6.6
			c0.2-0.5,0.4-0.9,0.6-1.2c2.9,1,2.5,4.3,4,5.2c1.2,0.7,2.6,0.3,2.6,0.3c-3.1-1.3-1.8-4.2-3.4-5.1c0.7,0.2,1-0.7,0.8-1.3
			c-0.1-0.5-0.6-0.9-1.1-0.8c-0.5,0.1-0.7,0.3-0.8,0.8c-0.1,0.4,0.4,0.9,0.7,0.7c-0.6,0.7-1.7-0.1-2.3-0.8c0.7-1,1.6-1.6,2.7-1.6V0
			h-2.9c-0.4,0.3-0.7,0.7-1,1.2c-0.5,0.1-0.8-0.1-1-0.4C46.1,1,46.4,0.4,47,0h-1.4c-0.5,0.2-0.8,0.5-1.1,0.9c0.5,0.1,1.4,1,1.7,1.5
			c-0.2,0.4-0.4,0.9-0.5,1.3c-0.1,0.4-0.3,0.7-0.5,1.1c0-0.1,0-0.1,0-0.2c0-2.6-1-3.9-2.5-4.5h-2.5c1.4,0.4,2.6,1.4,2.7,2.6
			c0,0.5-0.3,1-0.6,1.4c-0.3,0.4-0.6,0.8-0.5,1.2c0,0,0,0,0,0c0,0,0,0,0,0c0,0.1,0,0.1,0,0.2c0,0,0,0.1,0,0.1c0,0,0,0.1,0,0.1l0,0
			c0.1,0.2,0.3,0.3,0.5,0.3c0.4,0,0.7-0.3,0.7-0.7c0-0.4-0.3-0.7-0.7-0.7c-0.1,0-0.1,0-0.2,0c0.1-0.1,1.1-1,1.1-2
			c0-0.9-0.5-1.7-1.3-2.2c1.2,0.6,1.8,1.8,1.8,4.1c0,1.6-0.6,2.6-1.7,2.6c-0.7,0-1.1-0.3-1.5-0.8c-0.3-0.3-0.5-0.5-0.8-0.6
			c-0.1-0.1-0.2-0.1-0.4-0.1c-0.5,0-0.8,0.4-0.8,0.8c0,0.5,0.4,0.8,0.8,0.8c0.4,0,0.7-0.3,0.8-0.6c0,0,0,0,0,0c0.4,0.5,0.9,1,1.8,1
			c0.3,0,0.6-0.1,0.9-0.2c-0.8,0.5-1.8,0.9-3.2,0.9c-3.5,0-6.1-2-8.5-4.5l0,0c-0.2-0.2-0.5-0.5-1-0.8C29,1.8,27.2,0.7,25.8,0h-2.6
			c0.8,0.3,1.7,0.7,2.6,1.2c-0.7,0-1.4,0.1-2,0.4l-0.1,0.1c-0.5,0.2-0.8,0.4-1.1,0.6c0-0.4-0.1-0.8-0.3-1.2c-0.2-0.5-0.6-0.9-1-1.1
			H19c-0.9,0.4-2,1.1-3.2,2.2c-1-0.9-2.2-1.7-3.4-2.2H7.2c0,0,0,0.1,0,0.1C5,1.1,2.2,3.6,1,6.9C0.9,6.3,0.8,5.6,0.8,5
			c0-1,0.2-1.7,0.7-2.2l0.4-0.5L1.5,1.8C1.2,1.5,0.7,0.7,0.6,0H0c0.1,0.9,0.6,1.8,1.1,2.3C0.4,3,0.2,4,0.2,5c0,1.7,0.6,3.5,0.9,4.4
			c0.3-4.2,3.8-7.6,6.4-8.7C7.7,1,8.1,1.2,8.6,1.2c0.3,0,0.7-0.1,0.9-0.3c-0.2,0.6,0.1,1.2,0.6,1.5c0.6,0.3,1.3,0.1,1.6-0.5
			c0.2-0.4,0.1-0.8-0.1-1.2c1.3,0.5,2.5,1.2,3.5,2.2C15.1,3,15,3.1,14.9,3.2c-3.8,4.1-3.1,10-1.7,13.6c-0.5,1-0.9,2.1-1.3,3.1
			c-0.4,1.2-0.8,2.2-1.3,2.8c-0.1-0.3-0.3-0.6-0.6-0.6c-0.4,0-0.7,0.3-0.7,0.8c0,0.4,0.3,0.8,0.6,0.8c0,0,0,0,0.1,0v0c0,0,0,0,0,0
			c0.1,0,0.2,0,0.2-0.1c1.1-0.4,1.7-1.9,2.2-3.6c0.3-0.9,0.6-1.7,1-2.6c0.4,0.8,0.8,1.5,1.2,1.8c0.2,0.2,0.4,0.4,0.6,0.6
			c-0.4-0.1-0.9,0-1.2,0.3c-0.5,0.5-0.5,1.8,0.8,2.8c0.9,0.7,2.3,0.5,4.1,0.1c2.4-0.5,5.4-1.1,7.9,0.8c0,0,0.1,0.1,0.1,0.1
			c0.1,0.1,0.2,0.1,0.2,0.2c-0.1,0.1-0.1,0.1-0.2,0.2c-1.9,2-1.4,5.8-1,9.4c0.2,1.7,0.4,3.4,0.3,4.7c-0.4-0.3-1-0.2-1.3,0.2
			c-0.4,0.5-0.4,1.2,0,1.6c-0.4,0.5-0.4,1.2,0,1.6c0.4,0.5,1.1,0.5,1.5,0c0,0,0,0,0,0c0.4,0.5,1.1,0.5,1.5,0
			c0.4-0.4,0.4-0.9,0.2-1.4c1.2-0.1,2.9,0.1,4.5,0.3c3.5,0.5,7.1,0.9,8.9-1c0.1-0.1,0.1-0.1,0.1-0.2c0.1,0.1,0.1,0.1,0.2,0.2
			c0.1,0.1,0.2,0.3,0.3,0.4c1.6,2.6,1,5.6,0.6,8.1c-0.4,1.9-0.5,3.4,0.1,4.4c1,1.4,2.2,1.4,2.6,0.8c0.3-0.3,0.4-0.8,0.3-1.3
			c0.1,0.2,0.3,0.3,0.5,0.5c0.4,0.4,0.9,0.8,1.6,1.2c-0.8,0.4-1.6,0.7-2.4,1c-1.6,0.6-3,1.2-3.4,2.4c0,0.1-0.1,0.2-0.1,0.2
			c0,0,0,0,0,0h0c0,0,0,0,0,0.1c0,0.4,0.4,0.7,0.8,0.7c0.4,0,0.8-0.3,0.7-0.7c0-0.3-0.2-0.6-0.5-0.6c0.5-0.6,1.5-1,2.7-1.4
			c0.9-0.4,1.9-0.7,2.8-1.3c3.4,1.5,9.1,2.4,13-1.7c0.1-0.1,0.1-0.2,0.2-0.2c0.9,1.1,1.7,2.3,2.1,3.7c-0.3-0.2-0.8-0.3-1.1-0.1
			c-0.6,0.3-0.7,1.1-0.4,1.7c0.3,0.6,0.9,0.9,1.4,0.7c-0.2,0.3-0.3,0.6-0.3,1c0,0.4,0.2,0.8,0.4,1.1c-1,2.7-4.3,6.3-8.2,6.7
			c0.8,0.3,2.5,1,4.2,1c1,0,1.9-0.2,2.6-0.9c0.5,0.5,1.5,1.2,2.5,1.2c0.9,0,2-0.7,2.5-1.2c0.7,0.7,1.6,0.9,2.6,0.9
			c1.6,0,3.3-0.7,4.2-1c-4-0.3-7.2-4.1-8.2-6.8c0.2-0.3,0.3-0.6,0.3-1c0-0.4-0.1-0.7-0.3-1c0.5,0.2,1.2-0.1,1.5-0.7
			c0.3-0.6,0.1-1.4-0.4-1.7c-0.4-0.2-0.8-0.2-1.1,0.1c0.4-1.4,1.2-2.6,2.1-3.8c0.1,0.1,0.1,0.2,0.2,0.2c3.9,4.1,9.6,3.3,13,1.7
			c0.9,0.6,1.9,0.9,2.8,1.3c1.1,0.4,2.1,0.8,2.7,1.4c-0.3,0.1-0.5,0.3-0.5,0.6c0,0.4,0.3,0.7,0.7,0.7c0.4,0,0.8-0.3,0.8-0.7
			c0,0,0,0,0-0.1h0c0,0,0,0,0,0c0-0.1,0-0.2-0.1-0.2c-0.4-1.2-1.8-1.7-3.4-2.4c-0.8-0.3-1.6-0.6-2.4-1c0.7-0.4,1.3-0.8,1.6-1.2
			c0.2-0.2,0.3-0.4,0.5-0.5c-0.1,0.5,0,0.9,0.3,1.3c0.5,0.5,1.7,0.6,2.6-0.8c0.7-1,0.5-2.4,0.1-4.4c-0.5-2.5-1-5.5,0.6-8.1
			c0.1-0.1,0.2-0.3,0.3-0.4c0.1-0.1,0.1-0.1,0.2-0.2c0,0.1,0.1,0.1,0.1,0.2c1.9,2,5.5,1.5,8.9,1c1.6-0.2,3.2-0.4,4.5-0.3
			c-0.2,0.4-0.2,1,0.2,1.4c0.4,0.5,1.1,0.5,1.5,0c0,0,0,0,0,0c0.4,0.5,1.1,0.5,1.5,0c0.4-0.5,0.4-1.2,0-1.6c0.4-0.5,0.4-1.2,0-1.6
			c-0.4-0.4-0.9-0.4-1.3-0.2c-0.1-1.3,0.1-3,0.3-4.7c0.4-3.7,0.9-7.5-1-9.4c-0.1-0.1-0.1-0.1-0.2-0.2c0.1-0.1,0.2-0.1,0.2-0.2
			c0,0,0.1-0.1,0.1-0.1c2.5-1.8,5.5-1.2,7.9-0.8c1.8,0.4,3.2,0.6,4.1-0.1c1.3-1,1.3-2.3,0.8-2.8c-0.3-0.3-0.8-0.4-1.2-0.3
			c0.2-0.2,0.4-0.4,0.6-0.6c0.4-0.4,0.8-1,1.2-1.8c0.4,0.8,0.7,1.7,1,2.6c0.6,1.7,1.1,3.2,2.2,3.6c0.1,0,0.1,0.1,0.2,0.1
			c0,0,0,0,0,0l0,0c0,0,0,0,0.1,0c0.4,0,0.7-0.4,0.6-0.8c0-0.4-0.3-0.8-0.7-0.8c-0.3,0-0.5,0.3-0.6,0.6c-0.5-0.6-0.9-1.6-1.3-2.8
			c-0.3-1-0.7-2.1-1.3-3.1c1.4-3.6,2.1-9.5-1.7-13.6c-0.1-0.1-0.2-0.2-0.2-0.2c1-1,2.2-1.7,3.5-2.2c-0.2,0.4-0.3,0.8-0.1,1.2
			c0.3,0.6,1,0.8,1.6,0.5c0.6-0.3,0.8-1,0.6-1.5c0.2,0.2,0.6,0.3,0.9,0.3c0.4,0,0.8-0.2,1.1-0.5c2.5,1.1,6,4.6,6.3,8.7
			c0.3-0.9,0.9-2.7,0.9-4.4c0-1-0.2-2-0.9-2.7C129.4,1.8,129.9,0.9,130,0z M75.1,28.2L75.1,28.2c0.6-0.6,3.2-0.1,5-2
			c0.8-0.8,1.3-1.7,1.7-2.4c0.4-0.6,0.7-1.2,1.1-1.7c0.5-0.5,1.7-1.1,2.2-1.2c0.1-0.5,0.6-1.7,1.1-2.3c0.4-0.5,1-0.8,1.6-1.2
			c0.7-0.5,1.5-1,2.3-1.8c1.8-1.9,1.4-4.6,1.9-5.3c1.1-0.3,2.1-0.8,3-1.5c-0.9,1.6-1.5,3.1-2.1,4.7c-1.1,2.8-2.2,5.4-4.3,7.8
			c0-0.3-0.1-0.5-0.2-0.8c-0.2-0.5-0.7-0.8-1.2-0.9c-0.5-0.1-1,0.1-1.3,0.4c-0.3,0.3-0.4,0.7-0.5,1.1c-0.4,0-0.7,0.2-1,0.5
			c-0.3,0.3-0.4,0.9-0.4,1.4c0.1,0.6,0.4,1.1,0.9,1.3c0.3,0.2,0.6,0.2,0.8,0.2c-2.3,2.3-4.8,3.4-7.4,4.6c-1.5,0.7-3,1.4-4.5,2.3
			C74.4,30.4,74.9,29.4,75.1,28.2z M92.8,26.7c-1-0.3-2-0.8-3-1.7c-0.6-0.8-0.9-1.4-1-1.8C90.5,23.4,92.1,25.5,92.8,26.7z
			 M89.7,23.1c0.7,0,1.6,0.1,2.1,0.7l0.2,0.2l0.2-0.2c0.2-0.2,0.7-0.5,1.1-0.5c0.4,0,0.9,0.3,1.1,0.5l0.2,0.2l0.2-0.2
			c0.5-0.5,1.3-0.7,2-0.7c-1.6,0.7-2.9,2.6-3.4,3.6c0,0,0,0,0,0C92.6,25.7,91.2,23.9,89.7,23.1z M96.2,29.4c1.5,0,2.8-0.4,4-1
			c-1.2,2.5-1.2,5.9,0,8.4c-1.2-0.6-2.5-1-4-1c-1.5,0-2.8,0.3-4,1c0.6-1.2,0.9-2.7,0.9-4.2c0-1.5-0.3-3-0.9-4.2
			C93.3,29,94.7,29.4,96.2,29.4z M87.8,30.5c-0.2-0.2-0.5-0.7-0.5-1.1c0-0.4,0.3-0.9,0.5-1.1l0.2-0.2l-0.2-0.2
			c-0.5-0.5-0.6-1.4-0.6-2.2c0.7,1.7,2.4,3.1,3.4,3.6c0,0,0,0,0,0c-1,0.6-2.7,1.9-3.4,3.6c0-0.7,0.1-1.6,0.6-2.2l0.2-0.2L87.8,30.5z
			 M88.8,25.8c0.9,1.1,1.4,2.2,1.7,3.3c-1.1-0.7-3.1-2.4-3.4-4.3C87.6,24.9,88.1,25.3,88.8,25.8z M87.1,23c0.2,0,0.5,0.1,0.7,0
			c0.1,0.3,0.3,0.8,0.5,1.3c-0.5-0.3-0.9-0.5-1.2-0.6C87.1,23.5,87.1,23.3,87.1,23z M85.3,28.3c0.2,0.2,0.5,0.7,0.5,1.1
			c0,0.4-0.3,0.9-0.5,1.1l-0.2,0.2l0.2,0.2c0.5,0.5,0.6,1.4,0.6,2.2c-0.7-1.7-2.4-3.1-3.4-3.6c1-0.5,2.7-2,3.4-3.7
			c0,0.8-0.1,1.6-0.6,2.2l-0.2,0.2L85.3,28.3z M86,23.6c-0.3,0-0.5,0-0.7-0.1c-0.3-0.2-0.4-0.4-0.4-0.6c0-0.3,0-0.5,0.1-0.6
			c0.2-0.2,0.5-0.4,0.9,0.1c0.3,0.3,0.5,0.8,0.4,1.2C86.1,23.6,86,23.6,86,23.6z M86.4,20.7c0.1-0.1,0.3-0.2,0.5-0.1
			c0.2,0,0.4,0.1,0.6,0.4c0.1,0.3,0.1,0.5,0.1,0.8c0,0.1,0,0.1,0,0.2c-0.4,0.1-0.9-0.1-1.2-0.4C86,21.2,86.2,20.9,86.4,20.7z
			 M61.3,20.2c0.4-0.2,0.8-0.4,1.2-0.6c0.5,0.3,1.3,1.2,1.4,1.8c0.7-0.7,1.1-1.4,1-3c-0.2,0.8-1.2,1.1-1,1.7
			c-0.2-0.2-0.4-0.6-0.3-1.1c0.6-0.4,1.1-0.8,1.4-1.3c0.4,0.6,0.9,1,1.5,1.4c0.1,0.5-0.1,0.9-0.3,1.1c0.2-0.6-0.7-1-1-1.7
			c-0.1,1.6,0.3,2.3,1,3c0.1-0.5,0.9-1.4,1.4-1.8c0.4,0.2,0.8,0.4,1.2,0.5c0.3,0.1,0.7,0.3,1,0.4c0,0-0.1,0-0.1,0
			c-3,0-4.1,1.6-4.6,3.7c-0.4-2.1-1.6-3.7-4.6-3.7c0,0-0.1,0-0.1,0C60.6,20.5,61,20.4,61.3,20.2z M65,27.4c0.3,0.9,0.8,1.9,1.5,2.7
			c0.7,0.8,1.6,1.3,2.5,1.6c-1.8,0.6-3.5,2.3-4,4.3c-0.3-1-0.8-1.9-1.5-2.7c-0.7-0.8-1.6-1.3-2.5-1.6C62.8,31.1,64.5,29.3,65,27.4z
			 M57.5,23c-0.1,0.3-0.1,0.6-0.1,0.8c0,0.9,0.5,1.5,1,1.9c0,0,0,0,0,0c-0.3,0.1-0.6,0.4-0.6,0.8c0,0.5,0.4,0.9,0.8,0.9
			c0.4,0,0.8-0.4,0.8-0.9c0-0.1,0-0.3-0.1-0.4c-0.1-0.3-0.3-0.6-0.6-0.8c-0.4-0.4-0.7-0.8-0.7-1.6c0-1.3,1-1.8,2.5-1.8
			c2.2,0,3.3,0.6,3.9,1.9c-0.5-0.8-1.2-1.4-2.1-1.4c-0.9,0-1.7,1.1-1.9,1.2c0-0.1,0-0.1,0-0.2c0-0.4-0.3-0.7-0.7-0.7
			s-0.7,0.3-0.7,0.7c0,0.2,0.1,0.4,0.3,0.6l0,0c0,0,0.1,0,0.1,0c0,0,0.1,0,0.1,0c0.1,0,0.1,0,0.2,0c0,0,0,0,0,0c0,0,0,0,0,0
			c0.4,0,0.8-0.3,1.2-0.6c0.4-0.3,0.8-0.7,1.3-0.6c1.1,0.1,2.2,1.4,2.5,3.1c0,0.1,0,0.3,0,0.4c0,0.1,0,0.2,0,0.3
			c-0.4,2.4-2.7,4.7-5,4.7h-0.1v0.4h0.1c1.2,0,2.5,0.6,3.5,1.7c1,1.1,1.6,2.4,1.6,3.7l0,0.1h0.4v-0.1c0-2.7,2.6-5.4,5.1-5.4h0.1
			l0-0.4h-0.1c-1.2,0-2.5-0.6-3.5-1.7c-0.9-0.9-1.4-2-1.6-3.1c0-0.1,0-0.1,0-0.2c0-0.1,0-0.3,0-0.4c0.3-1.6,1.3-2.9,2.5-3.1
			c0.5,0,0.9,0.3,1.3,0.6c0.4,0.3,0.7,0.6,1.2,0.6l0,0c0,0,0,0,0,0c0.1,0,0.1,0,0.2,0c0,0,0.1,0,0.1,0c0,0,0.1,0,0.1,0l0,0
			c0.2-0.1,0.3-0.3,0.3-0.6c0-0.4-0.3-0.7-0.7-0.7c-0.4,0-0.7,0.3-0.7,0.7c0,0.1,0,0.1,0,0.2c-0.1-0.1-1-1.2-1.8-1.2
			c-0.9,0-1.6,0.5-2.1,1.4c0.5-1.3,1.7-1.9,3.9-1.9c1.5,0,2.5,0.6,2.5,1.8c0,0.7-0.3,1.1-0.7,1.6c-0.3,0.3-0.5,0.5-0.6,0.8
			c-0.1,0.1-0.1,0.2-0.1,0.4c0,0.5,0.4,0.9,0.8,0.9c0.4,0,0.8-0.4,0.8-0.9c0-0.4-0.3-0.7-0.6-0.8c0,0,0,0,0,0c0.4-0.4,1-1,1-1.9
			c0-0.3,0-0.5-0.1-0.8c0.5,0.8,0.7,1.8,0.7,3.2c0,3.7-1.9,6.4-4.2,9l0,0c-0.1,0.1-0.3,0.4-0.5,0.6c-1.4,1.7-2.7,4.2-3.5,6
			c-0.7-1.6-1.8-3.8-3.1-5.5c-0.3-0.4-0.6-0.8-0.8-1l0,0c-2.3-2.6-4.3-5.3-4.3-9C56.8,24.8,57.1,23.8,57.5,23z M38,10.4
			c0.5,0.6,0.1,3.4,1.9,5.3c0.8,0.8,1.6,1.3,2.3,1.8c0.6,0.4,1.2,0.7,1.6,1.2c0.5,0.5,1,1.8,1.1,2.3c0.5,0.1,1.7,0.6,2.2,1.2
			c0.4,0.5,0.8,1.1,1.1,1.7c0.4,0.8,0.9,1.6,1.7,2.4c1.8,1.9,4.3,1.3,5,2v0c0.3,1.1,0.8,2.2,1.4,3.2c-1.5-0.9-3-1.6-4.4-2.3
			c-2.6-1.2-5.1-2.3-7.4-4.6c0.2,0,0.5-0.1,0.8-0.2c0.5-0.3,0.8-0.7,0.9-1.3c0.1-0.5-0.1-1.1-0.4-1.4c-0.3-0.3-0.6-0.5-1-0.5
			c0-0.4-0.2-0.7-0.4-1.1c-0.3-0.3-0.8-0.5-1.3-0.4c-0.5,0.1-1,0.4-1.2,0.9c-0.1,0.3-0.2,0.6-0.2,0.8c-2.1-2.4-3.2-5-4.3-7.8
			c-0.6-1.6-1.3-3.1-2.1-4.7C35.9,9.6,36.9,10.1,38,10.4z M44.6,30.8c-0.2-0.2-0.5-0.7-0.5-1.1c0-0.4,0.3-0.9,0.5-1.1l0.2-0.2
			l-0.2-0.2C44.1,27.6,44,26.7,44,26c0.7,1.7,2.4,3.1,3.4,3.7c-1,0.5-2.7,1.9-3.4,3.6c0-0.7,0.1-1.6,0.6-2.2l0.2-0.2L44.6,30.8z
			 M43.8,23.6c0-0.5,0.1-1,0.4-1.2c0.4-0.5,0.7-0.3,0.9-0.1c0.1,0.1,0.1,0.3,0.1,0.6c0,0.2-0.1,0.5-0.4,0.6
			c-0.2,0.1-0.4,0.1-0.7,0.1C44,23.6,43.9,23.6,43.8,23.6z M42.9,23.7c-0.3,0.1-0.7,0.3-1.2,0.6c0.3-0.5,0.4-0.9,0.5-1.3
			c0.2,0,0.5,0,0.7,0C42.9,23.3,42.9,23.5,42.9,23.7z M42.4,22.1c0-0.1,0-0.1,0-0.2c0-0.3,0-0.6,0.1-0.8c0.1-0.3,0.4-0.4,0.6-0.4
			c0.2,0,0.5,0,0.5,0.1c0.2,0.2,0.4,0.5-0.1,0.9C43.3,22,42.8,22.2,42.4,22.1z M15.7,4.1C15.8,4,15.9,3.9,16,3.8
			c2.2,2.4,3.8,5.6,5.4,8.7c1.4,2.7,2.6,5.2,4.1,6.7c-1.5-0.7-2.8-1.8-3.9-2.8C20,15,18.6,13.8,17,14c-1.3,0.2-2.3,0.8-3,1.6
			C12.9,12.3,12.6,7.4,15.7,4.1z M18.8,22.5c-1.5,0.3-2.8,0.6-3.5,0.1c0.2,0,0.5-0.2,0.6-0.3c0.4-0.4,0.5-1.2,0.1-1.7
			c1.7,1.2,3.3,1.2,4.8,1.3c0.6,0,1.2,0.1,1.7,0.1C21.3,22,20,22.3,18.8,22.5z M21,20.6c-1.9-0.1-3.6-0.2-5.5-2.2
			c-0.4-0.4-0.8-1.2-1.2-2.2c0.7-0.8,1.5-1.5,2.8-1.6c1.4-0.2,2.6,1,4.1,2.3c1.6,1.4,3.5,3,6,3.4c0.4,0.2,0.9,0.3,1.4,0.3
			c2.5,0,4-1.4,4.9-2.5c1-1.3,1.6-3.2,1.6-4.9c0-2.3-1.3-3.7-2.5-3.7c-0.7,0-1.3,0.7-1.3,1.6c0,0.9,0.6,1.6,1.3,1.6
			c0.6,0,1.1-0.5,1.2-1.1c0.2,0.5,0.3,1.1,0.3,1.7c0,1.5-0.5,3.1-1.4,4.3c-0.7,1-2,2.2-4.2,2.2c-2.5,0-4.3-3.5-6.4-7.7
			c-1.5-3-3.2-6.4-5.5-8.9c1.2-1.1,2-1.6,2.6-1.9c0,0.4,0.1,0.8,0.3,1.3c0.2,0.4,0.4,0.7,0.7,0.9c0,0,0,0.1,0,0.1
			c0,0,0.1,0.1,0.1,0.1c0.9,0.7,2.4,0,3.7-0.7l0.1-0.1c1.7-0.9,4.1,0.3,5.4,1.3c0.2,0.2,0.5,0.4,0.7,0.6c0.7,0.7,1.4,1.4,2.1,2.1
			c1.8,2.3,2.8,4.8,3.8,7.2c1.1,2.6,2.2,5.3,4.2,7.7c-2-0.9-3.7-3.6-3.7-4.1c0,0.5-2.2,4.1-4.6,4.3c0.6,0.2,2.5,0.4,3.4-0.6
			c0.2,0.3,0.8,0.6,1.2,0.6c0.5,0,1-0.3,1.2-0.6c0.7,0.7,1.9,0.8,2.8,0.7c0.1,0.1,0.2,0.3,0.3,0.4c0.1,0.1,0.1,0.1,0.2,0.2
			c0,0.1-0.1,0.2-0.1,0.4c-0.7-0.2-2.4-0.3-3.2,0.6c-0.2-0.3-0.8-0.6-1.2-0.6c-0.5,0-1,0.3-1.2,0.6c-0.9-0.9-2.7-0.8-3.4-0.6
			c1.9,0.2,3.7,2.5,4.3,3.7c-2.7,0.5-5.2-0.9-7.1-2.3c0.7-0.3,1.2-0.5,1.5-0.8c0.4-0.4,0.5-0.9,0.5-1.2c0,0,0-0.1,0-0.1c0,0,0,0,0,0
			c0-0.2-0.1-0.4-0.3-0.6c0,0,0,0,0,0l0,0c-0.1-0.1-0.1-0.1-0.2-0.2c-0.5-0.3-1.1-0.1-1.3,0.4c-0.2,0.3-0.1,0.8,0.1,1.1
			c-0.3,0.1-0.6,0.2-0.8,0.3c-0.2,0.1-0.4,0.1-0.5,0.2c-0.2-0.2-0.5-0.4-0.7-0.6C25.1,20.8,22.9,20.7,21,20.6z M40.3,21.9
			c-0.7,0-1.5-0.1-2-0.7l-0.2-0.2l-0.2,0.2c-0.2,0.2-0.7,0.5-1.1,0.5c-0.4,0-0.9-0.3-1.1-0.5l-0.2-0.2l-0.2,0.2
			c-0.5,0.5-1.3,0.7-2.1,0.7c1.6-0.7,2.9-2.6,3.5-3.6C37.4,19.3,38.7,21.2,40.3,21.9z M42.1,28.5c0.2,0.2,0.5,0.7,0.5,1.1
			c0,0.4-0.3,0.9-0.5,1.1L42,30.9l0.2,0.2c0.5,0.5,0.6,1.4,0.6,2.2c-0.7-1.7-2.4-3.1-3.4-3.6c0,0,0,0,0,0c1-0.6,2.7-2,3.4-3.6
			c0,0.8-0.1,1.6-0.6,2.2L42,28.3L42.1,28.5z M37.2,26.7c0.7-1.2,2.3-3.3,4.1-3.5c-0.2,0.5-0.5,1-1,1.8
			C39.2,25.8,38.2,26.4,37.2,26.7z M37.8,28.4c-1.2,2.5-1.2,5.9,0,8.4c-1.2-0.6-2.5-1-4-1c-1.5,0-2.8,0.3-4,1
			c0.6-1.2,0.9-2.7,0.9-4.2c0-1.5-0.3-3-0.9-4.2c1.1,0.6,2.5,1,4,1C35.3,29.4,36.7,29,37.8,28.4z M36.9,26.7
			C36.9,26.7,36.8,26.7,36.9,26.7c-0.6-1-1.9-2.8-3.5-3.6c0.7,0,1.6,0.1,2.1,0.7l0.2,0.2l0.2-0.2c0.2-0.2,0.7-0.5,1.1-0.5
			c0.4,0,0.9,0.3,1.1,0.5l0.2,0.2l0.2-0.2c0.5-0.5,1.3-0.7,2-0.7C38.7,23.9,37.4,25.7,36.9,26.7z M40.8,39c-1.4,1.5-4.9,1.1-7.9,0.7
			c-2-0.3-4-0.5-5.5-0.2c0.3-1.6,0-3.6-0.2-5.8c-0.4-3.2-0.8-6.9,0.6-8.4c0.1-0.1,0.2-0.1,0.3-0.2c2.2,1.8,5.4,3.9,9,3
			c-1,0.5-2.1,0.7-3.3,0.7c-2,0-3.9-0.7-5.1-2l-0.4,0.5c1.2,1.3,1.9,3.3,1.9,5.4c0,2.2-0.7,4.1-1.9,5.4l0.4,0.5c1.2-1.3,3.1-2,5.1-2
			c2.1,0,3.9,0.7,5.1,2l0.2-0.2l0,0.3v-0.3l0.2-0.2c-2.1-2.2-2.5-6.3-1.1-9.1c-0.9,3.9,1.1,7.4,2.8,9.7C41,38.8,40.9,38.9,40.8,39z
			 M43.7,51.6c-0.2,0.2-0.3,0.4-0.3,0.7c-0.5-0.7-0.2-2.1,0.1-3.7c0.2-1.1,0.4-2.3,0.5-3.6c0,0.4,0.1,0.9,0.1,1.3
			c0.1,1.7,0.1,3.4,1.3,5.2C44.8,51.1,44.1,51.2,43.7,51.6z M60.9,51.8c-3.2,3.4-8,2.9-11,1.8c0.8-0.8,1.4-1.8,1.5-3.2
			c0.2-1.7-1-3.2-2.3-4.8c-0.9-1.2-1.9-2.5-2.6-4c1.4,1.6,3.8,2.9,6.4,4.4c2.9,1.6,5.9,3.3,8.2,5.6C61,51.6,61,51.7,60.9,51.8z
			 M61.7,50.8c-2.4-2.4-5.5-4.2-8.4-5.8c-3.9-2.2-7.2-4.1-7.2-6.7c0-2.3,1.1-3.6,2.1-4.4c1.1-0.9,2.6-1.4,4.1-1.4
			c0.6,0,1.2,0.1,1.6,0.3c-0.6,0.2-1.1,0.7-1.1,1.3c0,0.8,0.7,1.4,1.5,1.4c0.8,0,1.5-0.6,1.5-1.3c0-1.2-1.4-2.6-3.5-2.6
			c-1.6,0-3.4,0.6-4.6,1.6c-1.1,0.9-2.4,2.5-2.4,5.2c0,0.4,0.1,0.8,0.2,1.2c0.4,2.7,2,4.7,3.3,6.4c1.2,1.6,2.3,2.9,2.1,4.4
			c-0.1,1.4-0.7,2.3-1.6,3c-0.9-0.4-1.6-0.8-1.9-1.2c-1.9-2-2-3.7-2.1-5.8c-0.1-2.1-0.2-4.4-2.3-7.1c-0.2-0.2-0.3-0.4-0.5-0.7
			c0.1-0.2,0.1-0.4,0.2-0.6c0.1-0.3,0.2-0.6,0.3-0.8c0.3,0.3,0.7,0.4,1,0.2c0.5-0.3,0.6-0.9,0.3-1.4c0-0.1-0.1-0.2-0.2-0.3l0,0
			c-0.4-0.4-1.1-0.6-1.8,0.1c-0.3,0.3-0.5,0.8-0.7,1.6c-1.4-2-2.7-4.5-2.2-7.3c1.1,0.7,3.4,2.6,3.5,4.6c0.2-0.7,0.3-2.6-0.5-3.5
			c0.2-0.3,0.6-0.8,0.6-1.3c0-0.5-0.3-1-0.6-1.3c0.9-0.9,0.8-2.9,0.5-3.5c-0.1,2-2.2,3.8-3.4,4.5c0.3-1.1,0.8-2.3,1.7-3.5
			c0.9-0.8,1.6-1.1,2-1.2c0.1,0.1,0.1,0.2,0.2,0.2c0.1,0.1,0.3,0.3,0.4,0.4c-0.1,0.9-0.1,2.3,0.6,3.1c-0.2,0.3-0.6,0.8-0.6,1.3
			c0,0.5,0.3,1,0.6,1.3c-0.9,1-0.8,2.9-0.5,3.5c0.2-2.5,3.6-4.8,4.1-4.8c-0.5,0-3.3-1.9-4-4.1c2.3,2.2,4.9,3.4,7.4,4.5
			c2.3,1,4.6,2.1,6.8,4c0.7,0.8,1.4,1.5,2,2.2c0.2,0.2,0.4,0.5,0.6,0.7c1,1.4,2.1,4,1.2,5.7L62,42.8c-0.7,1.4-1.3,3-0.7,4
			c0,0.1,0.1,0.1,0.1,0.1c0,0,0,0,0.1,0.1c0.2,0.3,0.5,0.5,0.8,0.7c0.4,0.2,0.8,0.3,1.2,0.3C63.3,48.6,62.8,49.5,61.7,50.8z
			 M71.8,67.3c-0.6,0.1-1.2,0.2-1.8,0.2c-0.9,0-1.6-0.3-2.1-0.8l-0.4-0.5l-0.4,0.5c-0.4,0.4-1.3,1-2,1c-0.8,0-1.7-0.6-2-1l-0.4-0.5
			l-0.4,0.5c-0.5,0.5-1.2,0.8-2.1,0.8c-0.6,0-1.2-0.1-1.8-0.2c3.1-1.2,5.4-4.1,6.4-6.4c0.1,0,0.3,0.1,0.4,0.1c0.2,0,0.4,0,0.5-0.1
			C66.5,63.2,68.8,66.1,71.8,67.3z M65,56.2c-0.5-1.7-1.3-3.1-2.4-4.4c1.7-2,2.5-3.6,2.4-4.9c0,0,0,0,0,0c0.1-0.7-0.4-1.5-1.2-1.9
			c-0.4-0.2-0.8-0.3-1.1-0.3c0.1-0.3,0.3-0.7,0.5-1.2l0.1-0.1c0.3-0.7,0.4-1.4,0.4-2.1c0.8,1.6,1.4,3.1,1.4,4.1c0-1,0.6-2.6,1.5-4.2
			c0,0.7,0.1,1.5,0.4,2.2l0.1,0.1c0.2,0.5,0.4,0.9,0.5,1.2c-0.4,0-0.8,0.1-1.1,0.3c-0.8,0.4-1.3,1.2-1.2,1.9c0,0,0,0,0,0
			c-0.1,1.3,0.7,2.9,2.4,4.9C66.4,53,65.5,54.5,65,56.2z M69.1,51.8c-0.1-0.1-0.2-0.2-0.2-0.3c2.3-2.3,5.3-4,8.2-5.6
			c2.6-1.5,5-2.8,6.4-4.4c-0.6,1.5-1.6,2.8-2.6,4c-1.3,1.7-2.5,3.1-2.3,4.9c0.2,1.4,0.7,2.4,1.5,3.2C77.1,54.7,72.3,55.1,69.1,51.8z
			 M86.6,52.3c0-0.2-0.2-0.5-0.3-0.7c-0.4-0.4-1.1-0.5-1.6-0.2c1.1-1.8,1.2-3.5,1.3-5.2c0-0.4,0-0.9,0.1-1.3
			c0.1,1.3,0.3,2.5,0.5,3.6C86.8,50.2,87.1,51.6,86.6,52.3z M87.7,35.6c-0.7-0.8-1.4-0.6-1.8-0.1l0,0c-0.1,0.1-0.1,0.2-0.2,0.3
			c-0.3,0.5-0.1,1.2,0.3,1.4c0.3,0.2,0.8,0.1,1.1-0.2c0.1,0.3,0.2,0.6,0.3,0.8c0.1,0.2,0.1,0.4,0.2,0.6c-0.2,0.2-0.3,0.5-0.5,0.7
			c-2.1,2.7-2.2,5.1-2.3,7.1c-0.1,2-0.2,3.8-2.1,5.8c-0.4,0.4-1.1,0.9-1.9,1.2c-0.8-0.7-1.4-1.7-1.6-3c-0.2-1.4,0.9-2.8,2.1-4.4
			c1.3-1.7,3-3.8,3.3-6.5c0.1-0.3,0.1-0.7,0.1-1.1c0-2.7-1.3-4.3-2.4-5.2c-1.3-1-3-1.6-4.6-1.6c-2.1,0-3.5,1.3-3.5,2.6
			c0,0.7,0.7,1.3,1.5,1.3c0.8,0,1.5-0.6,1.5-1.4c0-0.6-0.5-1.1-1.1-1.3c0.5-0.2,1.1-0.3,1.6-0.3c1.4,0,3,0.5,4.1,1.4
			c0.9,0.8,2.1,2.1,2.1,4.4c0,2.7-3.4,4.5-7.2,6.7c-2.8,1.6-6,3.4-8.3,5.8c-1.1-1.3-1.6-2.2-1.8-2.8c0.4,0,0.8-0.1,1.2-0.3
			c0.3-0.2,0.6-0.4,0.8-0.7c0,0,0,0,0.1,0c0,0,0.1-0.1,0.1-0.1c0.7-0.9,0-2.5-0.7-3.9l-0.1-0.1c-0.9-1.9,0.5-4.7,1.5-6.1
			c0.1-0.1,0.2-0.3,0.3-0.4c0.6-0.7,1.2-1.4,1.9-2.1c2.2-2,4.6-3,6.9-4.1c2.4-1.1,4.9-2.2,7.2-4.3c-0.9,2-3.4,3.7-3.8,3.7
			c0.5,0,3.9,2.3,4.1,4.8c0.2-0.7,0.3-2.6-0.6-3.5c0.2-0.3,0.6-0.8,0.6-1.3c0-0.5-0.3-1-0.6-1.3c0.7-0.7,0.8-2,0.7-2.8
			c0.1-0.1,0.3-0.3,0.4-0.4c0.1-0.1,0.1-0.2,0.2-0.2c0.1,0,0.2,0.1,0.3,0.1c-0.2,0.8-0.2,2.5,0.6,3.4c-0.2,0.3-0.6,0.8-0.6,1.3
			c0,0.5,0.3,1,0.6,1.3c-0.9,1-0.8,2.9-0.5,3.5c0.1-2,2.4-3.9,3.5-4.6c0.5,2.9-0.8,5.5-2.2,7.6C88.2,36.4,88,35.9,87.7,35.6z
			 M102.8,33.6c-0.3,2.2-0.5,4.2-0.2,5.8c-1.5-0.3-3.4,0-5.5,0.2c-3,0.4-6.5,0.9-7.9-0.7c-0.1-0.1-0.1-0.2-0.2-0.4
			c1.7-2.4,3.7-5.9,2.8-9.7c0.5,1.1,0.8,2.4,0.8,3.7c0,2.2-0.7,4.1-1.9,5.4l0.4,0.5c1.2-1.3,3.1-2,5.1-2c2.1,0,3.9,0.7,5.1,2
			l0.2-0.2l0,0.3l0-0.3l0.2-0.2c-2.5-2.7-2.5-8.2,0-10.8l-0.4-0.5c-1.2,1.3-3.1,2-5.1,2c-1.2,0-2.4-0.3-3.3-0.7c3.6,0.9,6.8-1.2,9-3
			c0.2,0.1,0.3,0.2,0.3,0.2C103.6,26.8,103.2,30.4,102.8,33.6z M111.2,22.5c-1.2-0.2-2.5-0.5-3.8-0.5c0.6-0.1,1.2-0.1,1.7-0.1
			c1.6-0.1,3.1-0.1,4.8-1.3c-0.3,0.6-0.3,1.3,0.1,1.7c0.2,0.2,0.4,0.3,0.6,0.3C114,23.1,112.7,22.8,111.2,22.5z M114.5,18.4
			c-1.9,2-3.6,2.1-5.5,2.2c-1.9,0.1-4.2,0.2-6.8,2.4c-0.2,0.2-0.4,0.4-0.7,0.6c-0.2-0.1-0.4-0.1-0.5-0.2c-0.2-0.1-0.6-0.2-0.8-0.3
			c0.2-0.3,0.3-0.7,0.1-1.1c-0.2-0.5-0.8-0.6-1.3-0.4c-0.1,0-0.1,0.1-0.2,0.1l0,0c0,0,0,0,0,0c-0.2,0.2-0.3,0.3-0.3,0.5c0,0,0,0,0,0
			c0,0,0,0.1,0,0.1c-0.1,0.4,0.1,0.8,0.5,1.2c0.3,0.3,0.8,0.5,1.5,0.8c-1.9,1.5-4.4,2.8-7.1,2.3c0.6-1.2,2.4-3.6,4.3-3.7
			c-0.6-0.2-2.5-0.4-3.4,0.6c-0.2-0.3-0.8-0.6-1.2-0.6c-0.5,0-1,0.3-1.2,0.6c-0.8-0.9-2.4-0.8-3.1-0.6c0-0.1-0.1-0.2-0.1-0.3
			c0.1-0.1,0.1-0.1,0.2-0.2c0.1-0.1,0.2-0.3,0.4-0.4c0.8,0.1,2,0,2.7-0.7c0.2,0.3,0.8,0.6,1.2,0.6c0.5,0,1-0.3,1.2-0.6
			c0.9,1,2.7,0.8,3.4,0.6c-2.4-0.2-4.6-3.8-4.6-4.3c0,0.5-1.6,3.1-3.5,4c2-2.4,3-5,4.1-7.6c1-2.4,2-4.9,3.8-7.2
			c0.7-0.7,1.4-1.4,2.1-2.1c0.2-0.2,0.4-0.4,0.7-0.6c1.4-1,3.8-2.2,5.4-1.3l0.1,0.1c1.3,0.7,2.8,1.4,3.7,0.7c0,0,0.1-0.1,0.1-0.1
			c0,0,0,0,0-0.1c0.3-0.2,0.5-0.5,0.7-0.9c0.2-0.4,0.3-0.9,0.3-1.3c0.6,0.2,1.5,0.8,2.7,1.9c-2.3,2.5-4,5.9-5.5,8.8
			c-2.1,4.1-3.9,7.7-6.4,7.7c-2.1,0-3.4-1.2-4.2-2.2c-0.9-1.2-1.4-2.8-1.4-4.3c0-0.6,0.1-1.2,0.3-1.7c0.2,0.6,0.6,1.1,1.2,1.1
			c0.7,0,1.3-0.7,1.3-1.6c0-0.9-0.6-1.6-1.3-1.6c-1.2,0-2.5,1.5-2.5,3.7c0,1.7,0.6,3.5,1.6,4.9c0.8,1.2,2.4,2.5,4.9,2.5
			c0.5,0,1-0.1,1.5-0.3c2.4-0.4,4.3-2.1,5.8-3.4c1.5-1.3,2.8-2.4,4.1-2.3c1.3,0.2,2.2,0.8,2.8,1.6C115.4,17.2,114.9,18,114.5,18.4z
			 M89.7,21.9c1.6-0.7,2.9-2.6,3.5-3.6c0.5,1,1.8,2.9,3.4,3.6c-0.7,0-1.5-0.1-2-0.7L94.3,21l-0.2,0.2c-0.2,0.2-0.7,0.5-1.1,0.5
			c-0.4,0-0.9-0.3-1.1-0.5L91.9,21l-0.2,0.2C91.2,21.7,90.4,21.9,89.7,21.9z M116,15.5c-0.7-0.8-1.7-1.4-3-1.6c-1.6-0.2-3,1-4.6,2.4
			c-1.1,1-2.4,2.1-3.8,2.7c1.5-1.5,2.7-4,4.1-6.7c1.5-3,3.2-6.3,5.3-8.7c0.1,0.1,0.2,0.2,0.3,0.3C117.4,7.4,117.1,12.3,116,15.5z"/>
	</g>
	<g>
		<path d="M65,62.3c-0.2,0.7-1,2-1.6,2.6l0.6,0.7c0.2-0.1,0.7-0.3,0.9-0.3c0,0,0.1,0,0.1,0c0,0,0,0,0.1,0
			c0.3,0,0.8,0.2,0.9,0.3l0.6-0.7C66,64.3,65.2,63,65,62.3z M65.1,64.7C65.1,64.7,65.1,64.7,65.1,64.7c-0.1,0-0.1,0-0.2,0
			c-0.2,0-0.5,0.1-0.7,0.1c0.3-0.3,0.5-0.7,0.8-1.1c0.2,0.4,0.5,0.8,0.8,1.1C65.6,64.8,65.3,64.7,65.1,64.7z"/>
	</g>
	<g>
		<path d="M55,61.8L55,61.8c0-1.6-2.1-2.1-2.8-2.1c0,0.8,0.3,2.9,2,2.9h0c0,1.8,2.2,2.1,2.7,2.1
			C57,64.2,56.7,61.8,55,61.8z M54.3,62.1c-1.1,0-1.4-1.1-1.5-1.8c0.7,0.1,1.8,0.6,1.8,1.5l0,0.3L54.3,62.1z M54.7,62.5l0-0.3H55
			c0.3,0,0.6,0.1,0.8,0.4c0.4,0.4,0.6,1,0.6,1.5C55.8,64,54.7,63.6,54.7,62.5z"/>
	</g>
	<g>
		<path d="M47.1,62.6c1.5-0.2,1.8-2.4,1.7-3.1c-0.7,0.1-2.7,0.6-2.5,2.4c-1.7,0.2-1.8,2.5-1.8,3.1
			C45,64.9,47.3,64.4,47.1,62.6z M48.3,60.1c0,0.3-0.1,0.7-0.2,1c-0.2,0.6-0.6,1-1.1,1l-0.3,0l0-0.3C46.6,60.7,47.7,60.3,48.3,60.1z
			 M45,64.4c0.1-0.7,0.3-1.9,1.3-2l0.3,0l0,0.3c0,0.4-0.1,0.6-0.3,0.9C46.1,64,45.5,64.3,45,64.4z"/>
	</g>
	<g>
		<path d="M50.9,63.2c1.2-1.3,0-3-0.5-3.5c-0.5,0.5-1.7,2.4-0.6,3.5c-1.2,1.3,0.2,3.2,0.6,3.5
			C50.8,66.3,52.2,64.5,50.9,63.2z M50.4,63.1l-0.2-0.2c-0.3-0.4-0.4-0.9-0.2-1.5c0.1-0.3,0.3-0.7,0.4-0.9c0.2,0.3,0.3,0.6,0.4,0.9
			c0.2,0.6,0.1,1.1-0.3,1.6L50.4,63.1z M49.9,64.4c0-0.3,0.1-0.6,0.3-0.9l0.2-0.2l0.2,0.2c0.7,0.8,0.2,1.9-0.2,2.4
			C50.2,65.5,49.9,64.9,49.9,64.4z"/>
	</g>
	<g>
		<path d="M55.6,58.3c0.4,0.4,0.7,0.5,1.1,0.5c1,0,2-0.8,2.2-1.1c-0.3-0.3-1.2-1-2.1-1c-0.4,0-0.8,0.1-1.2,0.5
			c-0.4-0.4-0.8-0.6-1.2-0.6c-0.9,0-1.8,0.7-2.1,1.1c0.3,0.4,1.3,1.1,2.2,1.1C54.9,58.8,55.3,58.7,55.6,58.3z M55.9,57.6
			c0.3-0.3,0.5-0.4,0.9-0.4c0.5,0,1.1,0.3,1.4,0.6c-0.4,0.3-1,0.6-1.5,0.6c-0.3,0-0.6-0.1-0.8-0.4l-0.2-0.2L55.9,57.6z M53,57.7
			c0.4-0.3,0.9-0.6,1.4-0.6c0.3,0,0.6,0.1,0.9,0.4l0.2,0.2L55.3,58c-0.2,0.2-0.5,0.3-0.8,0.3C54,58.3,53.4,58,53,57.7z"/>
	</g>
	<g>
		<path d="M77.7,59.7c-0.7,0-2.8,0.4-2.8,2.1h0c-1.7,0-2,2.4-2,2.9c0.6,0,2.7-0.3,2.7-2.1l0,0
			C77.3,62.5,77.7,60.4,77.7,59.7z M73.4,64.1c0.1-0.5,0.3-1.2,0.6-1.5c0.2-0.2,0.5-0.4,0.8-0.4h0.3v0.3
			C75.2,63.6,74.1,64,73.4,64.1z M75.6,62.1l-0.3,0v-0.3c0-1,1.1-1.4,1.8-1.5C77,60.9,76.7,62.1,75.6,62.1z"/>
	</g>
	<g>
		<path d="M83.6,61.9c0.2-1.8-1.8-2.3-2.5-2.4c-0.1,0.7,0.1,3,1.7,3.1c-0.2,1.8,2.1,2.3,2.6,2.4
			C85.5,64.4,85.4,62.1,83.6,61.9z M82.9,62.1c-0.5,0-0.8-0.4-1.1-1c-0.1-0.3-0.2-0.7-0.2-1c0.7,0.2,1.7,0.7,1.6,1.8l0,0.3
			L82.9,62.1z M83.5,63.6c-0.2-0.3-0.3-0.6-0.3-0.9l0-0.3l0.3,0c1,0.1,1.3,1.3,1.3,2C84.5,64.3,83.9,64,83.5,63.6z"/>
	</g>
	<g>
		<path d="M80,63.2c1.1-1.2-0.1-3-0.6-3.5c-0.5,0.5-1.7,2.3-0.5,3.5c-1.2,1.3,0.1,3.1,0.5,3.5
			C79.8,66.3,81.3,64.5,80,63.2z M79.5,63.1l-0.2-0.2c-0.4-0.4-0.5-0.9-0.3-1.6c0.1-0.3,0.3-0.6,0.4-0.9c0.2,0.3,0.3,0.6,0.4,0.9
			c0.2,0.7,0.1,1.2-0.2,1.5L79.5,63.1z M79.3,63.5l0.2-0.2l0.2,0.2c0.2,0.2,0.3,0.5,0.3,0.9c0,0.5-0.3,1.2-0.6,1.6
			C79.1,65.4,78.6,64.3,79.3,63.5z"/>
	</g>
	<g>
		<path d="M74.3,57.2c-0.4-0.4-0.8-0.5-1.2-0.5c-0.9,0-1.9,0.8-2.1,1c0.3,0.3,1.2,1.1,2.2,1.1c0.4,0,0.8-0.1,1.1-0.5
			c0.3,0.3,0.7,0.5,1.1,0.5c0.9,0,1.9-0.7,2.2-1.1c-0.3-0.4-1.2-1.1-2.1-1.1C75.1,56.7,74.7,56.8,74.3,57.2z M74,58
			c-0.2,0.2-0.5,0.4-0.8,0.4c-0.5,0-1.1-0.3-1.5-0.6c0.4-0.3,0.9-0.6,1.4-0.6c0.3,0,0.6,0.1,0.9,0.4l0.2,0.2L74,58z M76.9,57.7
			c-0.4,0.3-1,0.6-1.5,0.6c-0.3,0-0.6-0.1-0.8-0.3l-0.2-0.2l0.2-0.2c0.3-0.3,0.6-0.4,0.9-0.4C76,57.1,76.6,57.4,76.9,57.7z"/>
	</g>
	<g>
		<path d="M126.4,8.1C126.4,8.1,126.4,8.1,126.4,8.1c-0.5,0-2.8,0.3-2.8,2.1c-1.6,0-2,2.2-2,2.9
			c0.7,0,2.7-0.4,2.7-2.1C126.1,11,126.4,8.7,126.4,8.1z M123.1,12.3c-0.3,0.2-0.6,0.3-0.9,0.3c0.1-0.7,0.5-1.9,1.5-1.9h0.3V11
			C123.9,11.6,123.6,12,123.1,12.3z M124.3,10.5h-0.3v-0.3c0-0.6,0.3-1,0.9-1.3c0.3-0.1,0.6-0.2,0.9-0.3
			C125.7,9.3,125.4,10.5,124.3,10.5z"/>
	</g>
	<g>
		<path d="M124.4,18.6c-0.1-1.5-1.9-1.8-2.7-1.8c-0.1,0-0.2,0-0.2,0c0.1,0.7,0.6,2.7,2.1,2.7c0.1,0,0.1,0,0.2,0
			c0.1,1.6,1.9,1.9,2.6,1.9c0.1,0,0.2,0,0.3,0c0-0.5-0.5-2.7-2.1-2.7C124.5,18.6,124.5,18.6,124.4,18.6z M123.7,19
			c-0.1,0-0.1,0-0.2,0c-1,0-1.4-1-1.5-1.7c0.6,0.1,1.8,0.3,1.9,1.3l0,0.3L123.7,19z M124.5,19.1c0,0,0.1,0,0.1,0
			c0.9,0,1.3,1.1,1.5,1.8c-0.6-0.1-1.8-0.3-1.9-1.4l0-0.3L124.5,19.1z"/>
	</g>
	<g>
		<path d="M121.6,15c0.3,0.3,1.3,1.1,2.2,1.1c0.4,0,0.8-0.1,1.1-0.5c0.4,0.4,0.7,0.5,1.1,0.5c1,0,2-0.8,2.2-1.1
			c-0.3-0.3-1.2-1-2.1-1c-0.4,0-0.8,0.1-1.2,0.5c-0.4-0.4-0.8-0.6-1.2-0.6C122.8,14,121.9,14.7,121.6,15z M125.3,14.9
			c0.3-0.3,0.5-0.4,0.9-0.4c0.5,0,1.1,0.3,1.4,0.6c-0.4,0.3-1,0.6-1.5,0.6c-0.3,0-0.6-0.1-0.8-0.4l-0.2-0.2L125.3,14.9z M124.6,14.9
			l0.2,0.2l-0.2,0.2c-0.2,0.2-0.5,0.3-0.8,0.3c-0.5,0-1.1-0.3-1.5-0.6c0.4-0.3,0.9-0.6,1.4-0.6C124.1,14.5,124.4,14.6,124.6,14.9z"
			/>
	</g>
	<g>
		<path d="M119.8,6c-0.4,0.4-1.7,2.2-0.5,3.5c-1.2,1.3,0,3,0.5,3.5c0.5-0.5,1.7-2.4,0.6-3.5
			C121.6,8.3,120.1,6.4,119.8,6z M119.8,9.4l-0.2-0.2c-0.7-0.8-0.2-1.9,0.2-2.4c0.3,0.4,0.6,1,0.6,1.6c0,0.3-0.1,0.6-0.3,0.9
			L119.8,9.4z M120.2,11.4c-0.1,0.3-0.3,0.7-0.4,0.9c-0.4-0.6-0.9-1.6-0.2-2.4l0.2-0.2l0.2,0.2C120.4,10.3,120.4,10.8,120.2,11.4z"
			/>
	</g>
	<g>
		<path d="M8.3,13.1c0-0.7-0.4-2.9-2-2.9c0-1.8-2.3-2.1-2.8-2.1c0,0,0,0,0,0c0,0.6,0.3,2.9,2,2.9
			C5.6,12.8,7.6,13.1,8.3,13.1z M6.3,10.7c0.9,0,1.3,1.2,1.5,1.9c-0.3-0.1-0.6-0.1-0.9-0.3C6.3,12,6.1,11.6,6.1,11v-0.3H6.3z
			 M5.6,10.5c-1.1,0-1.4-1.1-1.5-1.9c0.3,0,0.6,0.1,0.9,0.3c0.6,0.3,0.9,0.7,0.9,1.3l0,0.3L5.6,10.5z"/>
	</g>
	<g>
		<path d="M8.5,16.8c-0.1,0-0.1,0-0.2,0c-0.8,0-2.6,0.3-2.7,1.8c-0.1,0-0.1,0-0.2,0c-1.6,0-2,2.2-2.1,2.7
			c0.1,0,0.2,0,0.3,0c0.8,0,2.5-0.3,2.6-1.9c0.1,0,0.1,0,0.2,0C7.9,19.4,8.4,17.5,8.5,16.8z M3.9,20.8c0.2-0.7,0.6-1.8,1.5-1.8
			c0,0,0.1,0,0.1,0l0.3,0l0,0.3C5.6,20.5,4.5,20.8,3.9,20.8z M6.4,19c0,0-0.1,0-0.2,0l-0.3,0l0-0.3c0.1-1,1.3-1.3,1.9-1.3
			C7.7,17.9,7.3,19,6.4,19z"/>
	</g>
	<g>
		<path d="M6.2,14c-0.4,0-0.8,0.2-1.2,0.6C4.6,14.1,4.2,14,3.8,14c-0.9,0-1.9,0.8-2.1,1c0.3,0.3,1.2,1.1,2.2,1.1
			c0.4,0,0.8-0.1,1.1-0.5c0.3,0.3,0.7,0.5,1.1,0.5C7,16.1,8,15.4,8.3,15C8,14.7,7.1,14,6.2,14z M4.7,15.3c-0.2,0.2-0.5,0.4-0.8,0.4
			c-0.5,0-1.1-0.3-1.5-0.6c0.4-0.3,0.9-0.6,1.4-0.6c0.3,0,0.6,0.1,0.9,0.4l0.2,0.2L4.7,15.3z M6.1,15.6c-0.3,0-0.6-0.1-0.8-0.3
			l-0.2-0.2l0.2-0.2c0.3-0.3,0.6-0.4,0.9-0.4c0.5,0,1,0.3,1.4,0.6C7.2,15.3,6.7,15.6,6.1,15.6z"/>
	</g>
	<g>
		<path d="M9.6,9.6c-1.1,1.2,0.1,3,0.6,3.5c0.5-0.5,1.7-2.3,0.5-3.5c1.2-1.3-0.1-3.1-0.5-3.5
			C9.8,6.4,8.4,8.3,9.6,9.6z M10.1,9.7l0.2,0.2c0.8,0.8,0.2,1.9-0.2,2.4c-0.2-0.3-0.3-0.6-0.4-0.9c-0.2-0.7-0.1-1.2,0.2-1.5
			L10.1,9.7z M10.3,9.2l-0.2,0.2L9.9,9.2C9.7,9,9.6,8.7,9.6,8.4c0-0.5,0.3-1.2,0.6-1.6C10.5,7.4,11.1,8.4,10.3,9.2z"/>
	</g>
	<g>
		<path d="M52.3,41.8c0.7,0,2.7-0.4,2.7-2.1c0,0,0,0,0,0c1.7,0,2-2.3,2-2.9h0c-0.5,0-2.8,0.3-2.8,2.1
			C52.8,38.9,52.3,41.1,52.3,41.8z M53.8,41c-0.3,0.2-0.6,0.2-0.9,0.3c0.1-0.7,0.5-1.9,1.5-1.9h0.3l0,0.3
			C54.6,40.2,54.3,40.7,53.8,41z M55.7,37.6c0.3-0.1,0.6-0.2,0.9-0.3c-0.1,0.7-0.5,1.9-1.5,1.9h-0.3v-0.3
			C54.8,38.3,55.1,37.9,55.7,37.6z"/>
	</g>
	<g>
		<path d="M55.7,44.3c0.4,0.4,0.7,0.5,1.1,0.5c1,0,2-0.8,2.2-1.1c-0.3-0.3-1.2-1-2.1-1c-0.4,0-0.8,0.1-1.2,0.5
			c-0.4-0.4-0.8-0.6-1.2-0.6c-0.9,0-1.8,0.7-2.1,1.1c0.3,0.3,1.3,1.1,2.2,1.1C54.9,44.8,55.3,44.6,55.7,44.3z M56,43.5
			c0.3-0.3,0.5-0.4,0.9-0.4c0.5,0,1.1,0.3,1.4,0.6c-0.4,0.3-1,0.6-1.5,0.6c-0.3,0-0.6-0.1-0.8-0.4l-0.2-0.2L56,43.5z M53,43.7
			c0.4-0.3,0.9-0.6,1.4-0.6c0.3,0,0.6,0.1,0.9,0.4l0.2,0.2l-0.2,0.2c-0.2,0.2-0.5,0.3-0.8,0.3C54,44.3,53.4,44,53,43.7z"/>
	</g>
	<g>
		<path d="M50.5,34.7c-0.4,0.4-1.7,2.2-0.5,3.5c-1.2,1.3,0,3,0.5,3.5c0.5-0.5,1.7-2.4,0.6-3.5
			C52.3,37,50.8,35.1,50.5,34.7z M50.5,38.1l-0.2-0.2c-0.7-0.8-0.2-1.9,0.2-2.4c0.3,0.4,0.6,1,0.6,1.6c0,0.3-0.1,0.6-0.3,0.9
			L50.5,38.1z M50.9,40.1c-0.1,0.3-0.3,0.7-0.4,0.9c-0.2-0.3-0.3-0.6-0.4-0.9c-0.2-0.6-0.1-1.1,0.3-1.6l0.2-0.2l0.2,0.2
			C51.1,38.9,51.1,39.4,50.9,40.1z"/>
	</g>
	<g>
		<path d="M74.9,39.6C74.9,39.6,74.9,39.6,74.9,39.6c0,1.8,2,2.1,2.7,2.1c0-0.7-0.4-2.9-2-2.9c0-1.8-2.3-2.1-2.8-2.1
			c0,0,0,0,0,0C72.8,37.4,73.1,39.6,74.9,39.6z M75.6,39.3c0.9,0,1.3,1.2,1.5,1.9c-0.3-0.1-0.6-0.1-0.9-0.3
			c-0.6-0.3-0.8-0.7-0.8-1.3v-0.3H75.6z M74.2,37.6c0.6,0.3,0.9,0.7,0.9,1.3l0,0.3h-0.3c-1.1,0-1.4-1.1-1.5-1.9
			C73.6,37.3,73.9,37.4,74.2,37.6z"/>
	</g>
	<g>
		<path d="M74.2,43.2c-0.4-0.4-0.8-0.5-1.2-0.5c-0.9,0-1.9,0.8-2.1,1c0.3,0.3,1.2,1.1,2.2,1.1c0.4,0,0.8-0.1,1.1-0.5
			c0.3,0.3,0.7,0.5,1.1,0.5c0.9,0,1.9-0.7,2.2-1.1c-0.3-0.4-1.2-1.1-2.1-1.1C75.1,42.6,74.6,42.8,74.2,43.2z M73.9,43.9
			c-0.2,0.2-0.5,0.4-0.8,0.4c-0.5,0-1.1-0.3-1.5-0.6c0.4-0.3,0.9-0.6,1.4-0.6c0.3,0,0.6,0.1,0.9,0.4l0.2,0.2L73.9,43.9z M76.9,43.7
			c-0.4,0.3-1,0.6-1.5,0.6c-0.3,0-0.6-0.1-0.8-0.3l-0.2-0.2l0.2-0.2c0.3-0.3,0.6-0.4,0.9-0.4C76,43.1,76.5,43.4,76.9,43.7z"/>
	</g>
	<g>
		<path d="M78.9,38.2c-1.1,1.2,0.1,3,0.6,3.5c0.5-0.5,1.7-2.3,0.5-3.5c1.2-1.3-0.1-3.1-0.5-3.5
			C79.1,35.1,77.6,37,78.9,38.2z M79.4,38.4l0.2,0.2c0.4,0.4,0.5,0.9,0.3,1.6c-0.1,0.3-0.3,0.6-0.4,0.9c-0.2-0.3-0.3-0.6-0.4-0.9
			c-0.2-0.7-0.1-1.2,0.2-1.5L79.4,38.4z M79.6,37.9l-0.2,0.2l-0.2-0.2c-0.2-0.2-0.3-0.5-0.3-0.9c0-0.5,0.3-1.2,0.6-1.6
			C79.8,36,80.3,37.1,79.6,37.9z"/>
	</g>
	<g>
		<path d="M102,10.9L102,10.9c0,1.8,2,2.1,2.7,2.1c0-0.7-0.4-2.9-2-2.9c0-1.8-2.3-2.1-2.8-2.1c0,0,0,0,0,0
			C100,8.6,100.3,10.9,102,10.9z M102.8,10.6c0.9,0,1.3,1.2,1.5,1.9c-0.3-0.1-0.6-0.1-0.9-0.3c-0.6-0.3-0.8-0.7-0.8-1.3v-0.3H102.8z
			 M101.4,8.8c0.6,0.3,0.9,0.7,0.9,1.3l0,0.3H102c-1.1,0-1.4-1.1-1.5-1.9C100.8,8.6,101.1,8.7,101.4,8.8z"/>
	</g>
	<g>
		<path d="M101.4,14.4c-0.4-0.4-0.8-0.5-1.2-0.5c-0.9,0-1.9,0.8-2.1,1c0.3,0.3,1.2,1.1,2.2,1.1
			c0.4,0,0.8-0.1,1.1-0.5c0.3,0.3,0.7,0.5,1.1,0.5c0.9,0,1.9-0.7,2.2-1.1c-0.3-0.4-1.2-1.1-2.1-1.1C102.2,13.9,101.8,14,101.4,14.4z
			 M101.1,15.2c-0.2,0.2-0.5,0.4-0.8,0.4c-0.5,0-1.1-0.3-1.5-0.6c0.4-0.3,0.9-0.6,1.4-0.6c0.3,0,0.6,0.1,0.9,0.4l0.2,0.2L101.1,15.2
			z M104.1,14.9c-0.4,0.3-1,0.6-1.5,0.6c-0.3,0-0.6-0.1-0.8-0.3l-0.2-0.2l0.2-0.2c0.3-0.3,0.6-0.4,0.9-0.4
			C103.2,14.4,103.7,14.7,104.1,14.9z"/>
	</g>
	<g>
		<path d="M106,9.5c-1.1,1.2,0.1,3,0.6,3.5c0.5-0.5,1.7-2.3,0.5-3.5c1.2-1.3-0.1-3.1-0.5-3.5
			C106.2,6.3,104.8,8.2,106,9.5z M106.6,9.6l0.2,0.2c0.4,0.4,0.5,0.9,0.3,1.6c-0.1,0.3-0.3,0.6-0.4,0.9c-0.2-0.3-0.3-0.6-0.4-0.9
			c-0.2-0.7-0.1-1.2,0.2-1.5L106.6,9.6z M106.8,9.1l-0.2,0.2l-0.2-0.2c-0.2-0.2-0.3-0.5-0.3-0.9c0-0.5,0.3-1.2,0.6-1.6
			C107,7.3,107.5,8.4,106.8,9.1z"/>
	</g>
	<g>
		<path d="M28,10.9c1.7,0,2-2.3,2-2.9c0,0,0,0,0,0c-0.5,0-2.8,0.3-2.8,2.1c-1.6,0-2,2.2-2,2.9C26,13,28,12.7,28,10.9
			L28,10.9z M28.6,8.8c0.3-0.1,0.6-0.2,0.9-0.3c-0.1,0.7-0.5,1.9-1.5,1.9h-0.3l0-0.3C27.7,9.5,28,9.1,28.6,8.8z M26.7,12.2
			c-0.3,0.2-0.6,0.2-0.9,0.3c0.1-0.7,0.5-1.9,1.5-1.9h0.3v0.3C27.5,11.5,27.2,11.9,26.7,12.2z"/>
	</g>
	<g>
		<path d="M25.2,15c0.3,0.4,1.3,1.1,2.2,1.1c0.4,0,0.8-0.1,1.1-0.5c0.4,0.4,0.7,0.5,1.1,0.5c1,0,2-0.8,2.2-1.1
			c-0.3-0.3-1.2-1-2.1-1c-0.4,0-0.8,0.1-1.2,0.5c-0.4-0.4-0.8-0.6-1.2-0.6C26.4,13.9,25.6,14.6,25.2,15z M29.8,14.4
			c0.5,0,1.1,0.3,1.4,0.6c-0.4,0.3-1,0.6-1.5,0.6c-0.3,0-0.6-0.1-0.8-0.4L28.7,15l0.2-0.2C29.1,14.5,29.4,14.4,29.8,14.4z
			 M28.2,14.8l0.2,0.2l-0.2,0.2c-0.2,0.2-0.5,0.3-0.8,0.3c-0.5,0-1.1-0.3-1.5-0.6c0.4-0.3,0.9-0.6,1.4-0.6
			C27.7,14.4,28,14.5,28.2,14.8z"/>
	</g>
	<g>
		<path d="M24,9.5c1.2-1.3-0.2-3.2-0.6-3.5c-0.4,0.4-1.7,2.2-0.5,3.5c-1.2,1.3,0,3,0.5,3.5
			C23.9,12.5,25.1,10.6,24,9.5z M23.4,9.4l-0.2-0.2c-0.7-0.8-0.2-1.9,0.2-2.4c0.3,0.4,0.6,1,0.6,1.6c0,0.3-0.1,0.6-0.3,0.9L23.4,9.4
			z M23.4,12.3c-0.2-0.3-0.3-0.6-0.4-0.9c-0.2-0.6-0.1-1.1,0.3-1.6l0.2-0.2l0.2,0.2c0.3,0.4,0.4,0.9,0.2,1.5
			C23.7,11.7,23.6,12,23.4,12.3z"/>
	</g>
	<g>
		<path d="M69,27c0.6-1.6-1.1-2.7-1.8-3c-0.2,0.6-0.6,2.8,0.8,3.4c-0.6,1.7,1.4,2.8,1.8,2.9
			C70.1,29.9,70.6,27.7,69,27z M68.2,27c-0.2-0.1-0.7-0.3-0.7-1.3c0-0.4,0-0.7,0.1-1c0.2,0.1,0.5,0.4,0.7,0.6c0.4,0.5,0.5,1,0.3,1.5
			l-0.1,0.3L68.2,27z M68.5,28.6c-0.1-0.3-0.1-0.6,0-0.9l0.1-0.3l0.3,0.1c0.9,0.4,0.9,1.5,0.8,2.2C69.2,29.5,68.7,29,68.5,28.6z"/>
	</g>
	<g>
		<path d="M61.9,27.5c1.4-0.6,1.1-2.8,0.8-3.4c-0.7,0.3-2.4,1.3-1.8,3c-1.6,0.6-1.1,2.8-0.9,3.4
			C60.5,30.2,62.5,29.1,61.9,27.5z M61.7,25.4c0.2-0.3,0.5-0.5,0.7-0.6c0,0.3,0.1,0.6,0.1,1c-0.1,1-0.6,1.2-0.7,1.3l-0.3,0.1
			l-0.1-0.3C61.2,26.3,61.3,25.8,61.7,25.4z M60.4,29.7c-0.1-0.7-0.2-1.9,0.8-2.2l0.3-0.1l0.1,0.3c0.1,0.3,0.1,0.6,0,0.9
			C61.3,29,60.8,29.5,60.4,29.7z"/>
	</g>
	<g>
		<path d="M91.9,2.8c-0.2,0-0.4,0-0.6,0.1c-0.3-0.9-1.1-1.1-1.9-1.1c-0.6,0-1.1,0.1-1.3,0.2c0.2,0.6,1,2,2.2,2
			c0.2,0,0.4,0,0.6-0.1c0.3,0.9,1.2,1.2,1.9,1.2c0.6,0,1.1-0.1,1.3-0.2C93.9,4.5,93.1,2.8,91.9,2.8z M90.7,3.5
			c-0.2,0.1-0.3,0.1-0.5,0.1c-0.7,0-1.2-0.7-1.5-1.2c0.2,0,0.4-0.1,0.7-0.1c0.8,0,1.3,0.3,1.5,0.8L91,3.4L90.7,3.5z M93.4,4.6
			c-0.2,0-0.4,0.1-0.7,0.1c-1.1,0-1.4-0.7-1.5-0.9l-0.1-0.3l0.3-0.1c0.1-0.1,0.3-0.1,0.4-0.1C92.6,3.3,93.1,4,93.4,4.6z"/>
	</g>
	<g>
		<path d="M37.2,5.1c0.7,0,1.5-0.2,1.9-1.2c0.2,0.1,0.4,0.1,0.6,0.1c1.2,0,2-1.4,2.2-2c-0.3-0.1-0.8-0.2-1.3-0.2
			c-0.8,0-1.6,0.2-1.9,1.1c-0.2-0.1-0.4-0.1-0.6-0.1c-1.2,0-2,1.6-2.2,2.1C36.2,5,36.7,5.1,37.2,5.1z M40.6,2.3c0.2,0,0.5,0,0.7,0.1
			c-0.3,0.5-0.8,1.2-1.5,1.2c-0.2,0-0.3,0-0.5-0.1L39,3.4l0.1-0.3C39.3,2.6,39.8,2.3,40.6,2.3z M38.1,3.3c0.1,0,0.3,0,0.4,0.1
			l0.3,0.1l-0.1,0.3c-0.1,0.2-0.3,0.9-1.5,0.9c-0.2,0-0.5,0-0.7-0.1C36.9,4,37.4,3.3,38.1,3.3z"/>
	</g>
	<g>
		<path d="M88,30l0.3,0.3c0.3-0.3,0.9-0.7,1.2-0.9c-0.3-0.2-0.9-0.5-1.2-0.9L88,28.9c0.1,0.1,0.2,0.4,0.1,0.5
			C88.2,29.5,88.1,29.8,88,30z M88.4,28.9c0.2,0.2,0.5,0.4,0.8,0.5c-0.2,0.1-0.5,0.3-0.8,0.5l-0.1-0.1c0-0.1,0.1-0.3,0.1-0.5
			C88.4,29.3,88.4,29.1,88.4,28.9L88.4,28.9z"/>
	</g>
	<g>
		<path d="M85.1,28.9l-0.3-0.3c-0.3,0.3-0.9,0.7-1.2,0.9c0.3,0.2,0.9,0.5,1.2,0.9l0.3-0.3c-0.1-0.1-0.2-0.4-0.1-0.5
			C84.9,29.3,85,29,85.1,28.9z M84.7,30c-0.2-0.2-0.5-0.4-0.8-0.5c0.2-0.2,0.5-0.3,0.8-0.5l0.1,0.1c0,0.1-0.1,0.3-0.1,0.5
			C84.7,29.6,84.8,29.7,84.7,30L84.7,30z"/>
	</g>
	<g>
		<path d="M93.1,19.2c-0.2,0.3-0.5,1-0.8,1.3l0.3,0.4c0.1-0.1,0.4-0.2,0.5-0.1c0.1,0,0.4,0.1,0.5,0.1l0.3-0.4
			C93.6,20.1,93.3,19.5,93.1,19.2z M93.1,20.4c-0.1,0-0.3,0-0.4,0.1l-0.1-0.1c0.2-0.2,0.4-0.5,0.5-0.8c0.1,0.2,0.3,0.6,0.5,0.8
			l-0.1,0.1C93.4,20.5,93.2,20.4,93.1,20.4z"/>
	</g>
	<g>
		<path d="M93.1,25.7c0.1-0.3,0.5-1,0.8-1.3l-0.3-0.4c-0.1,0.1-0.4,0.2-0.5,0.1c-0.1,0-0.4-0.1-0.5-0.1l-0.3,0.4
			C92.6,24.8,92.9,25.4,93.1,25.7z M93.1,24.5c0.1,0,0.3,0,0.4-0.1l0.1,0.1c-0.2,0.2-0.4,0.6-0.5,0.8c-0.1-0.3-0.3-0.6-0.5-0.8
			l0.1-0.1C92.8,24.4,93,24.5,93.1,24.5z"/>
	</g>
	<g>
		<path d="M44.8,30.2l0.3,0.3c0.3-0.3,0.9-0.7,1.2-0.9c-0.3-0.2-0.9-0.5-1.2-0.9l-0.3,0.3c0.1,0.1,0.2,0.4,0.1,0.5
			C45,29.8,44.9,30.1,44.8,30.2z M45.2,29.1c0.2,0.2,0.5,0.4,0.8,0.5c-0.2,0.1-0.5,0.3-0.8,0.5l-0.1-0.1c0-0.1,0.1-0.3,0.1-0.5
			C45.2,29.5,45.2,29.3,45.2,29.1L45.2,29.1z"/>
	</g>
	<g>
		<path d="M41.8,29.1l-0.3-0.3c-0.3,0.3-0.9,0.7-1.2,0.9c0.3,0.2,0.9,0.5,1.2,0.9l0.3-0.3c-0.1-0.1-0.2-0.4-0.1-0.5
			C41.6,29.5,41.8,29.2,41.8,29.1z M41.5,30.2c-0.2-0.2-0.5-0.4-0.8-0.5c0.2-0.2,0.5-0.3,0.8-0.5l0.1,0.1c0,0.1-0.1,0.3-0.1,0.5
			C41.4,29.8,41.5,30,41.5,30.2L41.5,30.2z"/>
	</g>
	<g>
		<path d="M36.9,19.4c-0.2,0.3-0.5,1-0.8,1.3l0.3,0.4c0.1-0.1,0.4-0.2,0.5-0.1c0.1,0,0.4,0.1,0.5,0.1l0.3-0.4
			C37.4,20.3,37,19.7,36.9,19.4z M36.9,20.6c-0.1,0-0.3,0-0.4,0.1l-0.1-0.1c0.2-0.2,0.4-0.5,0.5-0.8c0.1,0.2,0.3,0.6,0.5,0.8
			l-0.1,0.1C37.2,20.7,37,20.6,36.9,20.6z"/>
	</g>
	<g>
		<path d="M37.4,24.3c-0.1,0.1-0.4,0.2-0.5,0.1c-0.1,0-0.4-0.1-0.5-0.1L36,24.6c0.3,0.3,0.6,1,0.8,1.3
			c0.1-0.3,0.5-1,0.8-1.3L37.4,24.3z M36.3,24.6L36.3,24.6c0.2,0,0.4,0,0.5,0c0.1,0,0.3,0,0.4-0.1l0.1,0.1c-0.2,0.2-0.4,0.6-0.5,0.8
			C36.7,25.2,36.5,24.9,36.3,24.6z"/>
	</g>
	<g>
		<path d="M34.3,30.2l-0.2,0v1.3l0.2,0c0.2,0,0.3,0.1,0.4,0.2c0.1,0.1,0.2,0.2,0.2,0.4l0,0.2l1.2,0l0-0.2
			c0-1.1,0.4-2,0.9-2.5l-0.3-0.3C36.2,29.8,35.4,30.1,34.3,30.2z M35.7,31.8h-0.4c-0.1-0.2-0.2-0.3-0.3-0.4
			c-0.1-0.1-0.3-0.2-0.4-0.3v-0.5c0.6,0,1.1-0.2,1.5-0.4C35.9,30.7,35.8,31.2,35.7,31.8z"/>
	</g>
	<g>
		<path d="M34.9,33.1c0,0.2-0.1,0.3-0.2,0.4c-0.1,0.1-0.2,0.2-0.4,0.2l-0.2,0v1.3l0.2,0c1,0,1.9,0.4,2.4,0.9l0.3-0.3
			c-0.5-0.5-0.8-1.4-0.9-2.5l0-0.2h-1.2L34.9,33.1z M35.3,33.4l0.4,0c0,0.6,0.2,1.1,0.4,1.6c-0.4-0.2-1-0.3-1.5-0.4v-0.5
			c0.2-0.1,0.3-0.2,0.4-0.3C35.1,33.7,35.2,33.6,35.3,33.4z"/>
	</g>
	<g>
		<path d="M33.4,33.7c-0.2,0-0.3-0.1-0.4-0.2c-0.1-0.1-0.2-0.2-0.2-0.4l0-0.2h-1.2l0,0.2c0,1.1-0.4,2-0.9,2.5
			l0.3,0.3c0.5-0.5,1.4-0.9,2.4-0.9l0.2,0v-1.3L33.4,33.7z M31.6,35c0.2-0.5,0.3-1,0.4-1.6h0.4c0.1,0.2,0.2,0.3,0.3,0.4
			c0.1,0.1,0.3,0.2,0.4,0.3v0.5C32.5,34.7,32,34.8,31.6,35z"/>
	</g>
	<g>
		<path d="M32.8,32.1c0-0.2,0.1-0.3,0.2-0.4c0.1-0.1,0.2-0.2,0.4-0.2l0.2,0v-1.3l-0.2,0c-1,0-1.9-0.4-2.4-0.9
			l-0.3,0.3c0.5,0.5,0.8,1.4,0.9,2.5l0,0.2l1.2,0L32.8,32.1z M32.4,31.8l-0.4,0c0-0.6-0.2-1.1-0.4-1.6c0.4,0.2,1,0.3,1.5,0.4v0.5
			c-0.2,0.1-0.3,0.2-0.4,0.3C32.5,31.5,32.4,31.7,32.4,31.8z"/>
	</g>
	<g>
		<path d="M33.4,33.1c0.1,0.1,0.3,0.2,0.5,0.2c0.2,0,0.3-0.1,0.5-0.2c0.3-0.3,0.3-0.7,0-1c-0.1-0.1-0.3-0.2-0.5-0.2
			c-0.2,0-0.3,0.1-0.5,0.2C33.1,32.4,33.1,32.8,33.4,33.1z M33.8,32.4c0,0,0.1,0,0.1,0.1c0.1,0.1,0.1,0.1,0.1,0.2c0,0,0,0.1-0.1,0.2
			c-0.1,0.1-0.1,0.1-0.1,0.1c0,0-0.1,0-0.1-0.1c-0.1-0.1-0.1-0.1-0.1-0.2c0,0,0-0.1,0.1-0.2C33.7,32.4,33.8,32.4,33.8,32.4z"/>
	</g>
	<g>
		<path d="M96.6,31.5c0.2,0,0.3,0.1,0.4,0.2c0.1,0.1,0.2,0.2,0.2,0.4l0,0.2l1.2,0l0-0.2c0-1.1,0.4-2,0.9-2.5
			l-0.3-0.3c-0.5,0.5-1.4,0.9-2.4,0.9l-0.2,0v1.3L96.6,31.5z M98.4,30.2c-0.2,0.5-0.3,1-0.4,1.6h-0.4c-0.1-0.2-0.2-0.3-0.3-0.4
			c-0.1-0.1-0.3-0.2-0.4-0.3v-0.5C97.5,30.6,98,30.4,98.4,30.2z"/>
	</g>
	<g>
		<path d="M97.2,33.1c0,0.2-0.1,0.3-0.2,0.4c-0.1,0.1-0.2,0.2-0.4,0.2l-0.2,0v1.3l0.2,0c1,0,1.9,0.4,2.4,0.9v0
			l0.3-0.3v0c-0.5-0.5-0.8-1.4-0.9-2.5l0-0.2h-1.2L97.2,33.1z M97.6,33.4l0.4,0c0,0.6,0.2,1.1,0.4,1.6c-0.4-0.2-1-0.3-1.5-0.4v-0.5
			c0.2-0.1,0.3-0.2,0.4-0.3C97.5,33.7,97.6,33.6,97.6,33.4z"/>
	</g>
	<g>
		<path d="M95.7,33.7c-0.2,0-0.3-0.1-0.4-0.2c-0.1-0.1-0.2-0.2-0.2-0.4l0-0.2h-1.2l0,0.2c0,1.1-0.4,2-0.9,2.5
			l0.3,0.3c0.5-0.5,1.4-0.9,2.4-0.9l0.2,0v-1.3L95.7,33.7z M93.9,35c0.2-0.5,0.3-1,0.4-1.6h0.4c0.1,0.2,0.2,0.3,0.3,0.4
			c0.1,0.1,0.3,0.2,0.4,0.3v0.5C94.9,34.7,94.4,34.8,93.9,35z"/>
	</g>
	<g>
		<path d="M93.8,32.3h1.2l0-0.2c0-0.2,0.1-0.3,0.2-0.4c0.1-0.1,0.2-0.2,0.4-0.2l0.2,0v-1.3l-0.2,0
			c-1-0.1-1.9-0.4-2.4-0.9L93,29.6c0.5,0.5,0.8,1.4,0.9,2.5L93.8,32.3z M95.4,30.6v0.5c-0.2,0.1-0.3,0.2-0.4,0.3
			c-0.1,0.1-0.2,0.3-0.3,0.4l-0.4,0c0-0.6-0.2-1.1-0.4-1.6C94.4,30.4,94.9,30.6,95.4,30.6z"/>
	</g>
	<g>
		<path d="M95.7,33.1c0.1,0.1,0.3,0.2,0.5,0.2c0.2,0,0.3-0.1,0.5-0.2c0.3-0.3,0.3-0.7,0-1c-0.1-0.1-0.3-0.2-0.5-0.2
			c-0.2,0-0.3,0.1-0.5,0.2C95.5,32.4,95.5,32.8,95.7,33.1z M96.2,32.4c0,0,0.1,0,0.1,0.1c0.1,0.1,0.1,0.1,0.1,0.2s0,0.1-0.1,0.2
			c-0.1,0.1-0.1,0.1-0.1,0.1c0,0-0.1,0-0.1-0.1C96,32.7,96,32.6,96,32.6s0-0.1,0.1-0.2C96.1,32.4,96.1,32.4,96.2,32.4z"/>
	</g>
	<g>
		<path d="M64.6,30.9c0.1-0.1,0.3-0.1,0.5-0.1c0.2,0,0.3,0.1,0.5,0.1l0.5-0.5c-0.6-0.7-1-1.5-1-2.3
			c0,0.7-0.4,1.6-1,2.3L64.6,30.9z"/>
	</g>
	<g>
		<path d="M65.9,31.7c0,0.2-0.1,0.4-0.1,0.5l0.5,0.5c0.6-0.6,1.4-1,2.1-1c-0.7,0-1.5-0.4-2.1-1l-0.5,0.5
			C65.8,31.3,65.9,31.5,65.9,31.7z"/>
	</g>
	<g>
		<path d="M65.5,32.5c-0.1,0.1-0.3,0.1-0.5,0.1c-0.2,0-0.3-0.1-0.5-0.1L64,33c0.6,0.7,1,1.5,1,2.3
			c0-0.8,0.4-1.6,1-2.3L65.5,32.5z"/>
	</g>
	<g>
		<path d="M64.1,31.7c0-0.2,0.1-0.4,0.1-0.5l-0.5-0.5c-0.6,0.6-1.4,1-2.1,1c0.7,0,1.5,0.4,2.1,1l0.5-0.5
			C64.2,32,64.1,31.8,64.1,31.7z"/>
	</g>
	<g>
		<ellipse cx="65" cy="31.7" rx="0.6" ry="0.6"/>
	</g>
	<g>
		<path d="M95.7,0.5c-0.1,0.1-0.3,0.1-0.5,0.1c-0.2,0-0.3-0.1-0.5-0.1L94.3,1c0.6,0.7,1,1.5,1,2.3
			c0-0.8,0.4-1.6,1-2.3L95.7,0.5z"/>
	</g>
	<g>
		<path d="M35.2,0.5c-0.1,0.1-0.3,0.1-0.5,0.1c-0.2,0-0.3-0.1-0.5-0.1L33.7,1c0.6,0.7,1,1.5,1,2.3
			c0-0.8,0.4-1.6,1-2.3L35.2,0.5z"/>
	</g>
	<g>
		<path d="M59,6.1c-0.5,0.5-4.3,1.3-6.2-0.4C53,6,53.3,6.6,53.7,7.1C54.2,7.6,54.8,8,55.4,8c0,0.4,0.3,0.8,0.6,1.2
			c0.3,0.4,0.8,0.6,1.1,0.6c0,0.7,0.4,1.3,0.9,1.8c0.4,0.5,1,0.8,1.3,1C57.7,10.7,58.5,6.6,59,6.1z M58.2,11.4
			c-0.4-0.4-0.8-1-0.8-1.6V9.6h-0.2c-0.3,0-0.7-0.2-1-0.6c-0.3-0.3-0.5-0.8-0.5-1V7.7h-0.2c-0.6,0-1.2-0.5-1.5-0.8
			c-0.1-0.1-0.2-0.3-0.3-0.4c1.6,0.7,3.8,0.5,4.9,0.1c-0.4,1.2-0.6,3.5,0.1,5.2C58.4,11.7,58.3,11.6,58.2,11.4z"/>
	</g>
	<g>
		<path d="M56.3,7.6l-0.1,0.6c0.1,0,0.3,0.2,0.4,0.3c0,0,0,0,0,0.1c0,0,0,0,0,0c0.1,0.1,0.2,0.3,0.2,0.4l0.5-0.1
			c0-0.5,0.1-1,0.2-1.4C57.3,7.6,56.8,7.6,56.3,7.6z M57.1,8.6C57,8.5,57,8.4,56.9,8.3c0,0,0,0,0,0c0,0,0,0,0,0
			c-0.1-0.1-0.2-0.2-0.3-0.2l0-0.2c0.2,0,0.6,0,0.9-0.1c-0.1,0.3-0.1,0.5-0.1,0.9L57.1,8.6z"/>
	</g>
	<g>
		<path d="M51.2,14.5l-0.1-0.1c-0.4,0.4-2.4,1-4.6,1c-1.5,0-3.7-0.3-5.1-1.6l-0.3-0.3l0.2,0.4
			c0.3,0.5,0.8,1.4,1.5,2.2c0.9,0.9,1.8,1.4,2.7,1.5c0,0.6,0.5,1.4,1,1.9c0.5,0.5,1.2,1,1.8,1.1c0,0.9,0.5,1.9,1.4,2.9
			c0.7,0.7,1.5,1.3,2,1.6l0.3,0.2l-0.2-0.3C49.3,21.7,50.4,15.3,51.2,14.5z M50,22.9c-0.6-0.6-1.2-1.5-1.2-2.5l0-0.5h-0.4
			c-0.4,0-1-0.4-1.5-0.9c-0.5-0.5-0.8-1.2-0.8-1.6v-0.5h-0.4c-1,0-1.8-0.7-2.4-1.3c-0.1-0.1-0.2-0.3-0.4-0.4c1,0.4,2.3,0.6,3.7,0.6
			c1.3,0,2.8-0.2,3.9-0.6c-0.5,1.8-0.9,5.3,0.1,8C50.2,23.2,50.1,23,50,22.9z"/>
	</g>
	<g>
		<path d="M49.2,16.5l0.1-0.2l-0.2,0.1c-0.6,0.2-1.3,0.3-2.2,0.3l-0.1,0l-0.2,1l0.1,0c0.1,0,0.5,0.2,0.6,0.4
			c0,0,0,0.1,0.1,0.1l0,0c0,0,0,0,0,0c0.1,0.1,0.3,0.5,0.3,0.7l0,0.1l1-0.2v-0.1C48.9,18,49,17.2,49.2,16.5z M48.2,18.4
			c-0.1-0.2-0.2-0.4-0.3-0.5c0,0,0,0,0,0c0,0,0,0-0.1-0.1l0,0c-0.1-0.1-0.4-0.3-0.5-0.4l0-0.2l0,0c0.3,0,0.8,0,1.2-0.1
			c-0.1,0.4-0.1,0.8-0.2,1.2L48.2,18.4z"/>
	</g>
	<g>
		<path d="M78.9,14.5c0.8,0.8,1.9,7.3-0.5,10.3l-0.2,0.3l0.3-0.2c0.5-0.3,1.3-0.8,2-1.6c0.9-0.9,1.4-1.9,1.4-2.9
			c0.6,0,1.3-0.5,1.8-1.1c0.5-0.5,1-1.3,1-1.9c0.9,0,1.8-0.5,2.7-1.5c0.7-0.7,1.2-1.6,1.5-2.2l0.2-0.4l-0.3,0.3
			c-1.4,1.3-3.6,1.6-5.1,1.6c-2.3,0-4.3-0.6-4.6-1L78.9,14.5z M83.6,15.9c1.4,0,2.6-0.2,3.7-0.6c-0.1,0.1-0.2,0.3-0.4,0.4
			c-0.6,0.6-1.4,1.3-2.4,1.3h-0.4v0.5c0,0.4-0.4,1.1-0.8,1.6c-0.5,0.5-1.1,0.9-1.5,0.9h-0.4l0,0.5c0,1-0.7,1.9-1.2,2.5
			c-0.1,0.1-0.2,0.2-0.4,0.4c1-2.7,0.6-6.1,0.1-8C80.9,15.7,82.3,15.9,83.6,15.9z"/>
	</g>
	<g>
		<path d="M81.2,18.8l1,0.2l0-0.1c0-0.2,0.2-0.5,0.3-0.7c0,0,0,0,0,0l0,0c0,0,0-0.1,0.1-0.1c0.1-0.1,0.5-0.3,0.6-0.4
			l0.1,0l-0.2-1h-0.1c-0.9,0-1.6-0.1-2.2-0.3l-0.2-0.1l0.1,0.2C81,17.2,81.2,18,81.2,18.8L81.2,18.8z M82.7,17.3L82.7,17.3l0,0.2
			c-0.1,0.1-0.4,0.2-0.5,0.4l0,0c0,0,0,0.1-0.1,0.1c0,0,0,0,0,0c-0.1,0.1-0.2,0.3-0.3,0.5l-0.2,0c0-0.4-0.1-0.8-0.2-1.2
			C81.9,17.3,82.4,17.3,82.7,17.3z"/>
	</g>
	<g>
		<path d="M77.2,5.7c-1.8,1.6-5.7,0.8-6.2,0.4c0.5,0.5,1.2,4.6-0.3,6.5c0.3-0.2,0.8-0.5,1.3-1
			c0.5-0.5,0.9-1.1,0.9-1.8c0.3,0,0.8-0.3,1.1-0.6c0.3-0.4,0.6-0.8,0.6-1.2c0.6,0,1.2-0.4,1.7-0.9C76.7,6.6,77.1,6,77.2,5.7z
			 M74.4,8c0,0.3-0.2,0.7-0.5,1c-0.3,0.3-0.7,0.6-1,0.6h-0.2l0,0.2c0,0.7-0.4,1.2-0.8,1.6c-0.1,0.1-0.3,0.3-0.4,0.4
			c0.7-1.7,0.4-4.1,0.1-5.2c1.1,0.4,3.3,0.6,4.9-0.1c-0.1,0.1-0.2,0.3-0.3,0.4c-0.4,0.4-0.9,0.8-1.5,0.8h-0.2L74.4,8z"/>
	</g>
	<g>
		<path d="M73.7,7.6c-0.4,0-1,0-1.4-0.2c0.2,0.4,0.2,1,0.2,1.4l0.5,0.1c0-0.1,0.1-0.3,0.2-0.4c0,0,0,0,0,0
			c0,0,0,0,0-0.1c0.1-0.1,0.3-0.2,0.4-0.3L73.7,7.6z M73.1,8.3C73.1,8.3,73.1,8.3,73.1,8.3C73,8.4,73,8.5,72.9,8.6l-0.2,0
			c0-0.3-0.1-0.6-0.1-0.9c0.3,0.1,0.6,0.1,0.9,0.1l0,0.2C73.4,8.1,73.3,8.2,73.1,8.3C73.2,8.3,73.2,8.3,73.1,8.3z"/>
	</g>
	<g>
		<path d="M74.4,0C70,1.5,66,5.9,65,10.7c-0.5-2.5-1.8-5-3.8-7c-1.7-1.7-3.6-3-5.6-3.7h-2.6c2.7,0.2,5.5,1.7,7.8,4.1
			c2.5,2.6,3.9,5.9,3.9,9h0.5C65.3,6.8,71.1,0.5,77,0H74.4z"/>
	</g>
	<g>
		<path d="M70.2,0c-0.7,0.4-1.5,0.9-2.2,1.5l-0.6-0.7c0.1-0.3,0.2-0.5,0.2-0.8h-0.5c0,0.3-0.1,0.7-0.3,0.9L68,2.2
			c1.1-1,2.3-1.8,3.5-2.2H70.2z"/>
	</g>
	<g>
		<path d="M66.1,1.6c-0.3,0.2-0.7,0.3-1.1,0.3c-0.4,0-0.8-0.1-1.1-0.3l-1.2,1.3C64,4.5,65,6.5,65,8.3
			c0-1.8,1-3.8,2.4-5.4L66.1,1.6z M63.3,2.9l0.6-0.7c0.3,0.1,0.7,0.2,1,0.2c0.4,0,0.7-0.1,1-0.2l0.6,0.7c-0.7,0.9-1.3,1.9-1.7,2.9
			C64.6,4.8,64,3.8,63.3,2.9z"/>
	</g>
	<g>
		<path d="M62.4,0c0,0.3,0.1,0.5,0.2,0.7L62,1.4c-0.6-0.6-1.3-1.1-2-1.4h-1.3C59.8,0.4,61,1.2,62,2.1l1.2-1.3
			C63.1,0.6,63,0.3,62.9,0H62.4z"/>
	</g>
	<g>
		<path d="M74.5,18.2c0.6-0.6-0.3-1.3,0.1-2.6c0.4-1.2,1.9-2.2,1.6-3.9c1.6,0.3,2.6-1.3,3.7-1.7
			c1.3-0.5,1.9,0.4,2.5-0.2c0.2-0.2,0.4-0.9-0.1-1.2C83,8.7,84,8,84.6,7.4c-0.1-0.2-0.3-0.5-0.4-0.7c-2.3,1.4-6,1.5-8.6,4.2
			c-2.6,2.7-2.7,6.6-4,9c0.1,0.1,0.5,0.3,0.6,0.4c0.6-0.7,1.2-1.7,1.1-2.3C73.7,18.6,74.3,18.4,74.5,18.2z"/>
	</g>
	<g>
		<path d="M78,18.1c0.6-2.8-0.6-4.5-1.3-5.2c0.2,1.1,0.4,4.6-0.1,5.8C76.8,18,77.7,18.1,78,18.1z"/>
	</g>
	<g>
		<path d="M82.4,13.4c-0.1-0.3-0.1-1.2,0.5-1.5c-1.2,0.5-4.4,0.4-5.5,0.1C78.2,12.8,79.8,14.1,82.4,13.4z"/>
	</g>
	<g>
		<path d="M45.8,6.7c-0.1,0.1-0.3,0.5-0.4,0.7C46,8,47,8.7,47.6,8.5c-0.5,0.3-0.3,1-0.1,1.2c0.6,0.6,1.2-0.3,2.5,0.2
			c1.1,0.4,2.1,2,3.7,1.7c-0.3,1.7,1.2,2.7,1.6,3.9c0.4,1.3-0.4,2,0.1,2.6c0.2,0.2,0.8,0.5,1.2-0.1c-0.2,0.7,0.5,1.7,1.1,2.3
			c0.2-0.1,0.5-0.3,0.6-0.4c-1.4-2.4-1.4-6.3-4-9C51.7,8.2,48.1,8.2,45.8,6.7z"/>
	</g>
	<g>
		<path d="M53.5,18.7c-0.5-1.2-0.3-4.7-0.1-5.8c-0.7,0.8-2,2.5-1.3,5.2C52.3,18.1,53.2,18,53.5,18.7z"/>
	</g>
	<g>
		<path d="M47.6,13.4c2.6,0.7,4.2-0.6,5-1.4c-1.1,0.3-4.4,0.4-5.5-0.1C47.7,12.2,47.6,13.1,47.6,13.4z"/>
	</g>
	<g>
		<path d="M47.6,56.3c-0.4-0.5-1-0.3-1.2-0.1c-0.2,0.2-0.5,0.7-0.2,1c0.3,0.3,0.7,0.3,0.8,0
			c-0.4,1.3-4.8,2.1-5.5,3.1c-1-1.1-1.5-3-0.7-4c-0.1,0.5,0.5,0.8,1,0.3c0.5-0.5,0.1-1-0.4-1.1c-1-0.2-1.9,0.8-2.1,2
			c-1.9,0.4-4.4-0.4-6.8-2.1c-3.3-2.3-5.9-5.8-6.7-8.9c0.9,0.1,1.9,0.2,2.9,0.3c4.3,0.6,8.8,1.2,11-1.2c0.5-0.5,0.7-1.1,0.9-1.6
			c0-0.1,0.1-0.2,0.1-0.2c0.4,0.5,1,0.6,1.5,0.4c0.6-0.3,0.8-1.1,0.4-1.8c-0.1-0.2-0.3-0.4-0.4-0.5c-0.5-0.4-1.2-0.5-2,0.3
			c-0.4,0.4-0.6,0.9-0.7,1.4c-0.2,0.4-0.3,0.8-0.6,1.1c-1.8,1.9-6.2,1.4-10,0.9c-2.7-0.4-5.2-0.7-7-0.2c0.4-1.9,0.1-4.6-0.2-7.4
			c-0.5-4.1-1-8.7,0.8-10.6c0.3-0.3,0.7-0.4,1.1-0.6c0.5-0.2,0.9-0.4,1.3-0.8c0.8-0.8,0.7-1.6,0.3-2.1c-0.1-0.2-0.3-0.3-0.5-0.4
			C24,23,23.3,23.2,23,23.8c-0.3,0.5-0.1,1.2,0.3,1.5c-0.1,0-0.2,0.1-0.2,0.1c-0.5,0.2-1,0.4-1.5,0.9c-2.3,2.4-1.7,7.1-1.2,11.7
			c0.1,1,0.2,2,0.3,3c-3-0.8-6.4-3.6-8.6-7.1c-1.6-2.6-2.3-5.2-2-7.2c1.1-0.1,2.1-1.1,1.9-2.2c-0.1-0.5-0.6-0.9-1.1-0.4
			c-0.5,0.5-0.2,1.1,0.3,1.1c-0.9,0.8-2.7,0.3-3.8-0.8c0.9-0.8,1.7-5.4,2.9-5.8c-0.2,0.1-0.3,0.5,0,0.9c0.3,0.3,0.8,0.1,1-0.2
			c0.2-0.2,0.4-0.8-0.1-1.3c-0.6-0.7-1.5-0.3-2,0.2c-1.2,1.3-1.7,5.2-3.3,6.4c0.5,0.3,1.3,1.4,2.9,2c-0.4,2.3,0.4,5.2,2.2,8.1
			c0.7,1.2,1.6,2.2,2.5,3.2c2.2,2.3,4.8,4,7.2,4.5c0,0.6,0,1.2,0,1.7c-0.5-0.4-1.3-0.4-1.8,0.1c-0.5,0.6-0.5,1.5,0,2
			c-0.5,0.6-0.5,1.5,0,2c0.5,0.6,1.4,0.6,1.9,0c0,0,0,0,0,0c0.5,0.6,1.4,0.6,1.9,0c0.5-0.5,0.5-1.3,0.1-1.9c0.5,0,1,0,1.5,0
			c0.6,2.5,2.1,5.2,4.3,7.5c0.9,1,1.9,1.9,3,2.6c2.7,1.9,5.4,2.7,7.6,2.3c0.5,1.6,1.6,2.5,1.9,3c1.1-1.7,4.9-2.2,6.1-3.5
			C47.9,57.9,48.2,56.9,47.6,56.3z"/>
	</g>
	<g>
		<path d="M111,48.3c0.5-0.6,0.5-1.5,0-2c0.5-0.6,0.5-1.5,0-2c-0.5-0.5-1.3-0.6-1.8-0.1c0-0.5,0-1.1,0-1.7
			c2.4-0.6,5-2.2,7.2-4.5c0.9-1,1.8-2.1,2.5-3.2c1.8-2.9,2.6-5.7,2.2-8.1c1.5-0.5,2.4-1.7,2.9-2c-1.6-1.2-2.1-5.1-3.3-6.4
			c-0.4-0.5-1.3-0.8-2-0.2c-0.4,0.5-0.3,1-0.1,1.3c0.2,0.2,0.7,0.5,1,0.2c0.3-0.3,0.3-0.8,0-0.9c1.2,0.4,2,5.1,2.9,5.8
			c-1,1.1-2.8,1.6-3.8,0.8c0.5,0.1,0.8-0.6,0.3-1.1c-0.5-0.5-1-0.1-1.1,0.4c-0.2,1.1,0.7,2,1.9,2.2c0.3,2-0.4,4.6-2,7.2
			c-2.2,3.5-5.6,6.3-8.6,7.1c0.1-1,0.2-2,0.3-3c0.5-4.6,1.1-9.3-1.2-11.7c-0.5-0.5-1-0.7-1.5-0.9c-0.1,0-0.2-0.1-0.2-0.1
			c0.4-0.4,0.6-1,0.3-1.5c-0.3-0.6-1-0.8-1.7-0.4c-0.2,0.1-0.3,0.3-0.5,0.4c-0.4,0.5-0.5,1.3,0.3,2.1c0.4,0.4,0.8,0.6,1.3,0.8
			c0.4,0.2,0.8,0.3,1.1,0.6c1.8,2,1.3,6.5,0.8,10.6c-0.3,2.8-0.6,5.5-0.2,7.4c-1.8-0.4-4.4-0.1-7,0.2c-3.8,0.5-8.2,1.1-10-0.9
			c-0.3-0.3-0.4-0.7-0.6-1.1c-0.2-0.5-0.4-1-0.7-1.4c-0.8-0.8-1.5-0.7-2-0.3c-0.2,0.1-0.3,0.3-0.4,0.5c-0.3,0.7-0.1,1.4,0.4,1.8
			c0.5,0.3,1.1,0.1,1.5-0.4c0,0.1,0.1,0.2,0.1,0.2c0.2,0.5,0.4,1.1,0.9,1.6c2.3,2.4,6.7,1.8,11,1.2c1-0.1,2-0.3,2.9-0.3
			c-0.8,3.1-3.4,6.6-6.7,8.9c-2.4,1.7-4.9,2.5-6.8,2.1c-0.1-1.2-1-2.2-2.1-2c-0.5,0.1-0.8,0.7-0.4,1.1c0.5,0.5,1.1,0.2,1-0.3
			c0.8,1,0.3,2.9-0.7,4c-0.7-1-5.1-1.8-5.5-3.1c0.1,0.2,0.5,0.3,0.8,0c0.3-0.3,0.1-0.8-0.2-1c-0.2-0.2-0.8-0.4-1.2,0.1
			c-0.6,0.6-0.3,1.6,0.1,2.1c1.2,1.3,4.9,1.8,6.1,3.5c0.3-0.5,1.4-1.4,1.9-3c2.2,0.4,4.9-0.4,7.6-2.3c1.1-0.8,2.1-1.7,3-2.6
			c2.2-2.3,3.7-5,4.3-7.5c0.5,0,1.1,0,1.5,0c-0.4,0.6-0.4,1.4,0.1,1.9c0.5,0.6,1.4,0.6,1.9,0c0,0,0,0,0,0
			C109.6,48.8,110.5,48.8,111,48.3z"/>
	</g>
	<g>
		<path d="M51.1,58.4c0.5-0.6,0.5-1.4,0-2c-0.5-0.6-1.4-0.6-1.9,0c-0.5,0.6-0.5,1.4,0,2
			C49.7,58.9,50.6,58.9,51.1,58.4z M49.5,56.7c0.3-0.4,0.9-0.4,1.3,0c0.3,0.4,0.3,1,0,1.3c-0.3,0.4-0.9,0.4-1.3,0
			C49.2,57.7,49.2,57.1,49.5,56.7z"/>
	</g>
	<g>
		<path d="M80.8,56.4c-0.5-0.6-1.4-0.6-1.9,0c-0.5,0.6-0.5,1.5,0,2c0.5,0.6,1.4,0.6,1.9,0
			C81.3,57.9,81.3,57,80.8,56.4z M79.2,58.1c-0.3-0.4-0.3-1,0-1.3c0.3-0.4,0.9-0.4,1.3,0c0.3,0.4,0.3,1,0,1.3
			C80.1,58.4,79.5,58.4,79.2,58.1z"/>
	</g>
	<g>
		<path d="M118.7,16.4c0.5,0.6,1.4,0.6,1.9,0c0.5-0.6,0.5-1.5,0-2c-0.5-0.6-1.4-0.6-1.9,0
			C118.2,14.9,118.2,15.8,118.7,16.4z M120.3,14.7c0.3,0.4,0.3,1,0,1.3c-0.3,0.4-0.9,0.4-1.3,0c-0.3-0.4-0.3-1,0-1.3
			C119.4,14.3,119.9,14.3,120.3,14.7z"/>
	</g>
	<g>
		<path d="M11.2,14.2c-0.5-0.6-1.4-0.6-1.9,0c-0.5,0.6-0.5,1.5,0,2c0.5,0.6,1.4,0.6,1.9,0
			C11.7,15.7,11.7,14.8,11.2,14.2z M9.6,15.9c-0.3-0.4-0.3-1,0-1.3c0.3-0.4,0.9-0.4,1.3,0c0.3,0.4,0.3,1,0,1.3
			C10.5,16.2,10,16.2,9.6,15.9z"/>
	</g>
</g>
</svg>
