<!-- Generator: Adobe Illustrator 19.1.0, SVG Export Plug-In  -->
<svg version="1.1"
	 xmlns="http://www.w3.org/2000/svg" xmlns:xlink="http://www.w3.org/1999/xlink" xmlns:a="http://ns.adobe.com/AdobeSVGViewerExtensions/3.0/"
	 x="0px" y="0px" width="30.8px" height="30.8px" viewBox="0 0 30.8 30.8" enable-background="new 0 0 30.8 30.8"
	 xml:space="preserve">
<defs>
</defs>
<g class="iso">
	<path d="M6.9,20.3c8,0.6,17,0,17,0c-0.7,2,0,2.9,0,2.9c-8-0.6-17,0-17,0C7.6,21.2,6.9,20.3,6.9,20.3z"/>
	<path d="M6.9,14.4c8,0.6,17,0,17,0c-0.7,2,0,2.9,0,2.9c-8-0.6-17,0-17,0C7.6,15.3,6.9,14.4,6.9,14.4z"/>
	<path d="M6.9,8.5c8,0.6,17,0,17,0c-0.7,2,0,2.9,0,2.9c-8-0.6-17,0-17,0C7.6,9.4,6.9,8.5,6.9,8.5z"/>
</g>
<path class="circle" stroke-miterlimit="10" d="M15.4,0.5C7.2,0.5,0.5,7.2,0.5,15.4s6.7,14.9,14.9,14.9
	s14.9-6.7,14.9-14.9S23.6,0.5,15.4,0.5z"/>
</svg>
