<!-- Generator: Adobe Illustrator 19.1.0, SVG Export Plug-In  -->
<svg version="1.1"
	 xmlns="http://www.w3.org/2000/svg" xmlns:xlink="http://www.w3.org/1999/xlink" xmlns:a="http://ns.adobe.com/AdobeSVGViewerExtensions/3.0/"
	 x="0px" y="0px" width="141.6px" height="269.1px" viewBox="0 0 141.6 269.1" enable-background="new 0 0 141.6 269.1"
	 xml:space="preserve">
<defs>
</defs>
<g opacity="0.5">
	<g>
		<path  d="M39.5,134.6c-1.4-0.3-4.1-2.1-5.4-3.4l-1.6,1.2c0.2,0.4,0.8,1.8,0.7,2.2c0.1,0.4-0.4,1.8-0.6,2.2l1.5,1.1
			C35.4,136.7,38.2,135,39.5,134.6z M34.5,134.6c0-0.5-0.1-1.1-0.3-1.6c0.7,0.6,1.6,1.1,2.4,1.6c-0.8,0.5-1.7,1-2.4,1.6
			C34.4,135.6,34.6,135,34.5,134.6z"/>
	</g>
	<g>
		<path  d="M39.8,71.3c-0.3,0.5-0.7,1-1.2,1.4c-3.2,3-9,3.9-12.7,1.8c4.3,2.5,6,9.1,3.4,13.2c0.3-0.5,0.7-1,1.2-1.4
			c3.1-3,8.9-4,12.7-1.8C38.8,82,37.1,75.4,39.8,71.3z M37.9,78.7c0.3,1.4,0.9,2.6,1.7,3.7c-2.8-0.3-5.8,0.4-8.2,1.9
			c0.3-2.6-0.5-5.5-2-7.8c2.8,0.3,5.8-0.4,8.2-1.8C37.4,76,37.5,77.3,37.9,78.7z"/>
	</g>
	<g>
		<path  d="M33.3,80.2l-0.9,0.2c0.2,1,0.1,2.1-0.3,2.8c0.5-0.7,1.4-1.3,2.5-1.6l-0.2-0.8c-0.2,0-0.4,0-0.6-0.2
			C33.5,80.5,33.4,80.4,33.3,80.2z"/>
	</g>
	<g>
		<path  d="M33.3,78.8c0.1-0.2,0.3-0.3,0.5-0.4l-0.2-0.8c-1.1,0.2-2.2,0.1-3-0.3c0.8,0.4,1.4,1.4,1.7,2.4l0.9-0.2
			C33.1,79.2,33.1,79,33.3,78.8z"/>
	</g>
	<g>
		<path  d="M34.5,77.3l0.2,0.8c0.2,0,0.4,0.1,0.6,0.2c0.2,0.1,0.3,0.3,0.4,0.4l0.9-0.2c-0.2-1-0.1-2.1,0.4-2.8
			C36.5,76.5,35.5,77,34.5,77.3z"/>
	</g>
	<g>
		<path  d="M35.8,80.2c-0.1,0.2-0.3,0.3-0.5,0.4l0.2,0.8c1.1-0.2,2.2-0.1,3,0.3c-0.8-0.4-1.4-1.4-1.7-2.4l-0.9,0.2
			C35.9,79.8,35.9,80,35.8,80.2z"/>
	</g>
	<g>
		<path  d="M35.3,79.9c0.3-0.4,0.1-1-0.3-1.2c-0.5-0.3-1-0.1-1.3,0.3c-0.3,0.4-0.1,1,0.3,1.2
			C34.4,80.5,35,80.4,35.3,79.9z"/>
	</g>
	<g>
		<path  d="M42.5,187.6c0.5-0.5,1.1-0.9,1.7-1.3c-4.4,2.4-11.3,0.6-13.8-3.6c2.1,3.5,1,8.9-2.1,11.8
			c-0.5,0.5-1.1,0.9-1.7,1.2c4.3-2.3,11.3-0.6,13.8,3.6C38.3,195.9,39.4,190.6,42.5,187.6z M34.5,194.3c-1.4-0.4-2.9-0.5-4.2-0.4
			c1.6-2.2,2.4-5,2.2-7.7c2.3,1.5,5.3,2.3,8.1,2.1c-1.6,2.2-2.4,5-2.2,7.7C37.3,195.3,35.9,194.7,34.5,194.3z"/>
	</g>
	<g>
		<path  d="M34.2,191.8c-0.1-0.2-0.2-0.4-0.1-0.6l-0.9-0.2c-0.3,1-1,1.9-1.7,2.3c0.8-0.4,1.9-0.5,3-0.2l0.2-0.8
			C34.4,192.1,34.3,192,34.2,191.8z"/>
	</g>
	<g>
		<path  d="M34.7,190c0.2-0.1,0.4-0.1,0.6-0.1l0.2-0.8c-1.1-0.3-2-0.9-2.4-1.7c0.5,0.7,0.5,1.8,0.3,2.8l0.9,0.2
			C34.4,190.2,34.5,190.1,34.7,190z"/>
	</g>
	<g>
		<path  d="M36.7,190.5c0.1,0.2,0.2,0.4,0.2,0.6l0.9,0.2c0.3-1,1-1.9,1.7-2.3c-0.8,0.4-1.9,0.5-3,0.2l-0.2,0.8
			C36.4,190.2,36.6,190.3,36.7,190.5z"/>
	</g>
	<g>
		<path  d="M37.8,195c-0.5-0.7-0.5-1.8-0.3-2.8l-0.9-0.2c-0.1,0.2-0.2,0.3-0.4,0.4c-0.2,0.1-0.4,0.1-0.6,0.1l-0.2,0.8
			C36.4,193.6,37.3,194.2,37.8,195z"/>
	</g>
	<g>
		<path  d="M35.9,191.9c0.5-0.3,0.6-0.8,0.4-1.2c-0.3-0.4-0.8-0.6-1.3-0.3c-0.5,0.2-0.6,0.8-0.4,1.2
			C34.9,192,35.4,192.2,35.9,191.9z"/>
	</g>
	<g>
		<path  d="M78,244.5c0.4-0.6,0.8-1.1,1.3-1.6c3.1-2.9,8.8-4,12.5-2c-4.3-2.4-6.3-8.9-3.8-13.1
			c-0.4,0.6-0.8,1.1-1.3,1.6c-3.1,2.9-8.7,4-12.5,1.9C78.6,233.8,80.5,240.4,78,244.5z M79.6,237c-0.4-1.4-1-2.6-1.8-3.7
			c2.8,0.2,5.8-0.5,8.1-2.1c-0.2,2.7,0.6,5.5,2.2,7.7c-2.8-0.2-5.8,0.5-8.1,2.1C80.2,239.8,80,238.4,79.6,237z"/>
	</g>
	<g>
		<path  d="M83.1,238.3l-0.2-0.8c-0.2,0-0.4,0-0.6-0.1c-0.2-0.1-0.3-0.3-0.4-0.4l-0.9,0.2c0.2,1,0.2,2.1-0.3,2.8
			C81.1,239.2,82.1,238.6,83.1,238.3z"/>
	</g>
	<g>
		<path  d="M84.2,236.8c-0.1,0.2-0.3,0.3-0.4,0.4l0.2,0.8c1.1-0.2,2.2-0.2,3,0.3c-0.8-0.4-1.4-1.3-1.7-2.3l-0.9,0.2
			C84.4,236.5,84.3,236.7,84.2,236.8z"/>
	</g>
	<g>
		<path  d="M84.1,235.4l0.9-0.2c-0.2-1-0.2-2.1,0.3-2.8c-0.4,0.7-1.4,1.3-2.4,1.6l0.2,0.8c0.2,0,0.4,0,0.6,0.1
			C83.9,235,84,235.2,84.1,235.4z"/>
	</g>
	<g>
		<path  d="M81.7,235.4c0.1-0.2,0.3-0.3,0.5-0.4l-0.2-0.8c-1.1,0.2-2.2,0.2-3-0.3c0.8,0.4,1.4,1.3,1.7,2.3l0.9-0.2
			C81.6,235.8,81.6,235.6,81.7,235.4z"/>
	</g>
	<g>
		<path  d="M82.2,235.7c-0.3,0.4-0.1,1,0.4,1.2c0.5,0.2,1,0.1,1.3-0.3c0.3-0.4,0.1-1-0.4-1.2
			C83,235.1,82.4,235.3,82.2,235.7z"/>
	</g>
	<g>
		<path  d="M91.1,28.7c0.5-0.4,1-0.8,1.5-1.1c-4.3,2.5-11.3,0.9-13.9-3.2C81,28,80,33.5,76.9,36.5
			c-0.5,0.4-1,0.8-1.5,1.1c4.3-2.5,11.3-0.9,13.9,3.2C87,37.2,88,31.7,91.1,28.7z M83.2,35.8c-1.4-0.3-2.9-0.4-4.2-0.3
			c1.5-2.3,2.2-5.1,1.9-7.8c2.4,1.4,5.4,2.1,8.2,1.9c-1.6,2.3-2.3,5.1-2,7.7C85.9,36.7,84.6,36.1,83.2,35.8z"/>
	</g>
	<g>
		<path  d="M85.3,31.9c0.1,0.2,0.2,0.4,0.2,0.6l0.9,0.2c0.3-1,0.9-1.9,1.7-2.4c-0.8,0.4-1.9,0.5-3,0.3l-0.2,0.8
			C85,31.6,85.1,31.7,85.3,31.9z"/>
	</g>
	<g>
		<path  d="M83.3,31.4c0.2-0.1,0.4-0.2,0.6-0.2l0.2-0.8c-1.1-0.3-2-0.9-2.5-1.6c0.5,0.7,0.6,1.8,0.3,2.8l0.9,0.2
			C82.9,31.7,83.1,31.6,83.3,31.4z"/>
	</g>
	<g>
		<path  d="M82.8,33.4c-0.1-0.2-0.2-0.4-0.2-0.6l-0.9-0.2c-0.3,1-0.9,1.9-1.7,2.4c0.8-0.5,1.9-0.5,3-0.3l0.2-0.8
			C83.1,33.7,82.9,33.5,82.8,33.4z"/>
	</g>
	<g>
		<path  d="M86.4,36.4c-0.5-0.7-0.6-1.8-0.4-2.8l-0.9-0.2c-0.1,0.2-0.2,0.3-0.4,0.4c-0.2,0.1-0.4,0.2-0.6,0.2
			l-0.2,0.8C85,35.1,86,35.7,86.4,36.4z"/>
	</g>
	<g>
		<path  d="M84.5,33.4c0.5-0.3,0.6-0.8,0.3-1.2c-0.3-0.4-0.9-0.6-1.3-0.3c-0.5,0.3-0.6,0.8-0.3,1.2
			C83.5,33.5,84,33.6,84.5,33.4z"/>
	</g>
	<g>
		<path  d="M130.5,72.3l0.2,0c2.7,0,5.5,1.2,7.7,3.3c1.7,1.6,2.8,3.5,3.2,5.5v-2.4c-0.6-1.3-1.5-2.5-2.7-3.6
			c-1.6-1.5-3.5-2.6-5.5-3.2c3.5-1,6.6-3.6,8.2-6.8v-2.2c-1.2,4.5-6.1,8.6-10.9,8.6h-0.2V72.3z"/>
	</g>
	<g>
		<path  d="M130.5,197.6h0.2c2.7,0,5.4,1.2,7.7,3.3c1.6,1.6,2.8,3.4,3.2,5.3V204c-0.6-1.3-1.5-2.5-2.7-3.6
			c-1.6-1.5-3.5-2.6-5.5-3.2c3.5-1,6.6-3.6,8.2-6.8V188c-1,4.6-6,8.8-10.9,8.8h-0.2L130.5,197.6z"/>
	</g>
	<g>
		<path  d="M141.6,269.1v-1.3c-1.5-0.2-3.1-1.2-3.8-1.8l-0.9-0.9l-0.9,0.9c-1,1-2.6,1.5-4.6,1.5
			c-1.3,0-2.7-0.2-3.9-0.5c6.7-2.4,11.9-8.1,13.9-12.6c0.1,0,0.2,0,0.3,0.1v-10.8c-1.1-2.7-2.7-5-4.7-7.2c2.4-2.5,4-4.8,4.7-6.7
			v-4.6c-0.4-0.8-1.2-1.5-2.2-2c-0.8-0.4-1.7-0.6-2.5-0.6c0.3-0.6,0.6-1.4,1.1-2.3l0.2-0.3c0.7-1.3,0.9-2.7,0.9-4.1
			c1.1,1.9,2,3.8,2.5,5.4v-5.3c-1.5-3.1-3.8-6.8-6.3-9.8c-0.6-0.8-1.2-1.5-1.7-1.9l-0.1,0.1c-5.1-5.1-9.3-10.3-9.3-17.7
			c0-2.8,0.7-4.9,1.8-6.5c-0.2,0.6-0.3,1.2-0.3,1.8c0,1.8,1.2,2.9,2.2,3.7c0,0,0.1,0.1,0.1,0.1c-0.8,0.2-1.3,0.8-1.3,1.6
			c0,0.9,0.8,1.7,1.7,1.7c0.9,0,1.7-0.8,1.7-1.7c0-0.3-0.1-0.5-0.2-0.7c-0.2-0.6-0.7-1.1-1.3-1.6c-0.9-0.8-1.6-1.7-1.6-3.1
			c0-2.5,2.2-3.6,5.4-3.6c4.8,0,7.3,1.1,8.5,3.7c-1.1-1.6-2.6-2.7-4.5-2.7c-1.9,0-3.8,2.2-4,2.3c0-0.1,0.1-0.2,0.1-0.3
			c0-0.8-0.7-1.4-1.5-1.4c-0.8,0-1.4,0.6-1.4,1.4c0,0.5,0.3,0.9,0.6,1.1l0,0c0.1,0,0.1,0,0.2,0.1c0.1,0,0.1,0.1,0.2,0.1
			c0.1,0,0.2,0.1,0.3,0.1c0,0,0.1,0,0.1,0c0,0,0,0,0,0c0.9,0.1,1.8-0.5,2.6-1.1c0.9-0.6,1.8-1.3,2.8-1.2c2.4,0.2,4.6,2.6,5.4,5.6
			v-5.1c-1.3-3.1-3.9-5.2-9.3-5.2c-0.1,0-0.2,0-0.3,0c0.7-0.3,1.4-0.6,2.1-0.9c0.9-0.3,1.8-0.7,2.6-1.1c1,0.6,2.8,2.4,3.1,3.5
			c0.8-0.7,1.4-1.4,1.8-2.4v-2.9c-0.8,1.1-2.2,1.7-1.8,2.7c-0.5-0.4-0.9-1.2-0.7-2.2c1-0.6,1.8-1.2,2.5-2v-6h-0.8
			c0,2.1-1.2,4-3.2,5.5c-1.4-1.2-3.1-3.5-1.6-4.7c-0.3,0.6,0.6,1.6,1.5,1.4c1.1-0.1,1.6-0.6,1.8-1.6c0.2-1.1-0.6-2.1-1.8-2.3
			c-1.1-0.3-3.1,0.2-2.6,1.7c-1.9-3.2-8-0.6-10.6-7c0,0-1,2.9,0.6,5.4c1.9,3.2,8.6,2.2,10.8,8.3c-0.8,0.4-1.6,0.8-2.6,1.2
			c-5.6,2.2-13.6,4.9-13.6,14.1c0,0.5,0,1,0.1,1.5c-2,0.6-6.5,0.4-9.5-2.4c-1.6-1.5-2.5-3-3.5-4.5c-0.8-1.3-1.6-2.6-2.7-3.6
			c-0.7-0.7-3-2.2-4.5-2.5c-0.3-1.4-1.9-3.6-2.6-4.3c-1.1-1-2.4-1.8-3.8-2.5c-1.6-0.9-3.2-1.8-4.8-3.3c-3-2.8-3.1-7-2.5-9
			c0.5,0,1.1,0.1,1.6,0.1c9.7,0,12.6-7.6,14.9-12.9c0.4-0.9,0.8-1.7,1.2-2.4c6.5,2,5.5,8.4,8.8,10.2c2.7,1.5,5.8,0.6,5.8,0.6
			c-6.8-2.5-4-8.3-7.4-10.1c1.6,0.4,2.1-1.4,1.8-2.5c-0.3-1.1-1.3-1.8-2.5-1.7c-1.1,0.2-1.6,0.7-1.7,1.7c-0.1,0.9,0.9,1.7,1.5,1.4
			c-1.3,1.4-3.8-0.2-5-1.5c1.6-2,3.6-3.1,5.8-3.1v-2.6c-2.3,0-4.2-1.1-5.8-3c1.3-1.3,3.7-2.9,5-1.5c-0.7-0.3-1.6,0.6-1.5,1.4
			c0.1,1,0.6,1.5,1.7,1.7c1.1,0.2,2.2-0.6,2.5-1.7c0.3-1-0.2-2.9-1.8-2.5c3.4-1.8,0.6-7.5,7.4-10.1c0,0-3-0.9-5.7,0.6
			c-3.4,1.8-2.3,8.2-8.8,10.2c-0.5-0.7-0.9-1.5-1.3-2.4c-2.3-5.3-5.2-12.8-14.9-12.8c-0.5,0-1.1,0-1.6,0.1c-0.6-1.9-0.4-6.1,2.5-9
			c1.6-1.5,3.2-2.4,4.8-3.3c1.4-0.8,2.7-1.5,3.8-2.5c0.7-0.7,2.4-2.8,2.6-4.3c1.5-0.2,3.8-1.8,4.5-2.5c1.1-1,1.9-2.3,2.7-3.6
			c0.9-1.5,1.9-3.1,3.5-4.5c3-2.8,7.5-3,9.5-2.4c0,0.5-0.1,1-0.1,1.5c0,9.2,8,11.9,13.6,14.1c0.9,0.4,1.8,0.8,2.6,1.2
			c-2.2,6.1-8.9,5.1-10.8,8.3c-1.6,2.6-0.6,5.4-0.6,5.4c2.7-6.4,8.8-3.8,10.6-7c-0.4,1.5,1.5,2,2.6,1.7c1.1-0.3,1.9-1.3,1.8-2.3
			c-0.2-1.1-0.7-1.5-1.8-1.6c-0.9-0.1-1.8,0.8-1.5,1.4c-1.5-1.2,0.2-3.5,1.6-4.7c2.1,1.5,3.2,3.4,3.2,5.5h0.8v-6
			c-0.7-0.8-1.5-1.4-2.5-2c-0.2-0.9,0.2-1.7,0.7-2.1c-0.4,1,1,1.6,1.8,2.7v-2.9c-0.4-1-1-1.7-1.8-2.4c-0.2,1.1-2,2.9-3,3.5
			c-0.9-0.4-1.8-0.7-2.7-1.1c-0.8-0.3-1.5-0.6-2.3-0.9c0.1,0,0.3,0,0.4,0c5.4,0,8-2.1,9.3-5.2v-5.1c-0.8,3-2.9,5.4-5.4,5.6
			c-1.1,0.1-2-0.6-2.8-1.2c-0.8-0.6-1.6-1.2-2.6-1.1c0,0,0,0,0,0c0,0-0.1,0-0.1,0c-0.1,0-0.2,0-0.3,0.1c-0.1,0-0.2,0-0.2,0.1
			c-0.1,0-0.1,0-0.2,0.1l0,0c-0.4,0.2-0.6,0.6-0.6,1.1c0,0.8,0.6,1.4,1.4,1.4c0.8,0,1.4-0.6,1.4-1.4c0-0.1,0-0.2-0.1-0.3
			c0.2,0.2,2.2,2.3,4,2.3c2,0,3.5-1.1,4.5-2.7c-1.2,2.6-3.7,3.7-8.5,3.7c-3.2,0-5.4-1.2-5.4-3.6c0-1.4,0.7-2.2,1.6-3.1
			c0.6-0.5,1.1-1,1.3-1.6c0.1-0.2,0.2-0.5,0.2-0.7c0-0.9-0.8-1.7-1.7-1.7c-0.9,0-1.7,0.8-1.7,1.7c0,0.8,0.6,1.4,1.3,1.6
			c0,0-0.1,0.1-0.1,0.1c-1,0.9-2.2,1.9-2.2,3.7c0,0.6,0.1,1.3,0.4,1.9c-1.1-1.6-1.8-3.7-1.8-6.6c0-7.3,4.2-12.6,9.3-17.7l0.1,0.1
			c0.5-0.4,1.1-1.1,1.7-2c2.5-3,4.8-6.7,6.3-9.7V48c-0.5,1.6-1.4,3.4-2.5,5.4c0-1.4-0.2-2.8-0.9-4.1L138,49
			c-0.5-0.9-0.9-1.7-1.1-2.3c0.8,0,1.7-0.2,2.5-0.6c1-0.5,1.8-1.2,2.2-2v-4.6c-0.7-1.9-2.3-4.2-4.6-6.7c2-2.1,3.5-4.5,4.6-7.1V14.8
			c-0.1,0-0.2,0-0.3,0c-2-4.6-7.2-10.4-14-12.8c1.3-0.3,2.6-0.5,3.9-0.5c2,0,3.6,0.5,4.6,1.5l0.9,0.9l0.9-0.9
			c0.7-0.7,2.3-1.6,3.8-1.8V0c-1.9,0.2-3.8,1.3-4.8,2.2c-1.5-1.4-3.5-1.9-5.6-1.9c-3.5,0-7.3,1.3-9.1,1.9c8.6,0.6,15.8,7.9,18,13.2
			c-0.6,0.5-1,1.3-1,2.2c0,0.7,0.3,1.4,0.7,1.9c-1.2-0.4-2.5,0.1-3.2,1.3c-0.7,1.3-0.3,2.8,0.9,3.4c0.8,0.4,1.7,0.3,2.5-0.1
			c-1,2.7-2.5,5.1-4.5,7.2c-0.2-0.2-0.4-0.4-0.6-0.6c-8.4-8-20.8-6.5-28.1-3.5c-2-1.1-4.3-1.9-6.3-2.6c-2.5-0.8-4.6-1.6-5.8-2.7
			c0.7-0.2,1.2-0.7,1.2-1.3c0-0.8-0.7-1.4-1.6-1.5c-0.9,0-1.7,0.6-1.7,1.3c0,0,0,0.1,0,0.1h0c0,0,0,0,0,0.1c0,0.2,0.1,0.3,0.1,0.5
			c0.8,2.4,3.8,3.4,7.4,4.6c1.8,0.6,3.6,1.2,5.3,2.1c-1.7,0.8-3,1.6-3.8,2.4c-0.4,0.4-0.8,0.8-1.2,1.2c0.3-0.9,0.1-1.9-0.6-2.5
			c-1.1-1-3.7-1.1-5.8,1.7c-1.5,1.9-1.1,4.8-0.3,8.6c1,5,2.3,11.1-1.6,16.3c-0.1,0.1-0.1,0.2-0.2,0.3c-0.1,0.2-0.3,0.3-0.4,0.5
			c-0.1-0.1-0.2-0.3-0.3-0.4c-4.1-3.8-11.9-2.9-19.5-2c-3.5,0.4-7.1,0.8-9.8,0.7c0.5-0.9,0.4-2-0.4-2.7c-0.9-0.9-2.4-0.9-3.4,0
			c-0.9-0.9-2.4-0.9-3.4,0c-0.9,0.9-0.9,2.3,0,3.2c0,0,0,0,0,0c-0.9,0.9-0.9,2.3,0,3.2c0.8,0.7,2,0.9,2.9,0.4
			c0.2,2.6-0.3,5.9-0.7,9.3C55.9,75,55,82.5,59,86.3c0.1,0.1,0.3,0.2,0.4,0.3c-0.1,0.1-0.3,0.2-0.4,0.3c-0.3,0.2-0.6,0.4-0.9,0.6
			c-5.4,3.3-11.7,2.1-16.8,1.2c-4-0.7-7-1.1-9.1,0.3c-2.9,2-2.8,4.5-1.7,5.5c0.7,0.7,1.7,0.9,2.6,0.6c-0.4,0.3-0.7,0.6-1.1,1
			c-0.8,0.7-1.6,1.9-2.4,3.3c-0.9-1.6-1.5-3.3-2.1-4.9c-1.3-3.3-2.4-6.2-4.9-7c-0.2-0.1-0.3-0.1-0.5-0.1c0,0,0,0-0.1,0v0
			c0,0-0.1,0-0.1,0c-0.8,0-1.4,0.8-1.4,1.6c0,0.9,0.7,1.6,1.5,1.5c0.6,0,1.2-0.5,1.3-1.1c1.2,1.1,2,3.2,2.9,5.5
			c0.7,1.9,1.5,4,2.7,5.9c-3.2,6.9-4.9,18.8,3.6,26.9c0.2,0.2,0.3,0.3,0.5,0.5c-2.3,1.9-4.8,3.4-7.8,4.3c0.5-0.7,0.6-1.6,0.1-2.3
			c-0.7-1.2-2.3-1.6-3.6-0.9c-1.2,0.6-1.8,1.9-1.4,3c-0.5-0.4-1.2-0.6-2-0.6c-0.9,0-1.7,0.4-2.3,0.9c-5.6-2.2-13.1-8.9-13.8-17
			c-0.6,1.7-2,5.3-2,8.6c0,2,0.5,3.9,2,5.3c-1.1,1-2.4,3.2-2.4,5.1c0,1.9,1.4,4.1,2.4,5.1c-1.5,1.4-2,3.3-2,5.3c0,3.3,1.4,6.9,2,8.6
			c0.7-8.2,8.4-14.9,14-16.9c0.6,0.4,1.3,0.7,2.1,0.7c0.8,0,1.4-0.3,2-0.6c-0.4,1.1,0.1,2.4,1.3,3c1.3,0.7,2.9,0.3,3.6-0.9
			c0.4-0.8,0.3-1.6-0.2-2.4c2.9,0.9,5.5,2.4,7.8,4.4c-0.2,0.2-0.3,0.3-0.5,0.5c-8.5,8.1-6.8,20-3.6,26.9c-1.2,1.9-2,4-2.7,5.9
			c-0.9,2.3-1.7,4.4-2.9,5.5c-0.2-0.6-0.7-1.1-1.3-1.1c-0.8,0-1.5,0.7-1.5,1.5c0,0.9,0.6,1.6,1.4,1.6c0,0,0.1,0,0.1,0v0
			c0,0,0,0,0.1,0c0.2,0,0.3-0.1,0.5-0.1c2.5-0.8,3.6-3.6,4.9-7c0.6-1.6,1.3-3.4,2.1-4.9c0.8,1.5,1.6,2.6,2.4,3.3
			c0.4,0.3,0.7,0.7,1.1,1c-0.9-0.2-1.9,0-2.6,0.6c-1.1,1-1.2,3.5,1.7,5.5c2,1.4,5,1,9.1,0.3c5.1-0.9,11.4-2.1,16.8,1.2
			c0.3,0.2,0.6,0.4,0.9,0.6c0.1,0.1,0.3,0.2,0.4,0.3c-0.1,0.1-0.3,0.2-0.4,0.3c-4.1,3.8-3.1,11.3-2.1,18.5c0.4,3.3,0.9,6.7,0.7,9.3
			c-0.9-0.5-2.1-0.4-2.9,0.4c-0.9,0.9-0.9,2.3,0,3.2c0,0,0,0,0,0c-0.9,0.9-0.9,2.3,0,3.2c0.9,0.9,2.4,0.9,3.4,0
			c0.9,0.9,2.4,0.9,3.4,0c0.8-0.7,0.9-1.9,0.4-2.7c2.7-0.2,6.3,0.2,9.8,0.7c7.6,0.9,15.5,1.8,19.5-2c0.1-0.1,0.2-0.3,0.3-0.4
			c0.1,0.2,0.3,0.3,0.4,0.5c0.1,0.1,0.1,0.2,0.2,0.3c3.8,5.2,2.6,11.3,1.6,16.3c-0.8,3.8-1.2,6.6,0.3,8.6c2.1,2.8,4.7,2.7,5.8,1.7
			c0.7-0.7,0.9-1.6,0.6-2.5c0.4,0.4,0.7,0.8,1.2,1.2c0.8,0.8,2.1,1.6,3.8,2.4c-1.7,0.8-3.5,1.5-5.3,2.1c-3.5,1.2-6.6,2.3-7.4,4.6
			c-0.1,0.1-0.1,0.3-0.1,0.5c0,0,0,0,0,0.1l0,0c0,0,0,0.1,0,0.1c0,0.8,0.8,1.4,1.7,1.3c0.9,0,1.7-0.7,1.6-1.5c0-0.6-0.5-1.1-1.2-1.3
			c1.2-1.1,3.4-1.9,5.8-2.7c2.1-0.7,4.3-1.5,6.3-2.6c7.4,2.9,19.7,4.4,28.1-3.5c0.2-0.2,0.3-0.3,0.5-0.5c2,2.2,3.6,4.6,4.5,7.3
			c-0.7-0.4-1.7-0.5-2.5-0.1c-1.2,0.6-1.6,2.1-0.9,3.4c0.6,1.1,2,1.7,3.2,1.3c-0.4,0.5-0.7,1.2-0.7,1.9c0,0.9,0.4,1.6,1,2.2
			c-2.3,5.3-9.4,12.5-18,13.1c1.8,0.6,5.5,1.9,9.1,1.9c2.1,0,4.1-0.5,5.6-1.9C137.8,267.8,139.7,268.9,141.6,269.1z M83.2,155.5
			L83.2,155.5c1.3,1.3,0.2,6.6,4.1,10.3c1.7,1.6,3.5,2.6,5.1,3.5c1.3,0.7,2.6,1.4,3.5,2.4c1.1,1.1,2.2,3.5,2.4,4.5
			c1.1,0.2,3.6,1.2,4.7,2.2c1,0.9,1.7,2.1,2.5,3.3c0.9,1.5,2,3.2,3.7,4.8c3.8,3.6,9.6,2.8,10.9,3.9c0.6,2.3,1.7,4.3,3,6.2
			c-3.2-1.8-6.5-3.1-9.7-4.4c-5.8-2.3-11.2-4.6-16.2-9c0.5,0,1.1-0.2,1.7-0.5c1-0.5,1.7-1.4,1.9-2.6c0.2-1.1-0.1-2.1-0.8-2.8
			c-0.7-0.6-1.4-0.9-2.2-0.9c0-0.7-0.3-1.4-1-2.1c-0.7-0.6-1.8-0.9-2.9-0.8c-1.2,0.2-2.2,0.8-2.7,1.8c-0.3,0.6-0.4,1.2-0.5,1.7
			c-4.7-4.7-7-9.9-9.5-15.4c-1.4-3.1-2.8-6.2-4.7-9.3C78.6,153.9,80.8,155,83.2,155.5z M86.4,192.1c0.6-2,1.7-4.1,3.6-6.2
			c1.6-1.2,2.8-1.8,3.7-2.1C93.1,187.4,88.9,190.7,86.4,192.1z M93.7,185.6c0,1.5-0.3,3.2-1.4,4.3l-0.4,0.3l0.4,0.3
			c0.4,0.4,1.1,1.4,1.1,2.2c0,0.8-0.6,1.8-1.1,2.2l-0.4,0.3l0.4,0.3c1.1,1,1.4,2.8,1.4,4.2c-1.5-3.3-5.3-6-7.4-7.1c0,0,0,0,0,0
			C88.5,191.7,92.2,188.8,93.7,185.6z M80.8,199.1c0,3,0.7,5.9,2.1,8.3c-5.2-2.6-12.3-2.6-17.4,0c1.3-2.4,2-5.2,2-8.3
			c0-3-0.7-5.9-2-8.2c2.5,1.3,5.5,2,8.7,2c3.2,0,6.2-0.7,8.7-1.9C81.5,193.2,80.8,196.1,80.8,199.1z M78.4,181.8
			c0.4-0.4,1.5-1,2.3-1c0.9,0,1.9,0.6,2.3,1l0.4,0.3l0.4-0.3c1.1-1,2.9-1.3,4.5-1.3c-3.4,1.4-6.4,5-7.5,7.1c0,0,0,0,0,0
			c-1.1-2-4-5.6-7.5-7.1c1.5,0,3.4,0.3,4.5,1.3l0.4,0.3L78.4,181.8z M88.1,183.9c-2.3,1.8-4.5,2.9-6.7,3.5c1.4-2.3,5.1-6.5,9-7
			C90,181.3,89.3,182.4,88.1,183.9z M93.9,180.3c-0.1,0.5-0.1,1-0.1,1.4c-0.7,0.2-1.6,0.5-2.6,1.1c0.6-1,1-1.8,1.2-2.4
			C93,180.4,93.5,180.4,93.9,180.3z M83.1,176.7c-0.4,0.4-1.5,1-2.3,1c-0.9,0-1.9-0.6-2.3-1l-0.4-0.3l-0.4,0.3
			c-1.1,1-2.9,1.3-4.5,1.3c3.5-1.5,6.4-5.1,7.5-7.1c1.1,2.1,4.1,5.6,7.6,7.1c-1.6,0-3.4-0.3-4.5-1.3l-0.4-0.3L83.1,176.7z
			 M92.8,177.9c0-0.6,0-1,0.3-1.5c0.3-0.6,0.9-0.8,1.3-0.8c0.5-0.1,1,0.1,1.2,0.2c0.4,0.4,0.8,0.9-0.2,1.8c-0.6,0.5-1.6,0.9-2.6,0.8
			C92.8,178.3,92.8,178.1,92.8,177.9z M98.7,178.8c0.2,0.2,0.3,0.6,0.2,1.1c-0.1,0.3-0.2,0.9-0.9,1.2c-0.6,0.3-1.1,0.3-1.7,0.3
			c-0.1,0-0.3,0-0.4,0c-0.1-0.9,0.3-1.9,0.9-2.5C97.7,178.1,98.3,178.5,98.7,178.8z M99.8,126.9c0.4,0.8,0.7,1.7,1.2,2.5
			c-0.7,1-2.6,2.7-3.7,2.9c1.4,1.5,2.9,2.3,6.2,2c-1.6-0.5-2.3-2.4-3.6-2c0.5-0.5,1.3-0.9,2.3-0.7c0.8,1.2,1.6,2.2,2.7,2.9
			c-1.1,0.8-2,1.8-2.8,3c-1,0.2-1.8-0.2-2.2-0.7c1.2,0.4,2-1.5,3.6-2c-3.3-0.3-4.8,0.5-6.2,2c1.1,0.2,3,1.9,3.7,2.9
			c-0.4,0.8-0.8,1.6-1.1,2.4c-0.3,0.7-0.6,1.3-0.9,2c0-0.1,0-0.1,0-0.2c0-6.1-3.2-8.5-7.6-9.4c4.4-0.9,7.6-3.3,7.6-9.4
			c0-0.1,0-0.2,0-0.2C99.1,125.5,99.5,126.2,99.8,126.9z M84.9,134.6c-2,0.5-3.9,1.6-5.5,3.2c-1.6,1.5-2.8,3.4-3.4,5.2
			c-1.2-3.8-4.8-7.3-8.8-8.4c2-0.5,3.9-1.6,5.5-3.1c1.6-1.5,2.8-3.4,3.3-5.2C77.2,130,80.9,133.5,84.9,134.6z M94.1,119.1
			c-0.6-0.2-1.1-0.3-1.7-0.3c-1.9,0-3,1.1-4,2.1c0,0-0.1,0.1-0.1,0.1c-0.2-0.7-0.9-1.3-1.7-1.3c-1,0-1.8,0.7-1.8,1.6
			c0,0.9,0.8,1.6,1.8,1.6c0.3,0,0.5-0.1,0.8-0.2c0.6-0.2,1.2-0.7,1.7-1.3c0.9-0.9,1.8-1.5,3.2-1.5c2.6,0,3.8,2.1,3.8,5.1
			c0,4.6-1.2,6.9-3.9,8c1.7-1,2.8-2.4,2.8-4.3c0-1.8-2.3-3.6-2.5-3.8c0.1,0,0.2,0.1,0.3,0.1c0.8,0,1.4-0.6,1.4-1.4s-0.6-1.4-1.4-1.4
			c-0.5,0-0.9,0.3-1.2,0.6l0,0c0,0.1,0,0.1-0.1,0.2c0,0.1-0.1,0.1-0.1,0.2c0,0.1-0.1,0.2-0.1,0.3c0,0,0,0.1,0,0.1c0,0,0,0,0,0
			c-0.1,0.9,0.6,1.7,1.2,2.4c0.7,0.8,1.3,1.7,1.2,2.7c-0.2,2.4-3,4.5-6.3,5.2c-0.3,0-0.6,0-0.9,0c-0.2,0-0.4,0-0.6,0
			c-5-0.8-9.7-5.6-9.7-10.4v-0.2h-0.8v0.2c0,2.5-1.3,5.2-3.5,7.3c-2.2,2.1-5,3.3-7.7,3.3l-0.2,0v0.7h0.2c5.5,0,11.1,5.3,11.1,10.5
			v0.2l0.8,0v-0.2c0-2.5,1.3-5.1,3.5-7.2c1.9-1.8,4.2-2.9,6.4-3.2c0.1,0,0.2,0,0.3,0c0.3,0,0.6,0,0.9,0c3.3,0.7,6.1,2.8,6.3,5.2
			c0.1,1-0.6,1.9-1.2,2.7c-0.6,0.8-1.2,1.5-1.2,2.4l0,0c0,0,0,0.1,0,0.1c0,0.1,0,0.2,0.1,0.3c0,0.1,0.1,0.1,0.1,0.2
			c0,0.1,0,0.1,0.1,0.2l0,0c0.3,0.4,0.7,0.6,1.2,0.6c0.8,0,1.4-0.6,1.4-1.4c0-0.8-0.6-1.4-1.4-1.4c-0.1,0-0.2,0-0.3,0.1
			c0.2-0.2,2.5-2,2.5-3.8c0-1.8-1.1-3.3-2.8-4.3c2.7,1.1,3.9,3.5,3.9,8c0,3.1-1.2,5.1-3.8,5.1c-1.5,0-2.4-0.7-3.2-1.5
			c-0.6-0.6-1.1-1.1-1.7-1.3c-0.2-0.1-0.5-0.2-0.8-0.2c-1,0-1.8,0.7-1.8,1.6c0,0.9,0.8,1.6,1.8,1.6c0.8,0,1.5-0.5,1.7-1.3
			c0,0,0.1,0.1,0.1,0.1c0.9,0.9,2.1,2.1,4,2.1c0.5,0,1.1-0.1,1.6-0.2c-1.7,0.9-3.8,1.5-6.6,1.5c-7.7,0-13.3-4-18.6-8.8l0,0
			c-0.3-0.3-0.7-0.6-1.2-1c-3.6-2.9-8.7-5.7-12.3-7.2c3.4-1.4,7.9-3.8,11.4-6.5c0.9-0.6,1.7-1.2,2.1-1.6l-0.1-0.1
			c5.4-4.8,10.9-8.8,18.7-8.8C90.2,117.5,92.4,118.1,94.1,119.1z M120.1,78.7c-1.3,1.1-7,0.3-10.9,3.9c-1.7,1.6-2.7,3.3-3.7,4.8
			c-0.8,1.2-1.5,2.4-2.5,3.3c-1.1,1.1-3.6,2-4.7,2.2c-0.2,1-1.3,3.4-2.4,4.5c-1,0.9-2.2,1.6-3.5,2.4c-1.6,0.9-3.4,1.9-5.1,3.5
			c-3.9,3.7-2.8,9-4.1,10.3h0c-2.4,0.6-4.6,1.6-6.6,2.9c1.9-3,3.3-6.1,4.7-9.2c2.5-5.5,4.8-10.7,9.5-15.4c0,0.5,0.1,1,0.5,1.7
			c0.5,1,1.5,1.7,2.7,1.8c1.1,0.2,2.2-0.1,2.9-0.8c0.7-0.6,1-1.3,1-2.1c0.8,0,1.5-0.3,2.2-0.9c0.7-0.6,1-1.7,0.8-2.8
			c-0.2-1.1-0.9-2.1-1.9-2.6c-0.6-0.3-1.2-0.4-1.7-0.5c5-4.4,10.4-6.6,16.2-9c3.2-1.3,6.5-2.7,9.7-4.4
			C121.7,74.4,120.7,76.4,120.1,78.7z M77.9,92.4c0.4-0.4,1.5-1,2.3-1c0.9,0,1.9,0.6,2.3,1l0.4,0.3l0.4-0.3c1.1-1,2.9-1.3,4.5-1.3
			c-3.4,1.4-6.4,5-7.6,7.1c-1.1-2-4-5.6-7.5-7.1c1.5,0,3.4,0.3,4.5,1.3l0.4,0.3L77.9,92.4z M92.8,90.7c1-0.1,2,0.3,2.6,0.8
			c0.9,0.9,0.6,1.5,0.2,1.8c-0.2,0.2-0.7,0.3-1.2,0.2c-0.3,0-0.9-0.2-1.3-0.8c-0.3-0.5-0.3-0.9-0.3-1.5C92.8,91,92.8,90.8,92.8,90.7
			z M92.5,88.8c-0.2-0.7-0.6-1.5-1.2-2.4c1,0.6,1.9,0.9,2.6,1.1c-0.1,0.5,0,0.9,0.1,1.4C93.4,88.8,93,88.7,92.5,88.8z M95.8,87.7
			c0.1,0,0.3,0,0.4,0c0.7,0,1.1,0,1.7,0.3c0.6,0.3,0.8,0.9,0.9,1.2c0.1,0.5-0.1,1-0.2,1.1c-0.4,0.4-1,0.7-1.9-0.2
			C96.1,89.6,95.7,88.6,95.8,87.7z M133.2,32.6c0.2,0.2,0.4,0.4,0.6,0.6c-4.9,4.5-11.7,8-18,11.1c-5.6,2.8-10.8,5.4-13.9,8.5
			c1.4-3.1,3.6-5.7,5.7-8.1c2.9-3.3,5.4-6.2,5-9.5c-0.3-2.7-1.6-4.7-3.3-6.2C116.1,26.8,126.3,26,133.2,32.6z M95,39
			c-0.6-3.1-1.2-5.9-0.2-7.2c0.1,0.5,0.3,0.9,0.7,1.3c0.9,0.9,2.4,0.9,3.5,0.3c-2.4,3.5-2.6,6.8-2.7,10c-0.1,1.2-0.1,2.4-0.3,3.6
			C96.1,44.1,95.5,41.4,95,39z M99,43.4c0.2-4,0.3-7.4,4.5-11.3c0.9-0.8,2.5-1.8,4.5-2.6c1.7,1.4,3,3.2,3.3,5.8
			c0.3,2.8-2,5.5-4.7,8.6c-2.9,3.3-6.3,7.2-7.1,12.3c-0.4,0.9-0.6,1.9-0.6,2.9c0,5.2,2.9,8.4,5.3,10.1c2.8,2,6.6,3.2,10.1,3.2
			c4.7,0,7.7-2.6,7.7-5.1c0-1.5-1.5-2.6-3.2-2.6c-1.8,0-3.2,1.2-3.2,2.7c0,1.2,1,2.2,2.3,2.6c-1.1,0.4-2.4,0.6-3.6,0.6
			c-3.1,0-6.5-1.1-8.9-2.8c-2-1.5-4.5-4.2-4.5-8.6c0-5.2,7.3-8.9,15.8-13.2c6.2-3.1,13.1-6.6,18.4-11.4c2.3,2.4,3.4,4.2,3.9,5.4
			c-0.8,0-1.7,0.2-2.6,0.6c-0.8,0.4-1.4,0.9-1.8,1.4c0,0-0.1,0.1-0.1,0.1c-0.1,0.1-0.2,0.2-0.3,0.3c-1.5,1.8,0,5,1.5,7.7l0.1,0.3
			c1.8,3.4-0.6,8.4-2.7,11.2c-0.4,0.5-0.9,1-1.3,1.4c-1.4,1.4-2.9,2.8-4.4,4.3c-4.7,3.7-9.8,5.8-14.8,7.8c-5.4,2.2-11,4.5-16,8.7
			c1.8-4.1,7.5-7.6,8.5-7.6c-1.1,0-8.6-4.6-9-9.5c-0.5,1.3-0.8,5.1,1.2,6.9c-0.5,0.5-1.2,1.6-1.2,2.5c0,1,0.7,2.1,1.2,2.6
			c-1.5,1.4-1.7,4-1.5,5.7c-0.3,0.2-0.6,0.5-0.8,0.7c-0.1,0.1-0.3,0.3-0.4,0.4c-0.2-0.1-0.5-0.1-0.8-0.2c0.4-1.5,0.6-4.9-1.3-6.6
			c0.5-0.5,1.2-1.6,1.2-2.6c0-1-0.7-2.1-1.2-2.5c2-1.9,1.7-5.6,1.2-6.9c-0.3,3.9-5.2,7.6-7.7,9c-1-5.6,1.8-10.7,4.8-14.6
			c0.6,1.5,1,2.5,1.6,3.1c0.9,0.9,1.8,1.1,2.6,1c0.1,0,0.1,0,0.2,0c0,0,0,0,0,0c0.4-0.1,0.8-0.3,1.1-0.6c0,0,0.1,0,0.1-0.1l0,0
			c0.1-0.1,0.2-0.3,0.3-0.4c0.6-1,0.3-2.3-0.7-2.8c-0.7-0.4-1.6-0.2-2.2,0.3c-0.2-0.5-0.5-1.2-0.7-1.7c-0.1-0.4-0.3-0.8-0.4-1.1
			c0.4-0.5,0.8-0.9,1.2-1.4C98.6,52,98.8,47.4,99,43.4z M96.3,83.4c0-1.5,0.3-3.2,1.4-4.2l0.4-0.3l-0.4-0.3
			c-0.4-0.4-1.1-1.4-1.1-2.2c0-0.8,0.6-1.8,1.1-2.2l0.4-0.3l-0.4-0.3c-1.1-1-1.4-2.8-1.4-4.3c1.5,3.3,5.3,6.1,7.5,7.2
			C101.6,77.3,97.8,80.1,96.3,83.4z M82.6,87.2c-0.4,0.4-1.5,1-2.3,1c-0.9,0-1.9-0.6-2.3-1l-0.4-0.3l-0.4,0.3
			c-1.1,1-2.9,1.3-4.5,1.3c3.5-1.4,6.3-5,7.5-7.1c0,0,0,0,0,0c1.1,2.1,4.1,5.6,7.5,7c-1.6,0-3.4-0.3-4.5-1.3L83,86.9L82.6,87.2z
			 M86.4,76.9c2.5,1.4,6.8,4.8,7.3,8.4c-0.9-0.4-2.1-1-3.7-2.1C88.1,81.1,87,79,86.4,76.9z M82.8,78.3c-5.2-2.6-12.3-2.6-17.4,0
			c1.3-2.4,2-5.2,2-8.3c0-3-0.7-5.9-2-8.2c2.5,1.3,5.5,1.9,8.7,2c3.2,0,6.2-0.7,8.7-1.9c-1.3,2.4-2,5.2-2,8.2
			C80.8,73,81.5,75.9,82.8,78.3z M86.2,76.3c0,0,0-0.1,0-0.1c2.2-1.1,5.9-3.9,7.4-7.1c0,1.5-0.3,3.2-1.4,4.3l-0.3,0.3l0.3,0.3
			c0.5,0.4,1.1,1.4,1.1,2.2c0,0.8-0.6,1.8-1.1,2.2l-0.4,0.3l0.4,0.3c1.1,1,1.4,2.8,1.4,4.2C92.1,80.1,88.4,77.4,86.2,76.3z
			 M60.9,84.6c-3.1-3-2.2-10.1-1.4-16.4c0.6-4.2,1.1-8.3,0.5-11.3c3.2,0.6,7.5,0.1,12-0.5c6.7-0.8,14.2-1.7,17.3,1.3
			c0.1,0.1,0.3,0.4,0.4,0.7c-3.7,4.5-8,11.2-6.2,18.6c-1-2-1.5-4.4-1.5-6.9c0-4.2,1.5-8.1,4.2-10.6l-0.9-0.9c-2.7,2.5-6.8,4-11.2,4
			c-4.5,0-8.5-1.5-11.2-4l-0.9,0.9c2.6,2.5,4.2,6.4,4.2,10.6c0,4.3-1.5,8.1-4.2,10.6l0.5,0.5l-0.7,0h0.7l0.4,0.4
			c4.5-4.3,12.9-5.1,18.9-2.3c-8-2-15.2,2.2-20.1,5.8C61.3,84.8,61,84.7,60.9,84.6z M34.8,90.5c-0.4-0.4-0.9-0.6-1.4-0.7
			c1.5-0.9,4.3-0.4,7.6,0.2c2.3,0.4,4.8,0.9,7.4,1c-0.9,0.1-1.8,0.1-2.7,0.1c-3.4,0.1-6.9,0.3-10.7,2.6
			C35.8,92.7,35.7,91.4,34.8,90.5z M34.5,126c-7-6.6-6.1-16.5-3.7-22.8c1.6,1.6,3.7,2.9,6.6,3.2c3.5,0.4,6.5-2,10-4.7
			c2.5-1.9,5.1-4,8.3-5.3c-3.3,2.9-6,7.8-9.1,13.2c-3.3,5.9-6.9,12.2-11.7,16.9C34.8,126.4,34.7,126.2,34.5,126z M36.4,127.8
			c5-4.9,8.7-11.5,12-17.3c4.5-8.1,8.4-15,13.9-15c4.7,0,7.5,2.3,9.1,4.3c1.9,2.3,3,5.5,3,8.4c0,1.2-0.2,2.4-0.6,3.4
			c-0.3-1.3-1.4-2.2-2.7-2.2c-1.6,0-2.8,1.4-2.8,3.1c0,1.7,1.3,3,2.8,3c2.6,0,5.4-2.9,5.4-7.3c0-3.4-1.3-6.9-3.4-9.6
			c-1.8-2.3-5.2-5-10.7-5c-0.8,0-1.6,0.1-2.4,0.3c-5.6,0.7-9.8,4-13.3,6.8c-3.3,2.6-6.1,4.8-9,4.4c-2.8-0.3-4.8-1.6-6.2-3.2
			c0.8-1.8,1.8-3.2,2.6-4c4.1-3.9,7.8-4.1,11.9-4.2c4.3-0.2,9.1-0.4,14.8-4.8c0.4-0.3,0.9-0.7,1.4-1.1c0.4,0.1,0.8,0.3,1.2,0.4
			c0.5,0.2,1.2,0.4,1.7,0.6c-0.6,0.6-0.7,1.5-0.3,2.2c0.5,0.9,1.8,1.2,2.9,0.7c0.2-0.1,0.4-0.2,0.5-0.4l0,0c0.9-0.9,1.3-2.3-0.3-3.8
			c-0.6-0.6-1.7-1-3.3-1.5c4.1-2.8,9.4-5.5,15.2-4.6c-1.4,2.3-5.3,7-9.5,7.3c1.4,0.4,5.4,0.7,7.3-1.1c0.5,0.5,1.7,1.2,2.7,1.2
			c1,0,2.2-0.7,2.7-1.2c2,1.9,5.9,1.6,7.3,1.1c-4-0.3-7.8-4.6-9.3-7c2.3,0.5,4.7,1.7,7.2,3.6c1.6,1.9,2.2,3.2,2.5,4.2
			c-0.2,0.1-0.3,0.2-0.5,0.4c-0.3,0.3-0.5,0.5-0.8,0.8c-1.8-0.3-4.7-0.2-6.3,1.3c-0.5-0.5-1.7-1.2-2.7-1.2c-1,0-2.2,0.7-2.7,1.2
			c-2-1.9-5.9-1.6-7.3-1.1c5.2,0.4,10,7.5,10,8.5c0-0.9,3.9-6.8,8.5-8.2c-4.5,4.8-7,10.1-9.3,15.3c-2.1,4.7-4.3,9.6-8.2,14
			c-1.6,1.4-3.1,2.8-4.6,4.1c-0.5,0.4-1,0.8-1.5,1.3c-3,2-8.2,4.3-11.9,2.5l-0.3-0.1c-2.9-1.4-6.2-2.8-8.2-1.4
			c-0.1,0.1-0.2,0.2-0.3,0.2c0,0-0.1,0.1-0.1,0.1c-0.6,0.4-1.1,1-1.5,1.7c-0.4,0.8-0.6,1.7-0.6,2.5C41,131.1,39.1,130,36.4,127.8z
			 M2.3,148.7c-0.3-1.2-0.5-2.5-0.5-3.7c0-1.9,0.5-3.4,1.6-4.4l0.9-0.9l-0.9-0.9c-0.8-0.8-2.1-2.7-2.1-4.2c0-1.6,1.2-3.4,2.1-4.2
			l0.9-0.9l-0.9-0.9c-1-1-1.6-2.5-1.6-4.4c0-1.2,0.2-2.5,0.5-3.7c2.5,6.3,8.5,11.2,13.3,13.2c-0.1,0.3-0.2,0.6-0.2,0.9
			c0,0.4,0.1,0.8,0.2,1.1C10.9,137.6,4.8,142.4,2.3,148.7z M25.4,134.6c3.5-1,6.5-2.8,9.2-5c4.1,3.5,7.5,5.1,10.1,4.9c0,0,0,0,0.1,0
			c1.4,0.1,3.1-0.8,4-2.5c0.4-0.8,0.6-1.6,0.6-2.4c0.7,0.3,1.5,0.6,2.5,1.1l0.3,0.1c1.4,0.6,2.8,0.9,4.3,0.9
			c-3.3,1.7-6.5,2.9-8.5,2.9c2.1,0,5.3,1.2,8.7,3c-1.5,0-3,0.2-4.5,0.9l-0.3,0.1c-1,0.5-1.8,0.8-2.5,1.1c0-0.8-0.2-1.6-0.6-2.4
			c-0.9-1.7-2.5-2.6-4-2.5c0,0,0,0-0.1,0c-2.6-0.3-6.1,1.4-10.1,4.9C31.9,137.3,28.9,135.6,25.4,134.6z M34.5,143.1
			c0.2-0.2,0.4-0.3,0.6-0.5c4.7,4.7,8.3,11,11.6,16.9c3,5.4,5.8,10.4,9.1,13.3c-3.2-1.3-5.8-3.4-8.3-5.3c-3.5-2.7-6.5-5.1-10-4.7
			c-2.9,0.3-5,1.5-6.6,3.2C28.4,159.6,27.5,149.7,34.5,143.1z M33.4,179.3c0.5-0.1,1-0.3,1.4-0.7c0.9-0.9,1-2.2,0.3-3.3
			c3.7,2.3,7.2,2.5,10.7,2.6c0.9,0,1.8,0.1,2.7,0.1c-2.6,0.1-5.1,0.6-7.4,1C37.8,179.7,34.9,180.2,33.4,179.3z M67.9,181.5
			c1.6-1.5,1.2-3,0.3-3.8l0,0c-0.2-0.1-0.3-0.3-0.5-0.4c-1.1-0.5-2.4-0.2-2.9,0.7c-0.4,0.7-0.2,1.6,0.3,2.2
			c-0.6,0.2-1.2,0.4-1.7,0.6c-0.4,0.1-0.8,0.3-1.2,0.4c-0.5-0.4-0.9-0.7-1.4-1.1c-5.7-4.4-10.5-4.6-14.8-4.8
			c-4.2-0.2-7.8-0.3-11.9-4.2c-0.8-0.8-1.8-2.2-2.6-4c1.5-1.7,3.4-2.9,6.2-3.2c3-0.3,5.8,1.9,9,4.4c3.6,2.8,7.8,6.1,13.5,6.8
			c0.7,0.2,1.4,0.3,2.2,0.3c5.5,0,8.8-2.7,10.7-5c2.1-2.6,3.4-6.2,3.4-9.6c0-4.4-2.8-7.3-5.4-7.3c-1.5,0-2.8,1.4-2.8,3
			c0,1.7,1.3,3.1,2.8,3.1c1.3,0,2.4-0.9,2.7-2.2c0.4,1,0.6,2.2,0.6,3.4c0,3-1.1,6.1-3,8.4c-1.6,1.9-4.4,4.2-9.1,4.2
			c-5.5,0-9.4-6.9-13.9-15c-3.3-5.8-7-12.3-12-17.3c2.6-2.2,4.5-3.3,5.8-3.7c0,0.8,0.2,1.6,0.6,2.5c0.4,0.7,0.9,1.3,1.5,1.7
			c0,0,0.1,0.1,0.1,0.1c0.1,0.1,0.2,0.2,0.3,0.2c1.9,1.4,5.2,0,8.2-1.4l0.3-0.1c4-1.9,9.8,1,12.6,3.1c0.3,0.2,0.5,0.4,0.8,0.7
			c1.4,1.2,2.8,2.6,4.3,3.9c4,4.6,6.3,9.5,8.5,14.3c2.3,5,4.6,10.2,8.9,14.9c-4.2-1.8-7.7-7-7.7-7.9c0,1-4.8,8.1-10,8.5
			c1.4,0.4,5.4,0.7,7.3-1.1c0.5,0.5,1.7,1.2,2.7,1.2c1,0,2.2-0.7,2.7-1.2c1.5,1.4,4.1,1.6,5.9,1.4c0.3,0.3,0.5,0.6,0.8,0.9
			c0.2,0.1,0.3,0.3,0.5,0.4c-0.1,0.2-0.1,0.4-0.2,0.6c-1.6-0.4-5.2-0.5-7,1.2c-0.5-0.5-1.7-1.2-2.7-1.2c-1,0-2.2,0.7-2.7,1.2
			c-2-1.9-5.9-1.6-7.3-1.1c4.2,0.3,8.1,5,9.5,7.3c-6,1.1-11.4-1.7-15.6-4.6C66.2,182.5,67.2,182.1,67.9,181.5z M72,212.8
			c-4.5-0.5-8.8-1-12-0.5c0.6-3,0.1-7.1-0.5-11.3c-0.8-6.3-1.8-13.4,1.4-16.4c0.1-0.1,0.4-0.3,0.7-0.4c4.9,3.6,12.1,7.7,20.1,5.8
			c-2.2,1-4.9,1.6-7.7,1.6c-4.5,0-8.5-1.5-11.2-4l-0.9,0.9c2.6,2.5,4.2,6.4,4.2,10.6c0,4.3-1.5,8.1-4.2,10.6l0.5,0.5l-0.7,0l0.7,0
			l0.4,0.4c5.6-5.3,16.9-5.3,22.4,0l0.9-0.9c-2.6-2.5-4.2-6.4-4.2-10.6c0-2.5,0.5-4.9,1.5-6.9c-1.8,7.4,2.5,14.1,6.2,18.6
			c-0.2,0.3-0.3,0.6-0.4,0.7C86.2,214.5,78.6,213.6,72,212.8z M95,230.2c0.5-2.4,1-5.2,1.1-7.9c0.2,1.2,0.2,2.4,0.3,3.6
			c0.1,3.2,0.3,6.5,2.7,10c-1.1-0.7-2.6-0.6-3.5,0.3c-0.4,0.4-0.6,0.8-0.7,1.3C93.8,236,94.4,233.3,95,230.2z M103.5,237.1
			c-4.1-3.9-4.3-7.3-4.5-11.3c-0.2-4-0.4-8.6-5-14c-0.4-0.4-0.8-0.9-1.2-1.4c0.1-0.4,0.3-0.7,0.4-1.1c0.2-0.5,0.4-1.2,0.7-1.7
			c0.6,0.5,1.5,0.6,2.2,0.2c1-0.5,1.3-1.7,0.7-2.8c-0.1-0.2-0.2-0.3-0.3-0.4l0,0c0,0-0.1,0-0.1-0.1c-0.3-0.3-0.7-0.5-1.1-0.6
			c0,0,0,0,0,0c-0.1,0-0.1,0-0.2,0c-0.8-0.1-1.7,0.1-2.6,1c-0.6,0.6-1,1.6-1.6,3.1c-3-4-5.9-9.1-4.8-14.8c2.5,1.3,7.4,5,7.7,9
			c0.5-1.3,0.8-5.1-1.2-6.9c0.5-0.5,1.2-1.6,1.2-2.6c0-1-0.7-2.1-1.2-2.6c1.8-1.7,1.7-4.9,1.3-6.5c0.2-0.1,0.5-0.1,0.7-0.2
			c0.1,0.2,0.2,0.3,0.4,0.4c0.3,0.3,0.6,0.5,0.9,0.8c-0.2,1.7,0,4.1,1.5,5.5c-0.5,0.5-1.2,1.6-1.2,2.6c0,1,0.7,2.1,1.2,2.6
			c-2,1.9-1.7,5.6-1.2,6.9c0.4-4.9,7.9-9.5,9-9.5c-0.9,0-6.4-3.3-8.3-7.2c5,4.1,10.4,6.3,15.7,8.5c5,2,10.1,4.1,14.8,7.8
			c1.5,1.5,3,2.9,4.3,4.3c0.4,0.4,0.9,0.9,1.3,1.4c2.1,2.8,4.5,7.8,2.7,11.3l-0.1,0.3c-1.5,2.8-2.9,5.9-1.5,7.7
			c0.1,0.1,0.2,0.2,0.3,0.3c0,0,0.1,0.1,0.1,0.1c0.5,0.6,1.1,1,1.8,1.4c0.9,0.4,1.8,0.6,2.6,0.6c-0.5,1.2-1.6,3.1-3.9,5.5
			c-5.2-4.8-12.2-8.3-18.3-11.4c-8.5-4.3-15.8-8-15.8-13.2c0-4.4,2.4-7.1,4.5-8.6c2.5-1.8,5.8-2.8,8.9-2.8c1.2,0,2.5,0.2,3.6,0.6
			c-1.3,0.3-2.3,1.3-2.3,2.6c0,1.5,1.4,2.7,3.2,2.7c1.8,0,3.2-1.2,3.2-2.6c0-2.4-3-5.1-7.7-5.1c-3.6,0-7.3,1.2-10.1,3.2
			c-2.4,1.7-5.3,4.9-5.3,10.1c0,1.1,0.2,2.1,0.7,3c0.9,5,4.3,8.9,7.1,12.1c2.7,3.1,5,5.8,4.7,8.6c-0.3,2.6-1.6,4.5-3.3,5.8
			C106,238.8,104.4,237.9,103.5,237.1z M96.3,185.6c1.5,3.3,5.3,6.1,7.5,7.2c-2.1,1.1-5.9,3.8-7.5,7.1c0-1.5,0.3-3.2,1.4-4.2
			l0.4-0.3l-0.4-0.3c-0.4-0.4-1.1-1.4-1.1-2.2c0-0.8,0.6-1.8,1.1-2.2l0.3-0.3l-0.3-0.3C96.6,188.8,96.3,187.1,96.3,185.6z
			 M109.4,240.1c1.7-1.5,2.9-3.5,3.3-6.2c0.4-3.3-2.1-6.2-5-9.5c-2.1-2.4-4.3-4.9-5.7-7.9c3.1,3,8.2,5.6,13.8,8.4
			c6.3,3.2,13,6.5,17.9,11.1c-0.2,0.2-0.4,0.4-0.6,0.5C126.3,243.1,116.1,242.3,109.4,240.1z"/>
	</g>
	<g>
		<path  d="M12.6,134.6c-1.4-0.5-4.1-2.1-5.4-3.4l-1.5,1.3c0.2,0.4,0.6,1.4,0.6,1.9c0,0.1,0,0.1,0,0.2
			c0,0,0,0.1,0,0.2c0,0.5-0.4,1.6-0.6,1.9l1.5,1.3C8.5,136.7,11.2,134.9,12.6,134.6z M7.6,134.8c0-0.1,0-0.1,0-0.2
			c0-0.1,0-0.1,0-0.2c0-0.4-0.1-0.9-0.3-1.4c0.7,0.5,1.5,1.1,2.3,1.6c-0.8,0.5-1.6,1-2.3,1.6C7.5,135.7,7.6,135.2,7.6,134.8z"/>
	</g>
	<g>
		<path  d="M13.8,113.9L13.8,113.9c3.4,0,4.3-4.3,4.3-5.7c-1.6,0-5.9,0.7-5.9,4.2v0c-3.8,0-4.4,4.5-4.4,5.6
			C8.8,118,13.8,117.5,13.8,113.9z M13.1,112.4c0-2.2,2.3-2.9,3.8-3.2c-0.3,1.5-1.1,3.7-3.2,3.7l-0.6,0L13.1,112.4z M12.2,113.3
			l0.6,0v0.6c0,0.7-0.2,1.2-0.7,1.7c-0.8,0.8-2.2,1.2-3.2,1.3C9.1,115.6,9.8,113.3,12.2,113.3z"/>
	</g>
	<g>
		<path  d="M12,97.5c0.3,3.2,5,3.6,6.4,3.5c-0.2-1.5-1.3-5.5-5-5.2c-0.4-3.6-5.1-3.8-6.3-3.6
			C7.2,93.2,8.2,97.8,12,97.5z M17.2,100c-0.6-0.1-1.4-0.2-2.1-0.4c-1.3-0.5-2.1-1.2-2.2-2.2l-0.1-0.6l0.6-0.1
			C15.9,96.5,16.8,98.7,17.2,100z M8.3,93.1c1.5,0.1,3.9,0.6,4.1,2.8l0.1,0.6l-0.6,0.1c-0.7,0.1-1.3-0.1-1.9-0.5
			C9.1,95.3,8.6,94.1,8.3,93.1z"/>
	</g>
	<g>
		<path  d="M10.8,105.4c2.6,2.5,6.2,0.1,7.3-1c-1-1-4.9-3.4-7.3-1.2c-2.7-2.5-6.6,0.4-7.3,1.2
			C4.4,105.2,8.1,108,10.8,105.4z M11.1,104.3l0.4-0.4c0.7-0.7,1.8-0.8,3.2-0.4c0.7,0.2,1.4,0.6,1.9,0.9c-0.5,0.4-1.2,0.7-1.9,0.9
			c-1.3,0.4-2.4,0.2-3.2-0.6L11.1,104.3z M8.3,103.2c0.7,0,1.3,0.2,1.8,0.7l0.4,0.4l-0.4,0.4c-1.6,1.5-3.9,0.5-5.1-0.3
			C5.9,103.8,7.2,103.2,8.3,103.2z"/>
	</g>
	<g>
		<path  d="M20.9,115.1c-0.8,0.7-1.1,1.6-1.1,2.4c0,2,1.7,4,2.3,4.6c0.6-0.6,2.2-2.5,2.2-4.4c0-0.9-0.3-1.7-1.1-2.5
			c0.8-0.8,1.1-1.7,1.1-2.5c0-1.9-1.4-3.7-2.2-4.4c-0.7,0.7-2.2,2.7-2.2,4.6C19.9,113.6,20.2,114.5,20.9,115.1z M22.5,115.8
			c0.6,0.5,0.8,1.1,0.8,1.8c0,1.1-0.6,2.2-1.2,3c-0.6-0.8-1.3-2-1.3-3.1c0-0.7,0.2-1.2,0.8-1.7l0.4-0.4L22.5,115.8z M22.1,109.7
			c0.6,0.8,1.2,1.9,1.2,2.9c0,0.7-0.3,1.3-0.9,1.9l-0.4,0.4l-0.4-0.4c-0.5-0.4-0.7-1-0.7-1.6C20.9,111.7,21.5,110.5,22.1,109.7z"/>
	</g>
	<g>
		<path  d="M18.1,160.8c0-1.4-0.9-5.7-4.3-5.7v0c0-3.6-5-4.1-6.1-4.1c0,1.2,0.7,5.6,4.4,5.6l0,0
			C12.2,160.1,16.5,160.8,18.1,160.8z M8.8,152c1.1,0.2,2.4,0.6,3.2,1.3c0.5,0.5,0.7,1,0.7,1.7v0.6h-0.6
			C9.8,155.6,9.1,153.4,8.8,152z M13.1,156.6l0-0.6h0.6c2,0,2.9,2.3,3.2,3.7C15.5,159.5,13.1,158.8,13.1,156.6z"/>
	</g>
	<g>
		<path  d="M13.4,173.1c3.7,0.3,4.8-3.7,5-5.2c-1.5-0.1-6.1,0.3-6.4,3.5c-3.7-0.3-4.8,4.3-4.9,5.3
			C8.3,176.9,13.1,176.7,13.4,173.1z M13,171.5c0.1-1,0.8-1.7,2.2-2.2c0.7-0.3,1.5-0.4,2.1-0.4c-0.4,1.4-1.4,3.5-3.7,3.3l-0.6-0.1
			L13,171.5z M10,172.9c0.5-0.4,1.2-0.6,1.9-0.5l0.6,0.1l-0.1,0.6c-0.2,2.2-2.7,2.7-4.1,2.8C8.6,174.8,9.1,173.6,10,172.9z"/>
	</g>
	<g>
		<path  d="M10.8,165.7c2.4,2.3,6.3-0.2,7.3-1.2c-1.1-1.1-4.7-3.5-7.3-1c-2.7-2.5-6.5,0.2-7.3,1
			C4.3,165.2,8.2,168.2,10.8,165.7z M11.1,164.6l0.4-0.4c0.9-0.8,1.9-1,3.2-0.6c0.7,0.2,1.3,0.6,1.9,0.9c-0.5,0.3-1.2,0.7-1.9,0.9
			c-1.3,0.4-2.4,0.3-3.2-0.4L11.1,164.6z M10.1,164.2l0.4,0.4l-0.4,0.4c-0.5,0.5-1.1,0.7-1.8,0.7c-1.1,0-2.4-0.6-3.3-1.2
			C6.3,163.7,8.5,162.6,10.1,164.2z"/>
	</g>
	<g>
		<path  d="M23.2,153.8c0.8-0.8,1.1-1.6,1.1-2.5c0-2-1.6-3.9-2.2-4.4c-0.6,0.5-2.3,2.5-2.3,4.6c0,0.8,0.3,1.6,1.1,2.4
			c-0.7,0.7-1,1.5-1,2.3c0,1.9,1.5,3.9,2.2,4.6c0.8-0.7,2.2-2.5,2.2-4.4C24.3,155.5,24,154.6,23.2,153.8z M21.6,153.1
			c-0.5-0.5-0.8-1-0.8-1.7c0-1.1,0.7-2.3,1.3-3.1c0.6,0.8,1.2,1.9,1.2,3c0,0.7-0.3,1.3-0.8,1.8l-0.4,0.4L21.6,153.1z M22.1,159.3
			c-0.6-0.8-1.2-2-1.2-3.2c0-0.7,0.2-1.2,0.7-1.6l0.4-0.4l0.4,0.4c0.6,0.5,0.9,1.2,0.9,1.9C23.3,157.4,22.7,158.5,22.1,159.3z"/>
	</g>
	<g>
		<path  d="M124.8,261.6C124.8,261.6,124.8,261.6,124.8,261.6c0-1.1-0.6-5.7-4.3-5.7c0-3.2-4.6-4.1-6.1-4.1
			c0,1.5,0.7,5.6,4.4,5.6C118.9,261,123.6,261.6,124.8,261.6z M116.2,254.7c-0.3-0.6-0.5-1.3-0.6-1.9c1.5,0.3,4,1.1,4,3v0.6h-0.6
			C117.7,256.4,116.8,255.9,116.2,254.7z M119.9,257.4v-0.6h0.6c1.2,0,2.1,0.6,2.7,1.9c0.3,0.6,0.5,1.3,0.6,1.8
			C122.3,260.3,119.9,259.6,119.9,257.4z"/>
	</g>
	<g>
		<path  d="M103.1,257.5c3.1-0.3,3.7-3.9,3.7-5.6c0-0.2,0-0.3,0-0.5c-1.5,0.1-5.5,1.1-5.5,4.3c0,0.1,0,0.3,0,0.4
			c-3.3,0.3-3.9,3.8-3.9,5.5c0,0.2,0,0.4,0,0.5c1.1-0.1,5.6-1,5.6-4.2C103.2,257.8,103.2,257.7,103.1,257.5z M102.4,256.1
			c0-0.1,0-0.2,0-0.3c0-2,2.1-2.8,3.5-3.2c-0.1,1.2-0.7,3.8-2.8,4l-0.6,0.1L102.4,256.1z M102.2,257.6c0,0.1,0,0.2,0,0.3
			c0,1.9-2.2,2.7-3.6,3.1c0.1-1.3,0.6-3.7,2.9-3.9l0.6-0.1L102.2,257.6z"/>
	</g>
	<g>
		<path  d="M110.5,251.7c-0.7,0.7-2.2,2.7-2.2,4.6c0,0.8,0.3,1.6,1,2.3c-0.8,0.7-1.1,1.6-1.1,2.4c0,2,1.7,4,2.3,4.6
			c0.6-0.6,2.2-2.5,2.2-4.4c0-0.9-0.3-1.7-1.1-2.5c0.8-0.8,1.1-1.7,1.1-2.5C112.7,254.2,111.2,252.4,110.5,251.7z M110.8,259.3
			c0.6,0.5,0.8,1.1,0.8,1.8c0,1.1-0.6,2.2-1.2,3c-0.6-0.8-1.3-2-1.3-3.1c0-0.7,0.2-1.2,0.8-1.7l0.4-0.4L110.8,259.3z M110.8,258
			l-0.4,0.4L110,258c-0.5-0.4-0.7-1-0.7-1.6c0-1.1,0.6-2.3,1.2-3.2c0.6,0.8,1.2,1.9,1.2,2.9C111.7,256.8,111.4,257.4,110.8,258z"/>
	</g>
	<g>
		<path  d="M129.1,247.9c-0.9-0.8-4.7-3.5-7.3-1c-2.6-2.5-6.2-0.1-7.3,1c1,1,4.9,3.4,7.3,1.2
			C124.4,251.6,128.3,248.7,129.1,247.9z M122.1,248l0.4-0.4c1.6-1.5,3.9-0.5,5.1,0.3c-0.9,0.6-2.1,1.2-3.3,1.2
			c-0.7,0-1.3-0.2-1.8-0.7L122.1,248z M117.9,248.9c-0.7-0.2-1.4-0.6-1.9-0.9c1.2-0.8,3.4-1.9,5.1-0.3l0.4,0.4l-0.4,0.4
			C120.3,249.2,119.3,249.3,117.9,248.9z"/>
	</g>
	<g>
		<path  d="M114.4,17.2c1.5,0,6.1-0.9,6.1-4.1c3.7,0,4.3-4.7,4.3-5.7c0,0,0,0,0,0c-1.2,0-5.9,0.6-5.9,4.2
			C115.2,11.6,114.4,15.7,114.4,17.2z M119.5,13.1c0,1.9-2.4,2.7-4,3c0.1-0.6,0.3-1.3,0.6-1.9c0.6-1.2,1.5-1.7,2.7-1.7h0.6V13.1z
			 M119.9,11.6c0-2.2,2.4-2.9,3.8-3.1c-0.1,0.5-0.3,1.2-0.6,1.8c-0.6,1.3-1.5,1.9-2.6,1.9l-0.6,0L119.9,11.6z"/>
	</g>
	<g>
		<path  d="M106.9,17.5c0-0.1,0-0.3,0-0.5c0-1.7-0.7-5.3-3.7-5.6c0-0.1,0-0.2,0-0.4c0-3.2-4.6-4.2-5.6-4.2
			c0,0.1,0,0.3,0,0.5c0,1.6,0.5,5.2,3.9,5.5c0,0.1,0,0.3,0,0.4C101.4,16.4,105.3,17.4,106.9,17.5z M98.5,8c1.4,0.4,3.6,1.2,3.6,3.1
			c0,0.1,0,0.2,0,0.3l-0.1,0.6l-0.6-0.1C99.2,11.7,98.6,9.2,98.5,8z M102.4,13.2c0-0.1,0-0.2,0-0.3l0.1-0.6l0.6,0.1
			c2.1,0.2,2.7,2.8,2.8,4C104.5,16,102.4,15.2,102.4,13.2z"/>
	</g>
	<g>
		<path  d="M112.7,12.9c0-0.9-0.3-1.8-1.1-2.5c0.8-0.8,1.1-1.6,1.1-2.5c0-2-1.6-3.9-2.2-4.4c-0.6,0.5-2.3,2.5-2.3,4.6
			c0,0.8,0.3,1.6,1.1,2.4c-0.7,0.7-1,1.5-1,2.3c0,1.9,1.5,3.9,2.2,4.6C111.2,16.6,112.7,14.7,112.7,12.9z M110,9.7
			c-0.5-0.5-0.8-1-0.8-1.7c0-1.1,0.7-2.3,1.3-3.1c0.6,0.8,1.2,1.9,1.2,3c0,0.7-0.3,1.3-0.8,1.8l-0.4,0.4L110,9.7z M109.3,12.6
			c0-0.7,0.2-1.2,0.7-1.6l0.4-0.4l0.4,0.4c0.6,0.5,0.9,1.2,0.8,1.9c0,1.1-0.6,2.2-1.2,2.9C109.9,15,109.3,13.8,109.3,12.6z"/>
	</g>
	<g>
		<path  d="M121.8,19.9c-2.4-2.3-6.3,0.2-7.3,1.2c1.1,1.1,4.7,3.5,7.3,1c2.7,2.5,6.5-0.2,7.3-1
			C128.3,20.3,124.4,17.3,121.8,19.9z M121.5,20.9l-0.4,0.4c-1.6,1.6-3.9,0.5-5.1-0.3c0.5-0.3,1.2-0.7,1.9-0.9
			c1.3-0.4,2.4-0.3,3.2,0.4L121.5,20.9z M122.5,21.4l-0.4-0.4l0.4-0.4c0.5-0.5,1.1-0.7,1.8-0.7c1.1,0,2.4,0.6,3.3,1.2
			C126.3,21.8,124.1,22.9,122.5,21.4z"/>
	</g>
	<g>
		<path  d="M55.1,108.3c0,1.5,0.7,5.6,4.4,5.6v0c0,3.6,4.7,4.2,5.9,4.2v0c0-1.1-0.6-5.7-4.3-5.7
			C61.2,109.2,56.6,108.3,55.1,108.3z M56.8,111.3c-0.3-0.6-0.5-1.3-0.6-1.9c1.5,0.3,4,1.1,4,3v0.6l-0.6,0
			C58.3,113,57.5,112.4,56.8,111.3z M63.8,115.3c0.3,0.6,0.5,1.3,0.6,1.8c-1.5-0.2-3.8-1-3.8-3.1v-0.6h0.6
			C62.4,113.4,63.2,114,63.8,115.3z"/>
	</g>
	<g>
		<path  d="M49.9,115.2c-0.8,0.7-1.1,1.6-1.1,2.4c0,2,1.7,4,2.3,4.6c0.6-0.6,2.2-2.5,2.2-4.4c0-0.9-0.3-1.7-1.1-2.5
			c0.8-0.8,1.1-1.7,1.1-2.5c0-1.9-1.4-3.7-2.2-4.4c-0.7,0.7-2.2,2.7-2.2,4.6C48.9,113.7,49.2,114.5,49.9,115.2z M51.5,115.9
			c0.6,0.5,0.8,1.1,0.8,1.8c0,1.1-0.6,2.2-1.2,3c-0.6-0.8-1.3-2-1.3-3.1c0-0.7,0.2-1.2,0.8-1.7l0.4-0.4L51.5,115.9z M51.2,109.7
			c0.6,0.8,1.2,1.9,1.2,2.9c0,0.7-0.3,1.3-0.9,1.9l-0.4,0.4l-0.4-0.4c-0.5-0.4-0.7-1-0.7-1.6C49.9,111.8,50.6,110.6,51.2,109.7z"/>
	</g>
	<g>
		<path  d="M69.8,104.5c-0.9-0.8-4.7-3.5-7.3-1c-2.6-2.5-6.2-0.1-7.3,1c1,1,4.9,3.4,7.3,1.2
			C65.1,108.2,69,105.2,69.8,104.5z M62.7,104.6l0.4-0.4c1.6-1.5,3.8-0.5,5.1,0.3c-0.9,0.6-2.1,1.2-3.3,1.2c-0.7,0-1.3-0.2-1.8-0.7
			L62.7,104.6z M58.6,105.4c-0.7-0.2-1.4-0.6-1.9-0.9c0.5-0.4,1.2-0.7,1.9-0.9c1.3-0.4,2.4-0.2,3.2,0.6l0.4,0.4l-0.4,0.4
			C61,105.7,59.9,105.9,58.6,105.4z"/>
	</g>
	<g>
		<path  d="M59.6,154.9C59.6,154.9,59.6,154.9,59.6,154.9c-3.7,0-4.4,4.1-4.4,5.6c1.5,0,6.1-0.9,6.1-4.1
			c3.8,0,4.3-4.7,4.3-5.7v0C64.3,150.7,59.6,151.4,59.6,154.9z M60.2,156.5c0,1.9-2.4,2.7-4,3c0.1-0.6,0.3-1.3,0.6-1.9
			c0.6-1.2,1.5-1.7,2.7-1.7h0.6V156.5z M63.8,153.6c-0.6,1.3-1.5,1.9-2.7,1.9l-0.6,0v-0.6c0-2.2,2.4-2.9,3.8-3.1
			C64.3,152.3,64.1,153,63.8,153.6z"/>
	</g>
	<g>
		<path  d="M52.2,153.7c0.8-0.8,1.1-1.6,1.1-2.5c0-2-1.6-3.9-2.2-4.4c-0.6,0.5-2.3,2.5-2.3,4.6c0,0.8,0.3,1.6,1.1,2.4
			c-0.7,0.7-1,1.5-1,2.3c0,1.9,1.5,3.9,2.2,4.6c0.8-0.7,2.2-2.5,2.2-4.4C53.3,155.4,53,154.5,52.2,153.7z M50.6,153
			c-0.5-0.5-0.8-1-0.8-1.7c0-1.1,0.7-2.3,1.3-3.1c0.6,0.8,1.2,1.9,1.2,3c0,0.7-0.3,1.3-0.8,1.8l-0.4,0.4L50.6,153z M51.2,159.2
			c-0.6-0.8-1.2-2-1.2-3.2c0-0.7,0.2-1.2,0.7-1.6l0.4-0.4l0.4,0.4c0.6,0.5,0.9,1.2,0.9,1.9C52.4,157.3,51.8,158.4,51.2,159.2z"/>
	</g>
	<g>
		<path  d="M62.5,163.2c-2.4-2.3-6.3,0.2-7.3,1.2c1.1,1.1,4.7,3.5,7.3,1c2.7,2.5,6.5-0.2,7.3-1
			C69,163.6,65.1,160.7,62.5,163.2z M62.2,164.3l-0.4,0.4c-0.9,0.8-1.9,1-3.2,0.6c-0.7-0.2-1.3-0.6-1.9-0.9c0.5-0.3,1.2-0.7,1.9-0.9
			c1.3-0.4,2.4-0.3,3.2,0.4L62.2,164.3z M63.2,164.7l-0.4-0.4l0.4-0.4c0.5-0.5,1.1-0.7,1.8-0.7c1.1,0,2.4,0.6,3.3,1.2
			C67,165.2,64.8,166.3,63.2,164.7z"/>
	</g>
	<g>
		<path  d="M119.1,211.2L119.1,211.2c-3.7,0-4.4,4.1-4.4,5.6c1.5,0,6.1-0.9,6.1-4.1c3.7,0,4.3-4.7,4.3-5.7
			c0,0,0,0,0,0C123.8,207,119.1,207.6,119.1,211.2z M119.7,212.7c0,1.9-2.4,2.7-4,3c0.1-0.6,0.3-1.3,0.6-1.9
			c0.6-1.2,1.5-1.7,2.7-1.7h0.6V212.7z M123.3,209.9c-0.6,1.3-1.5,1.9-2.7,1.9l-0.6,0v-0.6c0-2.2,2.4-2.9,3.8-3.1
			C123.8,208.6,123.6,209.3,123.3,209.9z"/>
	</g>
	<g>
		<path  d="M111.7,210c0.8-0.8,1.1-1.6,1.1-2.5c0-2-1.6-3.9-2.2-4.4c-0.6,0.5-2.3,2.5-2.3,4.6c0,0.8,0.3,1.6,1.1,2.4
			c-0.7,0.7-1,1.5-1,2.3c0,1.9,1.5,3.9,2.2,4.6c0.8-0.7,2.2-2.5,2.2-4.4C112.8,211.6,112.5,210.8,111.7,210z M110.1,209.3
			c-0.5-0.5-0.8-1-0.8-1.7c0-1.1,0.7-2.3,1.3-3.1c0.6,0.8,1.2,1.9,1.2,3c0,0.7-0.3,1.3-0.8,1.8l-0.4,0.4L110.1,209.3z M110.7,215.4
			c-0.6-0.8-1.2-2-1.2-3.2c0-0.7,0.2-1.2,0.7-1.6l0.4-0.4l0.4,0.4c0.6,0.5,0.9,1.2,0.9,1.9C111.9,213.6,111.3,214.7,110.7,215.4z"/>
	</g>
	<g>
		<path  d="M122,219.5c-2.4-2.3-6.3,0.2-7.3,1.2c1.1,1.1,4.7,3.5,7.3,1c2.7,2.5,6.5-0.2,7.3-1
			C128.5,219.9,124.6,217,122,219.5z M121.7,220.6l-0.4,0.4c-0.9,0.8-1.9,1-3.2,0.6c-0.7-0.2-1.3-0.6-1.9-0.9
			c0.5-0.3,1.2-0.7,1.9-0.9c1.3-0.4,2.4-0.3,3.2,0.4L121.7,220.6z M122.7,221l-0.4-0.4l0.4-0.4c0.5-0.5,1.1-0.7,1.8-0.7
			c1.1,0,2.4,0.6,3.3,1.2C126.5,221.4,124.3,222.5,122.7,221z"/>
	</g>
	<g>
		<path  d="M119.1,57.9c0,3.6,4.7,4.2,5.9,4.2c0,0,0,0,0,0c0-1.1-0.6-5.7-4.3-5.7c0-3.2-4.6-4.1-6.1-4.1
			C114.6,53.8,115.4,57.9,119.1,57.9L119.1,57.9z M123.3,59.2c0.3,0.6,0.5,1.3,0.6,1.8c-1.5-0.2-3.8-1-3.8-3.1v-0.6l0.6,0
			C121.9,57.3,122.7,57.9,123.3,59.2z M116.3,55.2c-0.3-0.6-0.5-1.3-0.6-1.9c1.5,0.3,4,1.1,4,3v0.6h-0.6
			C117.8,56.9,117,56.4,116.3,55.2z"/>
	</g>
	<g>
		<path  d="M110.7,52.2c-0.7,0.7-2.2,2.7-2.2,4.6c0,0.8,0.3,1.6,1,2.3c-0.8,0.7-1.1,1.5-1.1,2.4c0,2,1.7,4,2.3,4.6
			c0.6-0.6,2.2-2.5,2.2-4.4c0-0.9-0.3-1.7-1.1-2.5c0.8-0.8,1.1-1.7,1.1-2.5C112.8,54.7,111.4,52.9,110.7,52.2z M111.8,61.6
			c0,1.1-0.6,2.2-1.2,3c-0.6-0.8-1.3-2-1.3-3.1c0-0.7,0.3-1.2,0.8-1.7l0.4-0.4l0.4,0.4C111.6,60.3,111.8,60.9,111.8,61.6z M111,58.5
			l-0.4,0.4l-0.4-0.4c-0.5-0.4-0.7-1-0.7-1.6c0-1.1,0.7-2.3,1.2-3.2c0.6,0.8,1.2,1.9,1.2,2.9C111.9,57.3,111.6,57.9,111,58.5z"/>
	</g>
	<g>
		<path  d="M122,49.6c2.7,2.5,6.6-0.4,7.3-1.2c-0.9-0.8-4.7-3.5-7.3-1c-2.6-2.5-6.2-0.1-7.3,1
			C115.7,49.4,119.6,51.9,122,49.6z M122.2,48.5l0.4-0.4c1.6-1.5,3.9-0.5,5.1,0.3c-0.9,0.6-2.1,1.2-3.3,1.2c-0.7,0-1.3-0.2-1.8-0.7
			L122.2,48.5z M116.2,48.4c0.5-0.4,1.2-0.7,1.9-0.9c1.3-0.4,2.4-0.2,3.2,0.6l0.4,0.4l-0.4,0.4c-0.7,0.7-1.8,0.9-3.2,0.4
			C117.4,49.1,116.7,48.8,116.2,48.4z"/>
	</g>
	<g>
		<path  d="M85.6,142.9c3.4,1.2,5.6-2.3,6.2-3.6c-1.3-0.5-5.9-1.2-7.1,1.7c-3.4-1.3-5.7,2.8-6.1,3.8
			C79.8,145.1,84.3,146.1,85.6,142.9z M85.7,141.3c0.1-0.3,0.6-1.4,2.6-1.5c0.7-0.1,1.5,0,2.1,0.1c-0.3,0.5-0.7,1-1.3,1.5
			c-1,0.8-2,1.1-3.1,0.7l-0.6-0.2L85.7,141.3z M82.5,141.8c0.6-0.3,1.2-0.3,1.9,0l0.6,0.2l-0.2,0.5c-0.8,2-3.2,1.8-4.6,1.6
			C80.6,143.3,81.5,142.3,82.5,141.8z"/>
	</g>
	<g>
		<path  d="M84.7,128.2c1.2,2.9,5.7,2.2,7.1,1.7c-0.6-1.4-2.8-4.9-6.2-3.6c-1.3-3.3-5.9-2.3-7-1.9
			C79,125.3,81.3,129.4,84.7,128.2z M89.1,127.8c0.5,0.4,0.9,1,1.3,1.5c-0.6,0.1-1.3,0.2-2.1,0.1c-2.1-0.2-2.5-1.2-2.6-1.5l-0.2-0.5
			l0.6-0.2C87.1,126.7,88.1,126.9,89.1,127.8z M80.1,125c1.4-0.3,3.8-0.4,4.6,1.6l0.2,0.5l-0.5,0.2c-0.7,0.2-1.3,0.2-1.9,0
			C81.5,126.8,80.6,125.8,80.1,125z"/>
	</g>
	<g>
		<path  d="M135.7,190.2c0-0.4-0.1-0.8-0.2-1.2c1.8-0.7,2.3-2.4,2.3-3.9c0-1.1-0.3-2.2-0.5-2.8
			c-1.2,0.5-4.1,2-4.1,4.5c0,0.4,0.1,0.9,0.3,1.3c-2,0.7-2.5,2.4-2.5,3.9c0,1.2,0.3,2.3,0.5,2.7
			C132.3,194.4,135.7,192.7,135.7,190.2z M134.4,187.8c-0.1-0.3-0.2-0.7-0.2-1c0-1.4,1.4-2.5,2.5-3.1c0.1,0.4,0.1,0.9,0.1,1.4
			c0,1.6-0.6,2.6-1.7,3l-0.5,0.2L134.4,187.8z M132.1,193.4c-0.1-0.4-0.1-0.9-0.1-1.4c0-2.4,1.4-2.9,1.8-3l0.5-0.2l0.2,0.5
			c0.1,0.3,0.2,0.6,0.2,0.9C134.7,191.6,133.2,192.7,132.1,193.4z"/>
	</g>
	<g>
		<path  d="M131,77.1c0,1.5,0.5,3.2,2.5,3.9c-0.2,0.5-0.3,0.9-0.3,1.3c0,2.5,2.9,4,4.1,4.5c0.2-0.5,0.5-1.6,0.5-2.8
			c0-1.6-0.5-3.3-2.3-3.9c0.2-0.4,0.2-0.8,0.3-1.2c0-2.6-3.4-4.2-4.3-4.5C131.3,74.8,131,75.9,131,77.1z M136.8,84.1
			c0,0.5-0.1,1-0.1,1.4c-1.1-0.6-2.5-1.7-2.5-3.1c0-0.3,0.1-0.7,0.2-1l0.2-0.5l0.5,0.2C136.2,81.4,136.8,82.4,136.8,84.1z
			 M134.7,78.9c0,0.3-0.1,0.6-0.2,0.9l-0.2,0.5l-0.5-0.2c-0.5-0.2-1.8-0.7-1.8-3c0-0.5,0.1-1,0.1-1.4
			C133.2,76.4,134.7,77.5,134.7,78.9z"/>
	</g>
	<g>
		<path  d="M79.6,182.2l-0.7,0.7c0.7,0.6,1.5,1.9,1.8,2.5c0.4-0.6,1.1-1.9,1.8-2.5l-0.7-0.7c-0.2,0.1-0.9,0.3-1.1,0.3
			C80.5,182.6,79.8,182.4,79.6,182.2z M81.8,182.9c-0.4,0.5-0.8,1.1-1.1,1.6c-0.3-0.5-0.7-1.1-1.1-1.6l0.1-0.1
			c0.3,0.1,0.7,0.2,1,0.2c0.3,0,0.7-0.1,1-0.2L81.8,182.9z"/>
	</g>
	<g>
		<path  d="M81.8,176.1l0.7-0.7c-0.7-0.6-1.4-1.9-1.8-2.5c-0.3,0.6-1.1,1.9-1.8,2.5l0.7,0.7c0.2-0.1,0.9-0.3,1.1-0.3
			C80.9,175.8,81.6,176,81.8,176.1z M79.6,175.4c0.4-0.5,0.8-1.1,1.1-1.6c0.3,0.5,0.7,1.1,1.1,1.6l-0.1,0.1c-0.3-0.1-0.7-0.2-1-0.2
			c-0.3,0-0.7,0.1-1,0.2L79.6,175.4z"/>
	</g>
	<g>
		<path  d="M102,192.7c-0.6-0.4-2-1.1-2.7-1.7l-0.7,0.6c0.1,0.2,0.3,0.8,0.3,1.1c0.1,0.2-0.2,0.8-0.3,1l0.7,0.6
			C100,193.8,101.3,193,102,192.7z M99.3,192.7c0-0.3-0.1-0.7-0.2-0.9l0.2-0.1c0.5,0.4,1.1,0.7,1.7,1c-0.5,0.3-1.2,0.7-1.7,1.1
			l-0.2-0.1C99.2,193.4,99.4,193,99.3,192.7z"/>
	</g>
	<g>
		<path  d="M88.3,192.7c0.6,0.3,2,1.1,2.7,1.7l0.7-0.6c-0.1-0.2-0.3-0.8-0.3-1c-0.1-0.2,0.2-0.8,0.3-1.1l-0.7-0.6
			C90.3,191.7,89,192.3,88.3,192.7z M91,192.7c0,0.3,0.1,0.6,0.2,0.9l-0.1,0.1c-0.5-0.4-1.2-0.8-1.7-1.1c0.5-0.3,1.2-0.7,1.7-1
			l0.2,0.1C91.1,192.1,90.9,192.5,91,192.7z"/>
	</g>
	<g>
		<path  d="M79.1,92.8l-0.7,0.7c0.7,0.6,1.5,1.9,1.8,2.5c0.4-0.6,1.1-1.9,1.8-2.5l-0.7-0.7c-0.2,0.1-0.9,0.3-1.1,0.3
			C80,93.1,79.4,92.9,79.1,92.8z M81.4,93.5c-0.4,0.5-0.8,1.1-1.1,1.6c-0.3-0.5-0.7-1.1-1.1-1.6l0.1-0.1c0.3,0.1,0.7,0.2,1,0.2
			c0.3,0,0.7-0.1,1-0.2L81.4,93.5z"/>
	</g>
	<g>
		<path  d="M81.3,86.5l0.7-0.7c-0.7-0.6-1.4-1.9-1.8-2.5c-0.3,0.6-1.1,1.9-1.8,2.5l0.7,0.7c0.2-0.1,0.9-0.3,1.1-0.3
			C80.5,86.2,81.1,86.4,81.3,86.5z M79.1,85.8c0.4-0.5,0.8-1.1,1.1-1.6c0.3,0.5,0.7,1.1,1.1,1.6L81.2,86c-0.3-0.1-0.7-0.2-1-0.2
			c-0.3,0-0.7,0.1-1,0.2L79.1,85.8z"/>
	</g>
	<g>
		<path  d="M101.5,76.3c-0.6-0.4-2-1.1-2.7-1.7l-0.7,0.6c0.1,0.2,0.3,0.8,0.3,1c0.1,0.2-0.2,0.8-0.3,1l0.7,0.6
			C99.5,77.3,100.9,76.6,101.5,76.3z M98.9,76.3c0-0.3-0.1-0.7-0.2-0.9l0.2-0.1c0.5,0.4,1.1,0.7,1.7,1c-0.5,0.3-1.2,0.7-1.7,1.1
			l-0.2-0.1C98.8,76.9,98.9,76.6,98.9,76.3z"/>
	</g>
	<g>
		<path  d="M91.3,77.3c-0.1-0.2-0.3-0.8-0.3-1c-0.1-0.2,0.2-0.8,0.3-1l-0.7-0.6c-0.7,0.6-2,1.3-2.7,1.7
			c0.6,0.3,2,1.1,2.7,1.7L91.3,77.3z M90.6,75.2l0.2,0.1c-0.1,0.3-0.2,0.6-0.2,0.9c0,0.3,0.1,0.6,0.2,0.9l-0.1,0.1
			c-0.5-0.4-1.2-0.8-1.7-1.1C89.5,76,90.1,75.6,90.6,75.2z"/>
	</g>
	<g>
		<path  d="M79.2,71.1l0-0.4h-2.7L76.4,71c-0.1,0.3-0.2,0.6-0.5,0.8c-0.2,0.2-0.5,0.4-0.8,0.4l-0.4,0.1l0,2.5l0.5,0
			c2.2,0.1,4.1,0.8,5.2,1.8l0.7-0.7C80,75,79.3,73.2,79.2,71.1z M75.7,74V73c0.4-0.1,0.7-0.3,0.9-0.6c0.3-0.3,0.5-0.5,0.6-0.9h1
			c0.1,1.2,0.4,2.2,0.8,3.1C78,74.3,76.9,74.1,75.7,74z"/>
	</g>
	<g>
		<path  d="M73.1,72.2c-0.3-0.1-0.6-0.2-0.8-0.4c-0.2-0.2-0.4-0.5-0.5-0.8l-0.1-0.4H69l0,0.5
			c-0.1,2.1-0.8,3.9-1.9,4.9l0.7,0.7c1.1-1,3-1.7,5.2-1.8l0.5,0v-2.5L73.1,72.2z M72.5,73l0,0.9c-1.2,0.1-2.3,0.4-3.3,0.8
			c0.4-0.9,0.7-2,0.8-3.1h1c0.1,0.3,0.3,0.6,0.6,0.9C71.8,72.7,72.1,72.9,72.5,73z"/>
	</g>
	<g>
		<path  d="M71.8,69.1c0.1-0.3,0.2-0.6,0.5-0.8c0.2-0.2,0.5-0.4,0.8-0.4l0.4-0.1v-2.5l-0.5,0
			c-2.2-0.1-4.1-0.8-5.2-1.8l-0.7,0.7c1.1,1,1.8,2.8,1.9,4.9l0,0.4h2.7L71.8,69.1z M69.2,65.3c1,0.4,2.1,0.7,3.3,0.8V67
			c-0.4,0.1-0.7,0.3-0.9,0.6c-0.3,0.3-0.5,0.5-0.6,0.9h-1C69.9,67.3,69.6,66.3,69.2,65.3z"/>
	</g>
	<g>
		<path  d="M75.1,67.8c0.3,0.1,0.6,0.2,0.8,0.4c0.2,0.2,0.4,0.5,0.5,0.8l0.1,0.4h2.7l0-0.4c0.1-2.1,0.8-3.9,1.9-4.9
			l-0.7-0.7c-1.1,1-3,1.7-5.2,1.8l-0.5,0l0,2.5L75.1,67.8z M75.7,67l0-0.9c1.2-0.1,2.3-0.4,3.3-0.8c-0.4,0.9-0.7,2-0.8,3.1h-1
			c-0.1-0.3-0.3-0.6-0.6-0.9C76.4,67.4,76,67.2,75.7,67z"/>
	</g>
	<g>
		<path  d="M73.1,69.1c-0.3,0.3-0.4,0.6-0.4,1c0,0.3,0.1,0.7,0.4,1c0.6,0.5,1.5,0.5,2,0c0.3-0.3,0.4-0.6,0.4-1
			c0-0.3-0.1-0.7-0.4-1C74.5,68.5,73.6,68.5,73.1,69.1z M74.5,70c0,0.1,0,0.2-0.1,0.3c-0.1,0.1-0.2,0.1-0.3,0.1
			c-0.1,0-0.2,0-0.3-0.1c-0.1-0.1-0.1-0.2-0.1-0.3c0-0.1,0-0.2,0.1-0.3c0.1-0.1,0.2-0.1,0.3-0.1c0.1,0,0.2,0,0.3,0.1
			C74.5,69.8,74.5,70,74.5,70z"/>
	</g>
	<g>
		<path  d="M76.4,200.1c-0.1,0.3-0.2,0.6-0.5,0.8c-0.2,0.2-0.5,0.4-0.8,0.4l-0.4,0.1l0,2.5l0.5,0
			c2.2,0.1,4.1,0.8,5.2,1.8l0.7-0.7c-1.1-1-1.8-2.8-1.9-4.9l0-0.4h-2.7L76.4,200.1z M79,203.8c-1-0.4-2.1-0.7-3.3-0.8v-0.9
			c0.4-0.1,0.7-0.3,0.9-0.6c0.3-0.2,0.5-0.5,0.6-0.9h1C78.3,201.8,78.6,202.9,79,203.8z"/>
	</g>
	<g>
		<path  d="M73.1,201.3c-0.3-0.1-0.6-0.2-0.8-0.4c-0.2-0.2-0.4-0.5-0.5-0.8l-0.1-0.4H69l0,0.4
			c-0.1,2.1-0.8,3.9-1.9,4.9c0,0,0,0,0,0l0.7,0.7c0,0,0,0,0,0c1.1-1,3-1.7,5.2-1.8l0.5,0v-2.5L73.1,201.3z M72.5,202.1l0,0.9
			c-1.2,0.1-2.3,0.4-3.3,0.8c0.4-0.9,0.7-2,0.8-3.1h1c0.1,0.3,0.3,0.6,0.6,0.9C71.8,201.8,72.1,202,72.5,202.1z"/>
	</g>
	<g>
		<path  d="M71.8,198.1c0.1-0.3,0.2-0.6,0.5-0.8c0.2-0.2,0.5-0.4,0.8-0.4l0.4-0.1v-2.5l-0.5,0
			c-2.2-0.1-4.1-0.8-5.2-1.8l-0.7,0.7c1.1,1,1.8,2.8,1.9,4.9l0,0.4h2.7L71.8,198.1z M69.2,194.4c1,0.4,2.1,0.7,3.3,0.8v0.9
			c-0.4,0.1-0.7,0.3-0.9,0.6c-0.3,0.3-0.5,0.5-0.6,0.9h-1C69.9,196.4,69.6,195.3,69.2,194.4z"/>
	</g>
	<g>
		<path  d="M74.7,194.3v2.5l0.4,0.1c0.3,0.1,0.6,0.2,0.8,0.4c0.2,0.2,0.4,0.5,0.5,0.8l0.1,0.4h2.7l0-0.4
			c0.1-2.1,0.8-3.9,1.9-4.9l-0.7-0.7c-1.1,1-3,1.7-5.2,1.8L74.7,194.3z M78.2,197.5h-1c-0.1-0.3-0.3-0.6-0.6-0.9
			c-0.3-0.2-0.6-0.4-0.9-0.6l0-0.9c1.2-0.1,2.3-0.4,3.3-0.8C78.6,195.3,78.3,196.4,78.2,197.5z"/>
	</g>
	<g>
		<path  d="M73.1,198.1c-0.3,0.3-0.4,0.6-0.4,1c0,0.3,0.1,0.7,0.4,1c0.6,0.5,1.5,0.5,2,0c0.3-0.3,0.4-0.6,0.4-1
			c0-0.3-0.1-0.7-0.4-1C74.5,197.6,73.6,197.6,73.1,198.1z M74.5,199.1c0,0.1,0,0.2-0.1,0.3c-0.1,0.1-0.2,0.1-0.3,0.1
			c-0.1,0-0.2,0-0.3-0.1c-0.1-0.1-0.1-0.2-0.1-0.3c0-0.1,0-0.2,0.1-0.3c0.1-0.1,0.2-0.1,0.3-0.1c0.1,0,0.2,0,0.3,0.1
			C74.5,198.9,74.5,199,74.5,199.1z"/>
	</g>
	<g>
		<path  d="M77.7,133.6c0.2,0.3,0.3,0.6,0.3,1c0,0.4-0.1,0.7-0.3,1l1.1,1.1c1.4-1.2,3.1-2,4.7-2c-1.5,0-3.3-0.8-4.7-2
			L77.7,133.6z"/>
	</g>
	<g>
		<path  d="M76,136.4c-0.4,0-0.7-0.1-1-0.3l-1.1,1.1c1.3,1.3,2.1,2.9,2.1,4.4c0-1.5,0.9-3.1,2.1-4.4l-1.1-1.1
			C76.7,136.3,76.4,136.4,76,136.4z"/>
	</g>
	<g>
		<path  d="M74.4,135.5c-0.2-0.3-0.3-0.6-0.3-1c0-0.4,0.1-0.7,0.3-1l-1.1-1.1c-1.4,1.2-3.1,2-4.7,2
			c1.6,0,3.3,0.8,4.7,2L74.4,135.5z"/>
	</g>
	<g>
		<path  d="M76.1,132.7c0.4,0,0.7,0.1,1,0.3l1.1-1.1c-1.3-1.3-2.1-2.9-2.1-4.4c0,1.5-0.9,3.1-2.1,4.4L75,133
			C75.3,132.8,75.7,132.7,76.1,132.7z"/>
	</g>
	<g>
		<path  d="M76,133.4c-0.7,0-1.3,0.5-1.3,1.2c0,0.7,0.6,1.2,1.3,1.2c0.7,0,1.3-0.5,1.3-1.2
			C77.3,133.9,76.7,133.4,76,133.4z"/>
	</g>
	<g>
		<path  d="M140.6,198.2c-0.2-0.3-0.3-0.6-0.3-1c0-0.4,0.1-0.7,0.3-1l-1.1-1.1c-1.4,1.2-3.1,2-4.7,2
			c1.6,0,3.3,0.8,4.7,2L140.6,198.2z"/>
	</g>
	<g>
		<path  d="M140.6,72.8c-0.2-0.3-0.3-0.6-0.3-1c0-0.4,0.1-0.7,0.3-1l-1.1-1.1c-1.4,1.2-3.1,2-4.7,2
			c1.6,0,3.3,0.8,4.7,2L140.6,72.8z"/>
	</g>
	<g>
		<path  d="M129,122c-1-1-2.7-9,0.7-12.7c-0.7,0.3-1.8,1-2.8,1.9c-1,1-1.9,2.2-1.9,3.5c-0.7,0-1.8,0.6-2.5,1.3
			c-0.7,0.7-1.3,1.6-1.3,2.4c-1.4,0-2.7,0.8-3.7,1.8c-1,0.9-1.7,2-2,2.6C119.5,119.5,128,121.1,129,122z M117.9,120.4
			c0.8-0.7,2-1.6,3.4-1.6h0.5v-0.5c0-0.5,0.5-1.4,1.2-2c0.7-0.7,1.6-1.1,2.1-1.1h0.5v-0.5c0-1.3,0.9-2.4,1.7-3.2
			c0.3-0.3,0.6-0.5,0.8-0.7c-1.5,3.3-1,7.9-0.2,10.2c-2.4-0.7-7.3-1.3-10.8,0.2C117.4,121,117.7,120.7,117.9,120.4z"/>
	</g>
	<g>
		<path  d="M125.9,116.6l-1.2-0.2c-0.1,0.2-0.3,0.7-0.5,0.9c0,0-0.1,0.1-0.1,0.1c0,0,0,0,0,0.1
			c-0.2,0.2-0.7,0.4-0.9,0.5l0.2,1.1c0.9,0,2,0.1,2.9,0.5C125.9,118.6,125.9,117.5,125.9,116.6z M123.7,118.2
			c0.3-0.1,0.5-0.3,0.7-0.4c0,0,0,0,0.1-0.1c0,0,0.1-0.1,0.1-0.1c0.2-0.2,0.3-0.4,0.5-0.7l0.4,0.1c0,0.5,0,1.2,0.2,1.8
			c-0.6-0.1-1.1-0.2-1.8-0.2L123.7,118.2z"/>
	</g>
	<g>
		<path  d="M111.7,106l0.2-0.2c-0.8-0.8-2-4.9-2-9.6c0-3.2,0.6-7.6,3.2-10.5l0.5-0.6l-0.7,0.3
			c-1.1,0.5-2.9,1.6-4.5,3.1c-1.9,1.8-3,3.8-3,5.6c-1.3,0.1-2.9,1.1-3.9,2.1c-1,1-2.1,2.5-2.2,3.7c-1.9,0.1-4,1-5.9,2.9
			c-1.5,1.5-2.7,3.2-3.3,4.2l-0.4,0.7l0.6-0.5C96.6,102,110,104.4,111.7,106z M94.2,103.4c1.2-1.2,3.1-2.6,5.3-2.6l1,0V100
			c0-0.8,0.8-2.1,1.9-3.1c1.1-1,2.5-1.8,3.3-1.7h1v-0.9c0-2,1.5-3.8,2.7-5c0.3-0.2,0.5-0.5,0.8-0.7c-0.9,2.1-1.3,4.7-1.3,7.6
			c0,2.8,0.4,5.8,1.2,8c-3.8-1.1-10.9-1.9-16.5,0.1C93.7,103.9,93.9,103.7,94.2,103.4z"/>
	</g>
	<g>
		<path  d="M107.4,101.9l0.3,0.1l-0.1-0.3c-0.4-1.2-0.7-2.6-0.7-4.5l0-0.1l-2.1-0.4l0,0.1c-0.1,0.3-0.5,1.1-0.8,1.3
			c0,0-0.1,0.1-0.1,0.1l-0.1,0c0,0,0,0-0.1,0.1c-0.3,0.3-1,0.6-1.4,0.7l-0.1,0l0.4,2h0.1C104.4,101.2,106.1,101.4,107.4,101.9z
			 M103.5,99.8c0.4-0.2,0.8-0.4,1-0.6c0,0,0.1-0.1,0.1-0.1c0,0,0.1-0.1,0.1-0.1l0,0c0.3-0.3,0.6-0.8,0.7-1l0.3,0.1l0,0
			c0,0.7,0.1,1.6,0.2,2.5c-0.8-0.2-1.6-0.3-2.5-0.3L103.5,99.8z"/>
	</g>
	<g>
		<path  d="M111.7,163.2c-1.6,1.6-15.1,3.9-21.3-1.1l-0.6-0.5l0.4,0.7c0.5,1,1.7,2.8,3.3,4.2c1.9,1.8,4,2.8,5.9,2.9
			c0.1,1.2,1.1,2.7,2.2,3.7c1,1,2.6,2,3.9,2.1c0.1,1.8,1.1,3.8,3,5.6c1.5,1.5,3.4,2.6,4.5,3.1l0.7,0.3l-0.5-0.6
			c-2.7-2.9-3.2-7.4-3.2-10.5c0-4.7,1.2-8.8,2-9.6L111.7,163.2z M108.7,173.1c0,2.9,0.4,5.5,1.3,7.6c-0.3-0.2-0.6-0.5-0.8-0.7
			c-1.2-1.2-2.7-3-2.7-5v-0.9h-1c-0.8,0-2.2-0.7-3.3-1.8c-1.1-1-1.9-2.3-1.9-3.1v-0.9l-1,0c-2.1,0-4-1.4-5.3-2.6
			c-0.3-0.2-0.5-0.5-0.8-0.8c5.5,2,12.7,1.2,16.5,0.1C109.2,167.4,108.7,170.4,108.7,173.1z"/>
	</g>
	<g>
		<path  d="M102.6,168l-0.4,2l0.1,0c0.3,0.1,1.1,0.4,1.4,0.7c0,0,0,0,0.1,0.1l0.1,0c0,0,0.1,0.1,0.1,0.1
			c0.3,0.3,0.7,1,0.8,1.3l0,0.1l2.1-0.4V172c0-1.9,0.2-3.4,0.7-4.5l0.1-0.3l-0.3,0.1c-1.3,0.5-3,0.8-4.6,0.8H102.6z M105.8,171.2
			L105.8,171.2l-0.3,0.1c-0.2-0.3-0.4-0.7-0.7-1l0,0c0,0-0.1-0.1-0.1-0.1c0,0,0,0-0.1-0.1c-0.3-0.2-0.6-0.4-1-0.6l0.1-0.3
			c0.9,0,1.7-0.2,2.5-0.3C105.9,169.6,105.9,170.5,105.8,171.2z"/>
	</g>
	<g>
		<path  d="M129.7,159.8c-3.4-3.7-1.8-11.8-0.7-12.7c-1,0.9-9.5,2.5-13.5-0.7c0.3,0.6,1,1.7,2,2.6
			c1,1,2.3,1.8,3.7,1.8c0,0.7,0.6,1.7,1.3,2.4c0.7,0.7,1.7,1.3,2.5,1.3c0,1.3,0.8,2.6,1.9,3.5C128,158.8,129.1,159.5,129.7,159.8z
			 M125.1,153.9c-0.5,0-1.4-0.5-2.1-1.1c-0.7-0.7-1.2-1.5-1.2-2v-0.5l-0.5,0c-1.4,0-2.6-0.9-3.4-1.6c-0.3-0.3-0.5-0.5-0.7-0.8
			c3.5,1.4,8.4,0.9,10.8,0.2c-0.8,2.3-1.3,6.9,0.2,10.2c-0.3-0.2-0.6-0.5-0.8-0.7c-0.8-0.7-1.7-1.9-1.7-3.2v-0.5L125.1,153.9z"/>
	</g>
	<g>
		<path  d="M125.9,152.5c0-0.9,0.1-2,0.4-2.9c-0.9,0.3-2,0.5-2.9,0.5l-0.2,1.1c0.2,0.1,0.7,0.3,0.9,0.5c0,0,0,0,0,0.1
			c0,0,0.1,0.1,0.1,0.1c0.2,0.2,0.5,0.7,0.5,0.9L125.9,152.5z M124.4,151.4C124.4,151.4,124.4,151.4,124.4,151.4
			c-0.2-0.2-0.5-0.3-0.7-0.5l0.1-0.4c0.7,0,1.2-0.1,1.8-0.2c-0.1,0.6-0.2,1.3-0.2,1.8l-0.4,0.1C124.9,151.9,124.7,151.6,124.4,151.4
			C124.5,151.5,124.5,151.4,124.4,151.4z"/>
	</g>
	<g>
		<path  d="M141.6,154c-3.2-9.2-12.3-17.4-22.2-19.5c5.2-1.1,10.3-3.8,14.5-7.8c3.6-3.4,6.2-7.4,7.6-11.6v-5.3
			c-0.5,5.7-3.4,11.5-8.4,16.1c-5.4,5.1-12.2,8-18.6,8v1c12.9,0,26.1,12,27,24.2V154z"/>
	</g>
	<g>
		<path  d="M141.6,145.3c-0.8-1.5-1.8-3-3.1-4.5l1.4-1.3c0.5,0.2,1.1,0.3,1.7,0.4v-1c-0.7-0.1-1.4-0.3-1.9-0.6
			l-2.7,2.5c2.1,2.2,3.8,4.8,4.6,7.3V145.3z"/>
	</g>
	<g>
		<path  d="M138.3,136.8c-0.4-0.7-0.7-1.5-0.7-2.3c0-0.9,0.3-1.7,0.7-2.3l-2.7-2.5c-3.4,2.9-7.5,4.9-11.2,4.9
			c3.7,0,7.8,2,11.2,4.9L138.3,136.8z M135.6,131l1.4,1.3c-0.3,0.7-0.5,1.4-0.5,2.1c0,0.7,0.2,1.5,0.5,2.1l-1.4,1.3
			c-1.9-1.5-3.9-2.7-6-3.5C131.6,133.7,133.7,132.5,135.6,131z"/>
	</g>
	<g>
		<path  d="M141.6,129.2c-0.5,0.1-1,0.2-1.5,0.4l-1.4-1.3c1.2-1.3,2.2-2.7,2.9-4.2v-2.6c-0.9,2.4-2.4,4.8-4.4,6.8
			l2.7,2.5c0.5-0.3,1.1-0.5,1.8-0.6V129.2z"/>
	</g>
	<g>
		<path  d="M104,154.2c1.2,1.2,2.7-0.6,5.4,0.3c2.4,0.8,4.6,4,8.1,3.4c-0.7,3.3,2.7,5.3,3.6,7.6c1,2.6-0.9,4,0.3,5.1
			c0.5,0.4,1.8,0.9,2.5-0.1c-0.4,1.3,1,3.2,2.3,4.5c0.4-0.2,1.1-0.6,1.4-0.8c-3-4.8-3.1-12.3-8.8-17.7c-5.7-5.4-13.7-5.5-18.7-8.3
			c-0.1,0.2-0.5,0.9-0.8,1.3c1.3,1.3,3.4,2.5,4.8,2.2C103,152.5,103.5,153.8,104,154.2z"/>
	</g>
	<g>
		<path  d="M104,161.4c5.8,1.3,9.3-1.2,10.9-2.7c-2.3,0.5-9.5,0.8-12.1-0.2C104.3,159.1,104.2,160.8,104,161.4z"/>
	</g>
	<g>
		<path  d="M113.9,170.6c0.6-0.1,2.4-0.2,3.1,1.1c-1-2.4-0.8-9.2-0.2-11.4C115.2,161.9,112.5,165.2,113.9,170.6z"/>
	</g>
	<g>
		<path  d="M127.7,94.8c-0.3-0.1-1-0.5-1.4-0.8c-1.3,1.3-2.7,3.2-2.3,4.5c-0.7-1-2.1-0.6-2.5-0.1
			c-1.2,1.2,0.6,2.5-0.3,5.1c-0.8,2.3-4.2,4.3-3.6,7.6c-3.5-0.6-5.6,2.6-8.1,3.4c-2.7,0.9-4.2-0.9-5.4,0.3c-0.5,0.4-1,1.7,0.1,2.4
			c-1.3-0.3-3.4,1-4.8,2.2c0.2,0.3,0.7,1,0.8,1.3c5-2.8,13-2.9,18.7-8.3C124.6,107.1,124.7,99.5,127.7,94.8z"/>
	</g>
	<g>
		<path  d="M102.9,110.7c2.5-1,9.7-0.7,12.1-0.2c-1.6-1.5-5.1-4-10.9-2.7C104.2,108.3,104.3,110.1,102.9,110.7z"/>
	</g>
	<g>
		<path  d="M113.9,98.5c-1.4,5.5,1.3,8.8,2.9,10.3c-0.5-2.2-0.8-9,0.2-11.4C116.3,98.7,114.5,98.6,113.9,98.5z"/>
	</g>
	<g>
		<path  d="M25.1,98.5c1-0.9,0.7-2,0.2-2.5c-0.5-0.5-1.5-1-2.2-0.4c-0.7,0.7-0.6,1.5,0,1.7c-2.7-0.9-4.4-9.9-6.4-11.5
			c2.3-2.2,6.2-3.1,8.3-1.5c-1.1-0.1-1.7,1.1-0.7,2.1c1,1,2.2,0.2,2.4-0.8c0.5-2.2-1.6-4-4.1-4.3c-0.7-3.9,0.8-9,4.4-14.1
			c4.8-6.8,12-12.2,18.5-13.9c-0.2,2-0.4,4-0.7,6.1c-1.2,8.9-2.4,18.2,2.6,22.9c1,0.9,2.2,1.4,3.3,1.8c0.2,0.1,0.3,0.1,0.5,0.2
			c-1,0.8-1.3,2-0.8,3c0.7,1.2,2.3,1.6,3.6,0.9c0.4-0.2,0.8-0.5,1-0.9c0.8-1,1.1-2.5-0.6-4c-0.8-0.8-1.9-1.1-2.9-1.5
			c-0.9-0.3-1.8-0.6-2.4-1.2c-4-3.8-2.8-12.8-1.8-20.8c0.7-5.5,1.4-10.7,0.5-14.5c4,0.8,9.5,0.2,15.4-0.5c8.4-1,17.9-2.1,21.9,1.7
			c0.6,0.6,0.9,1.4,1.3,2.2c0.4,1,0.8,1.9,1.6,2.7c1.6,1.6,3.2,1.3,4.3,0.6c0.4-0.2,0.7-0.6,0.9-1c0.7-1.3,0.3-2.8-0.9-3.4
			c-1.1-0.5-2.4-0.2-3.2,0.7c-0.1-0.2-0.1-0.3-0.2-0.5c-0.4-1-0.9-2.2-1.9-3.1c-5-4.7-14.7-3.5-24.1-2.4c-2.1,0.2-4.2,0.5-6.2,0.7
			c1.7-6.2,7.5-13.2,14.8-17.8c5.3-3.4,10.7-4.8,14.9-4.1c0.3,2.3,2.2,4.3,4.5,3.9c1-0.2,1.8-1.3,0.8-2.2c-1-1-2.3-0.4-2.2,0.7
			c-1.7-1.9-0.7-5.7,1.6-7.8c1.6,2,11.2,3.6,12.1,6.1c-0.3-0.5-1.1-0.6-1.8,0c-0.7,0.7-0.1,1.6,0.4,2.1c0.5,0.5,1.7,0.8,2.7-0.1
			c1.4-1.3,0.7-3.1-0.3-4.1c-2.6-2.5-10.8-3.6-13.3-6.9c-0.7,1-3,2.8-4.1,5.9c-4.9-0.8-10.7,0.8-16.7,4.5c-2.4,1.5-4.6,3.3-6.7,5.2
			c-4.8,4.5-8.3,9.9-9.4,14.9c-1.3,0-2.4,0.1-3.5,0c0.9-1.1,0.8-2.7-0.3-3.7c-1.2-1.1-3.1-1.1-4.2,0c-1.2-1.1-3.1-1.1-4.2,0
			c-1.2,1.1-1.2,2.9,0,4c0,0,0,0-0.1,0c-1.2,1.1-1.2,2.9,0,4c1.1,1,2.7,1.1,3.9,0.3c0.1,1,0.1,2,0,3.1c-5.1,1.1-10.7,4.4-15.4,8.9
			c-2,1.9-3.9,4-5.5,6.3c-3.9,5.6-5.6,11.2-4.8,15.8c-3.3,1.1-5.3,3.2-6.3,3.9c3.5,2.4,4.7,10.1,7.2,12.5
			C21.8,99.1,23.8,99.7,25.1,98.5z"/>
	</g>
	<g>
		<path  d="M41.7,229.8c1.2,1.1,3.1,1.1,4.2,0c1.2,1.1,3.1,1.1,4.2,0c1.1-1,1.2-2.6,0.3-3.7c1.1-0.1,2.3-0.1,3.5,0
			c1.2,4.9,4.6,10.3,9.4,14.9c2,1.9,4.3,3.7,6.7,5.2c5.9,3.7,11.8,5.3,16.7,4.5c1.1,3.1,3.4,5,4.1,5.9c2.5-3.3,10.7-4.4,13.3-6.9
			c1-0.9,1.7-2.8,0.3-4.1c-1-0.9-2.1-0.6-2.7-0.1c-0.5,0.5-1.1,1.4-0.4,2.1c0.7,0.7,1.6,0.5,1.8,0c-0.9,2.5-10.5,4.1-12.1,6.1
			c-2.3-2.2-3.3-5.9-1.6-7.8c-0.1,1.1,1.2,1.6,2.2,0.7c1-1,0.2-2-0.8-2.2c-2.3-0.4-4.2,1.5-4.5,3.9c-4.2,0.7-9.5-0.8-14.9-4.1
			c-7.3-4.6-13-11.5-14.8-17.8c2,0.2,4.1,0.4,6.2,0.7c9.4,1.1,19.2,2.3,24.1-2.4c1-0.9,1.5-2.1,1.9-3.1c0.1-0.2,0.1-0.3,0.2-0.5
			c0.8,0.9,2.1,1.3,3.2,0.7c1.2-0.6,1.6-2.2,0.9-3.4c-0.2-0.4-0.6-0.7-0.9-1c-1-0.8-2.6-1-4.3,0.6c-0.8,0.8-1.2,1.8-1.6,2.7
			c-0.3,0.9-0.7,1.7-1.3,2.2c-4,3.8-13.6,2.7-21.9,1.7c-5.8-0.7-11.4-1.3-15.3-0.5c0.9-3.8,0.2-9-0.5-14.5c-1-7.9-2.2-17,1.8-20.8
			c0.6-0.6,1.4-0.9,2.4-1.2c1-0.4,2-0.7,2.9-1.5c1.6-1.6,1.4-3.1,0.6-4c-0.3-0.3-0.6-0.6-1-0.9c-1.4-0.7-3-0.3-3.6,0.9
			c-0.6,1-0.2,2.3,0.8,3c-0.2,0.1-0.3,0.1-0.5,0.2c-1.1,0.4-2.3,0.8-3.3,1.8c-5,4.7-3.7,13.9-2.6,22.9c0.3,2,0.5,4.1,0.7,6.1
			c-6.5-1.7-13.7-7.1-18.5-13.9c-3.5-5.1-5.1-10.1-4.4-14.1c2.5-0.3,4.6-2.1,4.1-4.3c-0.2-1-1.3-1.7-2.4-0.8c-1,1-0.4,2.2,0.7,2.1
			c-2,1.6-6,0.7-8.3-1.5c2.1-1.5,3.8-10.6,6.4-11.5c-0.5,0.3-0.7,1.1,0,1.7c0.7,0.7,1.7,0.1,2.2-0.4c0.5-0.5,0.8-1.6-0.2-2.5
			c-1.3-1.3-3.3-0.6-4.3,0.3c-2.6,2.5-3.8,10.2-7.2,12.5c1,0.6,2.9,2.8,6.3,3.9c-0.8,4.6,0.8,10.2,4.8,15.8c1.6,2.3,3.4,4.4,5.5,6.3
			c4.7,4.5,10.3,7.7,15.4,8.9c0,1.1,0,2.2,0,3.1c-1.2-0.8-2.8-0.8-3.9,0.3c-1.2,1.1-1.2,2.9,0,4c0,0,0,0,0.1,0
			C40.5,226.9,40.5,228.7,41.7,229.8z"/>
	</g>
	<g>
		<path  d="M20.8,105.8c1.1,1.1,3,1.1,4.1,0c1.1-1.1,1.1-2.8,0-3.9c-1.1-1.1-3-1.1-4.1,0
			C19.6,102.9,19.6,104.7,20.8,105.8z M24.2,102.5c0.8,0.7,0.8,1.9,0,2.6c-0.8,0.7-2,0.7-2.7,0c-0.8-0.7-0.8-1.9,0-2.6
			C22.2,101.8,23.5,101.8,24.2,102.5z"/>
	</g>
	<g>
		<path  d="M24.8,167.2c1.1-1.1,1.1-2.8,0-3.9c-1.1-1.1-3-1.1-4.1,0c-1.1,1.1-1.1,2.8,0,3.9
			C21.8,168.3,23.7,168.3,24.8,167.2z M21.4,163.9c0.8-0.7,2-0.7,2.7,0c0.8,0.7,0.8,1.9,0,2.6c-0.8,0.7-2,0.7-2.7,0
			C20.6,165.8,20.6,164.7,21.4,163.9z"/>
	</g>
	<g>
		<path  d="M107.7,245.7c-1.1,1.1-1.1,2.8,0,3.9c1.1,1.1,3,1.1,4.1,0c1.1-1.1,1.1-2.8,0-3.9
			C110.7,244.6,108.9,244.6,107.7,245.7z M111.2,248.9c-0.8,0.7-2,0.7-2.7,0c-0.8-0.7-0.8-1.9,0-2.6c0.8-0.7,2-0.7,2.7,0
			C111.9,247.1,111.9,248.2,111.2,248.9z"/>
	</g>
	<g>
		<path  d="M112.2,23.2c1.1-1.1,1.1-2.8,0-3.9c-1.1-1.1-3-1.1-4.1,0c-1.1,1.1-1.1,2.8,0,3.9
			C109.2,24.2,111.1,24.2,112.2,23.2z M108.8,19.9c0.8-0.7,2-0.7,2.7,0c0.8,0.7,0.8,1.9,0,2.6c-0.8,0.7-2,0.7-2.7,0
			C108,21.8,108,20.6,108.8,19.9z"/>
	</g>
</g>
</svg>
