<?xml version="1.0" encoding="utf-8"?>
<!-- Generator: Adobe Illustrator 19.2.1, SVG Export Plug-In . SVG Version: 6.00 Build 0)  -->
<svg version="1.1" id="Layer_1" xmlns="http://www.w3.org/2000/svg" xmlns:xlink="http://www.w3.org/1999/xlink" x="0px" y="0px"
	 viewBox="0 0 10 18.2" style="enable-background:new 0 0 10 18.2;" xml:space="preserve">
<g>
	<path d="M8.7,10.2c1-1,1.4-2.5,1.3-3.9L9.4,0.5C9.4,0.2,9.2,0,8.9,0H1.1C0.8,0,0.6,0.2,0.6,0.5L0,6.3
		c-0.1,1.4,0.3,2.8,1.3,3.9c0.8,0.9,2,1.5,3.2,1.7v5.3H2.3c-0.3,0-0.5,0.2-0.5,0.5c0,0.3,0.2,0.5,0.5,0.5h5.7c0.2,0,0.5-0.2,0.5-0.5
		c0-0.3-0.2-0.5-0.5-0.5H5.6v-5.3C6.8,11.7,7.9,11,8.7,10.2z M5.1,10.8c-1.2,0-2.3-0.4-3-1.3c-0.7-0.8-1-1.7-1-2.7l0.1-1l0.5-4.7
		h6.9L9,5.8L9,6.9c0,1-0.3,1.9-1,2.7C7.3,10.4,6.2,10.8,5.1,10.8z"/>
</g>
</svg>