<!-- Generator: Adobe Illustrator 19.1.0, SVG Export Plug-In  -->
<svg version="1.1"
	 xmlns="http://www.w3.org/2000/svg" xmlns:xlink="http://www.w3.org/1999/xlink" xmlns:a="http://ns.adobe.com/AdobeSVGViewerExtensions/3.0/"
	 x="0px" y="0px" width="169px" height="321.2px" viewBox="0 0 169 321.2" enable-background="new 0 0 169 321.2"
	 xml:space="preserve">
<defs>
</defs>
<g opacity="0.5">
	<g>
		<g>
			<path d="M121.8,160.6c1.6,0.4,4.9,2.5,6.5,4l1.9-1.4c-0.3-0.5-0.9-2.1-0.8-2.6c-0.1-0.5,0.5-2.2,0.7-2.7l-1.8-1.4
				C126.7,158.1,123.4,160,121.8,160.6z M127.8,160.6c0,0.6,0.2,1.3,0.4,1.9c-0.9-0.7-1.9-1.4-2.9-1.9c1-0.6,2-1.2,2.8-1.9
				C128,159.3,127.8,160,127.8,160.6z"/>
		</g>
		<g>
			<path d="M121.6,236.1c0.4-0.6,0.9-1.2,1.4-1.7c3.8-3.6,10.7-4.7,15.2-2.1c-5.1-2.9-7.1-10.9-4-15.7
				c-0.4,0.6-0.9,1.2-1.4,1.7c-3.7,3.5-10.7,4.7-15.2,2.1C122.7,223.4,124.7,231.2,121.6,236.1z M123.8,227.3
				c-0.4-1.6-1.1-3.1-2-4.4c3.3,0.3,6.9-0.5,9.7-2.3c-0.3,3.2,0.6,6.6,2.4,9.3c-3.3-0.3-6.9,0.5-9.8,2.2
				C124.4,230.5,124.3,228.9,123.8,227.3z"/>
		</g>
		<g>
			<path d="M129.3,225.5l1.1-0.2c-0.3-1.2-0.1-2.5,0.4-3.4c-0.6,0.9-1.7,1.5-3,1.9l0.3,1c0.2,0,0.5,0.1,0.7,0.2
				C129,225.1,129.2,225.3,129.3,225.5z"/>
		</g>
		<g>
			<path d="M129.3,227.2c-0.1,0.2-0.3,0.4-0.5,0.5l0.3,1c1.3-0.2,2.6-0.1,3.6,0.4c-0.9-0.5-1.6-1.6-2-2.8l-1.1,0.2
				C129.5,226.7,129.5,227,129.3,227.2z"/>
		</g>
		<g>
			<path d="M127.9,228.9l-0.3-1c-0.2,0-0.5-0.1-0.7-0.2c-0.2-0.1-0.4-0.3-0.5-0.5l-1.1,0.2c0.2,1.2,0.1,2.5-0.4,3.4
				C125.5,229.9,126.6,229.3,127.9,228.9z"/>
		</g>
		<g>
			<path d="M126.4,225.5c0.1-0.2,0.3-0.4,0.5-0.5l-0.3-1c-1.3,0.2-2.6,0.1-3.6-0.4c0.9,0.5,1.6,1.6,2,2.8l1.1-0.2
				C126.2,226,126.2,225.7,126.4,225.5z"/>
		</g>
		<g>
			<path d="M126.9,225.8c-0.3,0.5-0.2,1.2,0.4,1.5c0.5,0.3,1.2,0.2,1.6-0.4c0.3-0.5,0.2-1.2-0.4-1.5
				C127.9,225.1,127.2,225.3,126.9,225.8z"/>
		</g>
		<g>
			<path d="M118.3,97.2c-0.6,0.6-1.3,1.1-2.1,1.5c5.2-2.8,13.5-0.7,16.5,4.3c-2.5-4.2-1.2-10.6,2.5-14.1
				c0.6-0.6,1.3-1.1,2-1.5c-5.2,2.8-13.5,0.7-16.5-4.3C123.3,87.4,122,93.7,118.3,97.2z M127.9,89.3c1.7,0.4,3.4,0.6,5,0.5
				c-1.9,2.6-2.9,6-2.6,9.2c-2.7-1.8-6.3-2.7-9.7-2.5c1.9-2.6,2.9-6,2.6-9.1C124.6,88.1,126.2,88.8,127.9,89.3z"/>
		</g>
		<g>
			<path d="M128.2,92.3c0.1,0.2,0.2,0.5,0.2,0.7l1.1,0.3c0.4-1.2,1.1-2.3,2.1-2.8c-0.9,0.5-2.3,0.6-3.6,0.3l-0.3,1
				C127.9,91.9,128.1,92,128.2,92.3z"/>
		</g>
		<g>
			<path d="M127.6,94.5c-0.2,0.1-0.5,0.2-0.7,0.2l-0.3,1c1.3,0.4,2.4,1.1,2.9,2c-0.5-0.9-0.6-2.2-0.3-3.4l-1.1-0.3
				C128,94.2,127.8,94.3,127.6,94.5z"/>
		</g>
		<g>
			<path d="M125.2,93.8c-0.1-0.2-0.2-0.5-0.2-0.7l-1.1-0.3c-0.4,1.2-1.1,2.2-2.1,2.8c0.9-0.5,2.3-0.6,3.6-0.3l0.3-1
				C125.5,94.2,125.3,94.1,125.2,93.8z"/>
		</g>
		<g>
			<path d="M123.9,88.5c0.5,0.9,0.6,2.2,0.3,3.4l1.1,0.3c0.1-0.2,0.3-0.4,0.5-0.5c0.2-0.1,0.5-0.2,0.7-0.2l0.3-1
				C125.6,90.1,124.5,89.4,123.9,88.5z"/>
		</g>
		<g>
			<path d="M126.2,92.1c-0.5,0.3-0.7,1-0.4,1.5c0.3,0.5,1,0.7,1.6,0.4c0.5-0.3,0.7-1,0.4-1.5
				C127.4,92,126.7,91.8,126.2,92.1z"/>
		</g>
		<g>
			<path d="M76,29.4c-0.4,0.7-0.9,1.3-1.6,1.9c-3.7,3.5-10.5,4.8-14.9,2.3c5.2,2.8,7.5,10.7,4.5,15.6
				c0.4-0.7,1-1.4,1.6-2c3.7-3.5,10.4-4.7,14.9-2.3C75.2,42.2,73,34.3,76,29.4z M74,38.3c0.5,1.6,1.2,3.1,2.1,4.4
				c-3.3-0.2-6.9,0.6-9.7,2.5c0.3-3.2-0.7-6.5-2.6-9.1c3.3,0.2,6.9-0.7,9.7-2.5C73.3,35,73.5,36.6,74,38.3z"/>
		</g>
		<g>
			<path d="M69.8,36.7l0.3,1c0.2,0,0.5,0,0.7,0.2c0.2,0.1,0.4,0.3,0.5,0.5l1.1-0.3c-0.3-1.2-0.2-2.5,0.3-3.4
				C72.2,35.6,71.1,36.3,69.8,36.7z"/>
		</g>
		<g>
			<path d="M68.5,38.5c0.1-0.2,0.3-0.4,0.5-0.5l-0.3-1c-1.3,0.3-2.6,0.2-3.6-0.3c0.9,0.5,1.7,1.6,2.1,2.8l1.1-0.3
				C68.3,39,68.4,38.7,68.5,38.5z"/>
		</g>
		<g>
			<path d="M68.6,40.3l-1.1,0.3c0.3,1.2,0.2,2.5-0.3,3.4c0.5-0.9,1.7-1.6,2.9-2l-0.3-1c-0.2,0-0.5,0-0.7-0.2
				C68.9,40.7,68.7,40.5,68.6,40.3z"/>
		</g>
		<g>
			<path d="M71.5,40.2c-0.1,0.2-0.3,0.4-0.5,0.5l0.3,1c1.3-0.3,2.6-0.2,3.6,0.3c-0.9-0.5-1.7-1.6-2.1-2.8l-1.1,0.3
				C71.7,39.7,71.6,40,71.5,40.2z"/>
		</g>
		<g>
			<path d="M70.9,39.9c0.3-0.5,0.1-1.2-0.4-1.5c-0.5-0.3-1.2-0.1-1.6,0.4c-0.3,0.5-0.1,1.2,0.4,1.5
				C69.9,40.6,70.6,40.4,70.9,39.9z"/>
		</g>
		<g>
			<path d="M60.2,286.9c-0.5,0.5-1.1,1-1.8,1.3c5.1-2.9,13.5-1,16.6,3.8c-2.7-4.2-1.5-10.8,2.2-14.4
				c0.5-0.5,1.1-1,1.8-1.3c-5.2,3-13.4,1.1-16.6-3.8C65.2,276.8,64,283.4,60.2,286.9z M69.7,278.5c1.7,0.4,3.4,0.5,5.1,0.3
				c-1.8,2.7-2.7,6.1-2.3,9.3c-2.8-1.7-6.4-2.6-9.8-2.3c1.9-2.7,2.7-6.1,2.4-9.2C66.4,277.5,68,278.1,69.7,278.5z"/>
		</g>
		<g>
			<path d="M67.3,283.2c-0.1-0.2-0.2-0.4-0.2-0.7l-1.1-0.2c-0.4,1.2-1.1,2.3-2,2.8c0.9-0.5,2.3-0.6,3.6-0.4l0.3-1
				C67.6,283.5,67.4,283.4,67.3,283.2z"/>
		</g>
		<g>
			<path d="M69.6,283.7c-0.2,0.1-0.5,0.2-0.7,0.2l-0.3,1c1.3,0.4,2.4,1,3,1.9c-0.6-0.9-0.7-2.1-0.4-3.4l-1.1-0.2
				C70,283.4,69.8,283.6,69.6,283.7z"/>
		</g>
		<g>
			<path d="M70.2,281.4c0.1,0.2,0.2,0.4,0.2,0.7l1.1,0.2c0.4-1.2,1.1-2.3,2-2.8c-0.9,0.5-2.3,0.6-3.6,0.4l-0.2,1
				C69.9,281,70.1,281.2,70.2,281.4z"/>
		</g>
		<g>
			<path d="M65.9,277.8c0.6,0.9,0.7,2.1,0.4,3.4l1.1,0.2c0.1-0.2,0.3-0.4,0.5-0.5c0.2-0.1,0.5-0.2,0.7-0.2l0.3-1
				C67.6,279.3,66.4,278.7,65.9,277.8z"/>
		</g>
		<g>
			<path d="M68.2,281.4c-0.5,0.3-0.7,1-0.4,1.5c0.3,0.5,1,0.7,1.6,0.4c0.5-0.3,0.7-1,0.4-1.5
				C69.4,281.2,68.7,281.1,68.2,281.4z"/>
		</g>
		<g>
			<path d="M13.2,235l-0.2,0c-3.2,0-6.5-1.4-9.1-3.9c-2-1.9-3.3-4.2-3.9-6.5l0,2.8c0.8,1.5,1.8,3,3.2,4.3
				c1.9,1.8,4.2,3.1,6.6,3.8c-4.1,1.1-7.9,4.4-9.8,8.1l0,2.6c1.4-5.4,7.2-10.3,13-10.3h0.2V235z"/>
		</g>
		<g>
			<path d="M13.2,85.3H13c-3.2,0-6.5-1.4-9.1-3.9c-2-1.9-3.3-4.1-3.9-6.3l0,2.6c0.8,1.5,1.8,3,3.2,4.3
				c1.9,1.8,4.2,3.1,6.6,3.8c-4.1,1.1-7.9,4.4-9.8,8.1l0,2.8c1.2-5.5,7.1-10.5,13-10.5h0.2L13.2,85.3z"/>
		</g>
		<g>
			<path d="M0,0l0,1.5c1.8,0.3,3.7,1.4,4.6,2.2l1.1,1.1l1.1-1.1C8,2.5,9.9,1.9,12.3,1.9c1.6,0,3.2,0.2,4.7,0.6
				C9,5.3,2.8,12.1,0.4,17.6c-0.1,0-0.3,0-0.4-0.1l0,12.9c1.3,3.2,3.2,6,5.6,8.5c-2.8,3-4.7,5.7-5.6,8.1l0,5.5
				c0.5,1,1.4,1.8,2.6,2.4c1,0.5,2,0.7,3,0.7c-0.3,0.8-0.8,1.7-1.4,2.8l-0.2,0.3C3.3,60.3,3,62,3,63.6c-1.3-2.3-2.4-4.5-3-6.4l0,6.4
				c1.8,3.6,4.5,8.1,7.6,11.7c0.7,1,1.4,1.8,2,2.3l0.1-0.1c6.1,6.1,11.1,12.4,11.1,21.1c0,3.4-0.8,5.9-2.1,7.8
				c0.2-0.7,0.4-1.4,0.4-2.1c0-2.1-1.4-3.4-2.6-4.5c0,0-0.1-0.1-0.1-0.1c0.9-0.2,1.6-1,1.6-1.9c0-1.1-0.9-2-2.1-2
				c-1.1,0-2.1,0.9-2.1,2c0,0.3,0.1,0.6,0.2,0.9c0.2,0.7,0.9,1.3,1.6,2c1.1,1,1.9,2,1.9,3.7c0,2.9-2.6,4.3-6.4,4.3
				c-5.8,0-8.7-1.3-10.1-4.4c1.3,1.9,3.1,3.2,5.4,3.2c2.3,0,4.5-2.6,4.8-2.8c0,0.1-0.1,0.2-0.1,0.4c0,0.9,0.8,1.6,1.7,1.6
				c1,0,1.7-0.7,1.7-1.6c0-0.6-0.3-1-0.8-1.3l0,0c-0.1,0-0.1,0-0.2-0.1c-0.1,0-0.2-0.1-0.3-0.1c-0.1,0-0.3-0.1-0.4-0.1
				c0,0-0.1,0-0.1,0c0,0,0,0,0,0c-1.1-0.1-2.1,0.6-3.1,1.3c-1,0.7-2.1,1.5-3.4,1.4c-2.9-0.3-5.5-3.1-6.4-6.7l0,6.1
				c1.5,3.7,4.7,6.2,11.1,6.2c0.1,0,0.2,0,0.4,0c-0.8,0.4-1.7,0.7-2.5,1.1c-1.1,0.4-2.1,0.8-3.2,1.3c-1.2-0.8-3.4-2.9-3.7-4.2
				c-1,0.8-1.7,1.7-2.1,2.8l0,3.5c0.9-1.3,2.6-2.1,2.1-3.3c0.7,0.5,1.1,1.5,0.9,2.6c-1.2,0.7-2.1,1.5-3,2.4l0,7.1h0.9
				c0-2.6,1.4-4.7,3.8-6.6c1.6,1.4,3.7,4.2,1.9,5.6c0.3-0.7-0.7-1.9-1.8-1.7c-1.3,0.2-1.9,0.7-2.1,1.9c-0.2,1.3,0.8,2.5,2.1,2.8
				c1.3,0.3,3.7-0.2,3.1-2c2.3,3.8,9.5,0.7,12.7,8.4c0,0,1.1-3.4-0.7-6.5c-2.3-3.8-10.3-2.7-12.9-10c0.9-0.5,2-1,3.1-1.4
				c6.7-2.6,16.2-5.9,16.2-16.8c0-0.6,0-1.2-0.1-1.8c2.4-0.7,7.8-0.5,11.3,2.9c1.9,1.8,3,3.6,4.2,5.4c1,1.6,1.9,3.1,3.2,4.3
				c0.8,0.8,3.5,2.7,5.4,3c0.3,1.7,2.3,4.3,3.1,5.1c1.3,1.2,2.9,2.1,4.5,3c1.9,1.1,3.9,2.2,5.7,3.9c3.6,3.4,3.7,8.4,3,10.7
				c-0.6-0.1-1.3-0.1-1.9-0.1c-11.5,0-15,9.1-17.8,15.4c-0.5,1-1,2-1.5,2.9c-7.8-2.4-6.5-10-10.6-12.2c-3.2-1.8-6.9-0.7-6.9-0.7
				c8.1,3,4.8,9.9,8.8,12c-1.9-0.5-2.5,1.7-2.1,3c0.4,1.3,1.6,2.2,3,2c1.3-0.2,1.9-0.8,2-2c0.1-1-1-2-1.8-1.7c1.6-1.7,4.5,0.3,6,1.8
				c-1.9,2.3-4.3,3.7-7,3.7v3.1c2.7,0,5,1.3,7,3.6c-1.5,1.5-4.4,3.5-6,1.8c0.8,0.3,2-0.7,1.8-1.7c-0.2-1.2-0.7-1.8-2-2
				c-1.4-0.2-2.6,0.7-3,2c-0.4,1.2,0.3,3.5,2.1,3c-4,2.1-0.7,9-8.8,12c0,0,3.6,1.1,6.9-0.7c4-2.2,2.8-9.8,10.5-12.2
				c0.5,0.9,1,1.8,1.5,2.9c2.8,6.3,6.2,15.3,17.8,15.3c0.7,0,1.3,0,1.9-0.1c0.7,2.3,0.5,7.3-3,10.7c-1.9,1.8-3.8,2.9-5.7,3.9
				c-1.7,0.9-3.2,1.8-4.5,3c-0.9,0.8-2.8,3.3-3.1,5.1c-1.8,0.3-4.5,2.2-5.4,3c-1.3,1.2-2.2,2.7-3.2,4.3c-1.1,1.8-2.3,3.7-4.2,5.4
				c-3.6,3.4-8.9,3.5-11.3,2.9c0.1-0.6,0.1-1.2,0.1-1.8c0-10.9-9.5-14.2-16.2-16.8c-1.1-0.4-2.1-0.9-3.1-1.4
				c2.6-7.2,10.6-6.1,12.9-9.9c1.9-3.1,0.7-6.5,0.7-6.5c-3.2,7.7-10.4,4.6-12.7,8.4c0.5-1.8-1.8-2.4-3.1-2c-1.3,0.3-2.3,1.5-2.1,2.8
				c0.2,1.3,0.8,1.8,2.1,1.9c1.1,0.1,2.2-1,1.8-1.7c1.7,1.5-0.2,4.2-1.9,5.6c-2.5-1.8-3.9-4-3.9-6.6H0l0,7.1c0.8,0.9,1.8,1.7,3,2.4
				c0.2,1.1-0.2,2-0.9,2.6c0.5-1.2-1.2-2-2.1-3.3l0,3.5c0.4,1.1,1.2,2,2.1,2.8c0.3-1.3,2.4-3.4,3.6-4.2c1,0.5,2.1,0.9,3.2,1.3
				c0.9,0.4,1.8,0.7,2.7,1.1c-0.2,0-0.3,0-0.5,0c-6.4,0-9.6,2.5-11.1,6.2l0,6.1c0.9-3.6,3.5-6.5,6.4-6.7c1.3-0.1,2.4,0.7,3.4,1.4
				c1,0.7,1.9,1.4,3.1,1.3c0,0,0,0,0,0c0,0,0.1,0,0.1,0c0.1,0,0.3,0,0.4-0.1c0.1,0,0.2-0.1,0.3-0.1c0.1,0,0.1,0,0.2-0.1l0,0
				c0.5-0.3,0.8-0.8,0.8-1.3c0-0.9-0.8-1.6-1.7-1.6c-1,0-1.7,0.7-1.7,1.6c0,0.1,0,0.2,0.1,0.4c-0.3-0.2-2.6-2.8-4.8-2.8
				c-2.3,0-4.1,1.3-5.4,3.2c1.4-3,4.4-4.4,10.1-4.4c3.8,0,6.4,1.4,6.4,4.3c0,1.7-0.8,2.7-1.9,3.7c-0.7,0.6-1.3,1.2-1.6,2
				c-0.1,0.3-0.2,0.6-0.2,0.9c0,1.1,0.9,2,2.1,2c1.1,0,2.1-0.9,2.1-2c0-1-0.7-1.7-1.6-1.9c0,0,0.1-0.1,0.1-0.1
				c1.2-1,2.6-2.3,2.6-4.5c0-0.7-0.2-1.5-0.4-2.2c1.3,1.9,2.1,4.4,2.1,7.8c0,8.7-5.1,15-11.1,21.1l-0.1-0.1c-0.6,0.5-1.3,1.3-2,2.4
				c-3,3.5-5.7,8-7.5,11.6l0,6.4c0.6-1.9,1.7-4.1,3-6.4c0,1.7,0.3,3.3,1.1,4.9l0.2,0.3c0.6,1.1,1,2,1.4,2.8c-1,0-2,0.2-3,0.7
				c-1.2,0.6-2.1,1.5-2.6,2.4l0,5.5c0.9,2.3,2.7,5,5.5,8c-2.3,2.5-4.2,5.3-5.5,8.5l0,12.9c0.1,0,0.2,0,0.3-0.1
				c2.4,5.5,8.6,12.4,16.7,15.3c-1.5,0.3-3.1,0.6-4.7,0.6c-2.4,0-4.3-0.6-5.5-1.8l-1.1-1.1l-1.1,1.1c-0.9,0.8-2.8,1.9-4.6,2.2l0,1.5
				c2.2-0.3,4.6-1.6,5.7-2.7c1.8,1.7,4.2,2.2,6.7,2.2c4.2,0,8.7-1.6,10.8-2.3c-10.3-0.8-18.9-9.5-21.5-15.8c0.7-0.7,1.2-1.6,1.2-2.7
				c0-0.9-0.3-1.6-0.8-2.2c1.4,0.5,3-0.2,3.8-1.5c0.8-1.5,0.3-3.3-1.1-4c-0.9-0.5-2.1-0.4-3,0.2c1.1-3.2,3-6.1,5.4-8.6
				c0.2,0.2,0.4,0.4,0.7,0.7c10,9.5,24.8,7.7,33.6,4.2c2.4,1.3,5.1,2.3,7.6,3.1c2.9,1,5.5,1.9,7,3.2c-0.8,0.2-1.4,0.8-1.4,1.5
				c0,0.9,0.8,1.7,1.9,1.7c1.1,0,2-0.7,2.1-1.6c0,0,0-0.1,0-0.1h0c0,0,0-0.1,0-0.1c0-0.2-0.1-0.4-0.2-0.6c-0.9-2.8-4.6-4.1-8.8-5.5
				c-2.1-0.7-4.3-1.5-6.3-2.5c2-0.9,3.6-1.9,4.6-2.9c0.5-0.5,1-1,1.4-1.4c-0.3,1.1-0.1,2.2,0.8,3c1.3,1.2,4.4,1.3,6.9-2
				c1.7-2.3,1.3-5.7,0.4-10.2c-1.2-6-2.7-13.3,1.9-19.5c0.1-0.1,0.2-0.2,0.3-0.3c0.2-0.2,0.3-0.4,0.5-0.6c0.1,0.2,0.2,0.3,0.4,0.5
				c4.8,4.6,14.2,3.5,23.3,2.4c4.2-0.5,8.5-1,11.7-0.8c-0.6,1-0.5,2.4,0.4,3.3c1.1,1.1,2.9,1.1,4,0c1.1,1.1,2.9,1,4,0
				c1.1-1.1,1.1-2.8,0-3.8c0,0,0,0,0.1,0c1.1-1.1,1.1-2.8,0-3.8c-0.9-0.9-2.3-1-3.4-0.4c-0.2-3.1,0.3-7.1,0.8-11.1
				c1.1-8.6,2.3-17.5-2.5-22.1c-0.1-0.1-0.3-0.2-0.5-0.4c0.2-0.1,0.4-0.3,0.5-0.4c0.4-0.3,0.7-0.5,1.1-0.8c6.4-3.9,13.9-2.5,20-1.4
				c4.8,0.9,8.4,1.3,10.8-0.3c3.5-2.4,3.4-5.3,2.1-6.5c-0.8-0.8-2-1-3.2-0.7c0.4-0.4,0.9-0.7,1.3-1.1c0.9-0.9,1.9-2.2,2.8-4
				c1,1.9,1.8,3.9,2.5,5.9c1.5,4,2.9,7.4,5.8,8.3c0.2,0.1,0.4,0.1,0.6,0.2c0,0,0,0,0.1,0v0c0,0,0.1,0,0.1,0c1,0,1.7-0.9,1.7-2
				c0-1.1-0.9-1.9-1.8-1.8c-0.8,0-1.4,0.6-1.6,1.3c-1.4-1.3-2.4-3.8-3.4-6.6c-0.9-2.3-1.8-4.8-3.2-7c3.8-8.3,5.9-22.5-4.3-32.1
				c-0.2-0.2-0.4-0.4-0.6-0.5c2.7-2.3,5.8-4.1,9.3-5.2c-0.6,0.8-0.7,1.9-0.2,2.8c0.8,1.4,2.7,1.9,4.3,1.1c1.4-0.7,2.1-2.3,1.6-3.6
				c0.6,0.5,1.5,0.8,2.4,0.8c1.1,0,2.1-0.4,2.7-1.1c6.6,2.6,15.7,10.7,16.5,20.3c0.7-2,2.4-6.3,2.4-10.3c0-2.4-0.6-4.7-2.3-6.3
				c1.3-1.2,2.9-3.8,2.9-6.1c0-2.3-1.7-4.9-2.9-6.1c1.8-1.7,2.3-3.9,2.3-6.3c0-4-1.7-8.3-2.4-10.3c-0.8,9.8-10.1,17.8-16.7,20.2
				c-0.7-0.5-1.5-0.9-2.5-0.9c-0.9,0-1.7,0.3-2.4,0.8c0.5-1.3-0.2-2.9-1.6-3.6c-1.6-0.8-3.5-0.3-4.3,1.1c-0.5,0.9-0.4,2,0.2,2.8
				c-3.5-1.1-6.5-2.9-9.3-5.2c0.2-0.2,0.4-0.4,0.6-0.6c10.2-9.6,8.1-23.8,4.3-32.1c1.4-2.2,2.3-4.7,3.2-7c1-2.8,2-5.3,3.4-6.6
				c0.2,0.7,0.8,1.3,1.6,1.3c1,0,1.8-0.8,1.8-1.8c0-1.1-0.7-1.9-1.7-2c0,0-0.1,0-0.1,0v0c0,0-0.1,0-0.1,0c-0.2,0-0.4,0.1-0.6,0.2
				c-3,0.9-4.3,4.3-5.8,8.3c-0.7,2-1.5,4-2.5,5.9c-0.9-1.7-1.9-3.1-2.9-4c-0.4-0.4-0.9-0.8-1.3-1.1c1.1,0.3,2.3,0,3.1-0.7
				c1.3-1.2,1.4-4.2-2.1-6.5c-2.4-1.7-6-1.2-10.8-0.3c-6.1,1.1-13.6,2.5-20-1.4c-0.3-0.2-0.7-0.5-1.1-0.8c-0.2-0.1-0.3-0.3-0.5-0.4
				c0.2-0.1,0.4-0.2,0.5-0.4c4.8-4.6,3.7-13.5,2.5-22.1c-0.5-4-1-8-0.8-11.1c1.1,0.6,2.5,0.5,3.4-0.4c1.1-1.1,1.1-2.8,0-3.8
				c0,0,0,0-0.1,0c1.1-1.1,1.1-2.8,0-3.8c-1.1-1.1-2.9-1.1-4,0c-1.1-1.1-2.9-1.1-4,0c-0.9,0.9-1.1,2.2-0.4,3.3
				c-3.2,0.2-7.5-0.3-11.7-0.8c-9.1-1.1-18.5-2.2-23.3,2.4c-0.1,0.1-0.3,0.3-0.4,0.5c-0.2-0.2-0.3-0.4-0.5-0.6
				c-0.1-0.1-0.2-0.2-0.3-0.3c-4.6-6.2-3.1-13.5-1.9-19.5c0.9-4.5,1.4-7.9-0.4-10.2c-2.5-3.3-5.6-3.2-6.9-2c-0.8,0.8-1.1,1.9-0.8,3
				c-0.4-0.5-0.9-1-1.4-1.4c-1-0.9-2.6-1.9-4.6-2.9c2-1,4.2-1.8,6.3-2.5c4.2-1.4,7.8-2.7,8.8-5.5c0.1-0.2,0.2-0.4,0.2-0.6
				c0,0,0-0.1,0-0.1l0,0c0,0,0-0.1,0-0.1c0-0.9-1-1.6-2.1-1.6c-1.1,0-2,0.8-1.9,1.7c0,0.7,0.6,1.3,1.4,1.5c-1.4,1.3-4,2.2-6.9,3.2
				c-2.5,0.8-5.2,1.8-7.6,3.1c-8.8-3.5-23.5-5.3-33.6,4.2c-0.2,0.2-0.4,0.4-0.6,0.6c-2.4-2.6-4.3-5.4-5.4-8.7c0.9,0.5,2,0.6,3,0.2
				c1.5-0.7,2-2.5,1.1-4c-0.8-1.4-2.4-2-3.8-1.5c0.5-0.6,0.8-1.4,0.8-2.2c0-1-0.5-2-1.2-2.6C4.4,12.1,13,3.5,23.2,2.7
				C21.1,2,16.6,0.4,12.3,0.4C9.8,0.4,7.4,1,5.7,2.7C4.6,1.6,2.2,0.3,0,0z M69.7,135.6L69.7,135.6c-1.6-1.5-0.2-7.9-4.9-12.3
				c-2-1.9-4.2-3.1-6-4.2c-1.6-0.9-3.1-1.7-4.2-2.8c-1.3-1.3-2.6-4.2-2.9-5.4c-1.3-0.3-4.3-1.4-5.6-2.7c-1.2-1.1-2-2.5-3-4
				c-1.1-1.8-2.4-3.8-4.4-5.7c-4.6-4.4-11.5-3.4-13-4.7c-0.7-2.7-2-5.2-3.6-7.4c3.8,2.1,7.7,3.7,11.6,5.3
				c6.9,2.8,13.4,5.5,19.3,10.7c-0.6,0.1-1.3,0.2-2.1,0.6c-1.2,0.6-2.1,1.7-2.3,3.1c-0.2,1.3,0.2,2.5,1,3.3c0.8,0.7,1.7,1.1,2.6,1.1
				c0,0.9,0.4,1.7,1.2,2.5c0.8,0.8,2.1,1.1,3.5,0.9c1.4-0.2,2.6-1,3.2-2.2c0.4-0.7,0.5-1.4,0.6-2c5.6,5.6,8.4,11.8,11.4,18.3
				c1.7,3.7,3.4,7.4,5.6,11.1C75.2,137.5,72.6,136.3,69.7,135.6z M65.9,91.9c-0.7,2.4-2.1,4.9-4.3,7.4c-1.9,1.4-3.3,2.1-4.5,2.6
				C57.9,97.6,63,93.5,65.9,91.9z M57.2,99.7c0-1.8,0.4-3.8,1.7-5.1l0.4-0.4l-0.4-0.4c-0.5-0.5-1.3-1.7-1.3-2.7c0-1,0.8-2.1,1.3-2.6
				l0.4-0.4l-0.4-0.4c-1.3-1.2-1.7-3.3-1.7-5.1c1.8,3.9,6.3,7.2,8.9,8.5c0,0,0,0,0,0.1C63.4,92.5,59,95.8,57.2,99.7z M72.6,83.6
				c0-3.6-0.9-7-2.5-9.9c6.2,3.1,14.6,3.1,20.8,0c-1.6,2.8-2.4,6.3-2.4,9.9c0,3.6,0.8,7,2.4,9.8c-3-1.5-6.6-2.3-10.4-2.3
				c-3.8,0-7.4,0.8-10.4,2.3C71.8,90.6,72.6,87.2,72.6,83.6z M75.5,104.2c-0.5,0.5-1.8,1.2-2.8,1.2c-1,0-2.3-0.7-2.8-1.2l-0.4-0.4
				l-0.4,0.4c-1.3,1.2-3.5,1.6-5.4,1.6c4.1-1.7,7.7-5.9,9-8.4c0,0,0,0,0,0c1.4,2.4,4.8,6.7,8.9,8.4c-1.8,0-4-0.3-5.3-1.6l-0.4-0.4
				L75.5,104.2z M63.8,101.7c2.7-2.2,5.4-3.5,8-4.2c-1.7,2.8-6,7.7-10.7,8.4C61.6,104.8,62.4,103.5,63.8,101.7z M56.9,106
				c0.1-0.6,0.1-1.1,0.1-1.7c0.9-0.2,1.9-0.6,3.1-1.3c-0.7,1.2-1.2,2.1-1.4,2.9C58.1,105.9,57.5,105.9,56.9,106z M69.9,110.4
				c0.5-0.5,1.8-1.2,2.8-1.2c1,0,2.3,0.7,2.8,1.2l0.4,0.4l0.4-0.4c1.3-1.2,3.5-1.6,5.3-1.6c-4.2,1.7-7.6,6-9,8.5
				c-1.3-2.5-4.9-6.7-9-8.5c1.9,0,4.1,0.3,5.4,1.6l0.4,0.4L69.9,110.4z M58.3,108.8c0,0.7,0,1.2-0.3,1.8c-0.4,0.7-1.1,0.9-1.5,1
				c-0.6,0.1-1.2-0.1-1.4-0.3c-0.4-0.4-0.9-1.1,0.2-2.2c0.7-0.6,1.9-1.1,3.1-1C58.3,108.4,58.3,108.6,58.3,108.8z M51.3,107.8
				c-0.2-0.2-0.4-0.7-0.3-1.4c0.1-0.4,0.3-1.1,1-1.4c0.7-0.3,1.3-0.4,2.1-0.4c0.2,0,0.3,0,0.5,0c0.2,1.1-0.4,2.3-1,2.9
				C52.4,108.7,51.7,108.2,51.3,107.8z M50,169.8c-0.4-1-0.9-2-1.4-3c0.8-1.1,3.1-3.2,4.4-3.5c-1.7-1.8-3.5-2.7-7.4-2.4
				c1.9,0.6,2.8,2.9,4.2,2.4c-0.6,0.6-1.5,1-2.7,0.8c-0.9-1.4-1.9-2.6-3.3-3.5c1.4-0.9,2.4-2.2,3.4-3.6c1.2-0.2,2.1,0.2,2.6,0.8
				c-1.5-0.5-2.3,1.8-4.2,2.4c4,0.3,5.7-0.6,7.4-2.4c-1.3-0.2-3.6-2.3-4.4-3.4c0.5-1,0.9-1.9,1.3-2.9c0.4-0.8,0.7-1.6,1.1-2.4
				c0,0.1,0,0.1,0,0.2c0,7.3,3.8,10.2,9,11.3c-5.2,1.1-9,3.9-9,11.3c0,0.1,0,0.2,0,0.3C50.7,171.4,50.3,170.6,50,169.8z M67.7,160.6
				c2.3-0.6,4.6-2,6.6-3.8c1.9-1.8,3.3-4,4-6.2c1.4,4.6,5.7,8.7,10.6,10c-2.4,0.6-4.7,1.9-6.6,3.8c-1.9,1.8-3.3,4-4,6.2
				C76.9,166,72.5,161.9,67.7,160.6z M56.8,179.1c0.7,0.2,1.4,0.3,2,0.3c2.3,0,3.6-1.4,4.7-2.4c0,0,0.1-0.1,0.1-0.1
				c0.2,0.9,1,1.5,2,1.5c1.2,0,2.1-0.9,2.1-1.9c0-1.1-0.9-1.9-2.1-1.9c-0.3,0-0.6,0.1-0.9,0.2c-0.8,0.2-1.4,0.8-2.1,1.5
				c-1,1-2.1,1.8-3.9,1.8c-3.1,0-4.6-2.5-4.6-6.1c0-5.5,1.4-8.3,4.6-9.6c-2,1.2-3.4,2.9-3.4,5.1c0,2.1,2.8,4.3,3,4.6
				c-0.1,0-0.3-0.1-0.4-0.1c-1,0-1.7,0.7-1.7,1.6s0.8,1.6,1.7,1.6c0.6,0,1.1-0.3,1.4-0.7l0,0c0-0.1,0-0.1,0.1-0.2
				c0-0.1,0.1-0.2,0.1-0.3c0-0.1,0.1-0.3,0.1-0.4c0,0,0-0.1,0-0.1c0,0,0,0,0,0c0.1-1.1-0.7-2-1.4-2.9c-0.8-1-1.6-2-1.5-3.2
				c0.3-2.8,3.6-5.4,7.6-6.2c0.3,0,0.7,0,1,0c0.2,0,0.4,0,0.7,0c6,1,11.6,6.7,11.6,12.4v0.2h0.9v-0.2c0-3,1.5-6.2,4.2-8.7
				c2.6-2.5,6-3.9,9.1-3.9l0.2,0v-0.9H92c-6.6,0-13.3-6.4-13.3-12.6v-0.2l-0.9,0v0.2c0,3-1.5,6.1-4.2,8.6c-2.3,2.1-5,3.5-7.7,3.9
				c-0.1,0-0.3,0-0.4,0c-0.3,0-0.7,0-1,0c-4-0.8-7.3-3.3-7.6-6.2c-0.1-1.2,0.7-2.2,1.5-3.2c0.7-0.9,1.5-1.8,1.4-2.9l0,0
				c0,0,0-0.1,0-0.1c0-0.1,0-0.3-0.1-0.4c0-0.1-0.1-0.2-0.1-0.3c0-0.1,0-0.1-0.1-0.2l0,0c-0.3-0.4-0.8-0.7-1.4-0.7
				c-1,0-1.7,0.7-1.7,1.6c0,0.9,0.8,1.6,1.7,1.6c0.1,0,0.3-0.1,0.4-0.1c-0.2,0.3-3,2.4-3,4.6c0,2.2,1.4,3.9,3.4,5.1
				c-3.2-1.3-4.6-4.1-4.6-9.6c0-3.6,1.5-6.1,4.6-6.1c1.8,0,2.8,0.8,3.9,1.8c0.7,0.7,1.3,1.3,2.1,1.5c0.3,0.1,0.6,0.2,0.9,0.2
				c1.2,0,2.1-0.9,2.1-1.9c0-1.1-0.9-1.9-2.1-1.9c-1,0-1.8,0.6-2,1.5c0,0-0.1-0.1-0.1-0.1c-1.1-1.1-2.5-2.5-4.7-2.5
				c-0.6,0-1.3,0.1-1.9,0.3c2-1.1,4.5-1.8,7.9-1.8c9.2,0,15.8,4.8,22.2,10.5l0,0c0.4,0.3,0.9,0.8,1.5,1.2c4.3,3.5,10.3,6.8,14.7,8.6
				c-4,1.7-9.5,4.6-13.6,7.7c-1.1,0.7-2,1.4-2.5,1.9l0.1,0.1c-6.4,5.7-13.1,10.5-22.3,10.5C61.3,180.9,58.7,180.2,56.8,179.1z
				 M25.7,227.3c1.5-1.3,8.4-0.3,13-4.7c2-1.9,3.3-3.9,4.4-5.7c0.9-1.5,1.8-2.9,3-4c1.3-1.3,4.3-2.4,5.6-2.7
				c0.2-1.2,1.5-4.1,2.9-5.4c1.2-1.1,2.6-1.9,4.2-2.8c1.9-1.1,4-2.3,6-4.2c4.6-4.4,3.3-10.7,4.9-12.3h0c2.8-0.7,5.4-1.9,7.9-3.4
				c-2.2,3.6-3.9,7.3-5.6,11c-3,6.5-5.8,12.7-11.4,18.3c0-0.6-0.2-1.3-0.6-2c-0.6-1.2-1.8-2-3.2-2.2c-1.3-0.2-2.7,0.1-3.5,0.9
				c-0.8,0.7-1.2,1.6-1.2,2.5c-0.9,0-1.8,0.4-2.6,1.1c-0.8,0.8-1.2,2-1,3.3c0.2,1.4,1.1,2.5,2.3,3.1c0.8,0.4,1.4,0.5,2.1,0.6
				c-5.9,5.3-12.4,7.9-19.3,10.7c-3.9,1.6-7.8,3.2-11.6,5.3C23.7,232.4,25,230,25.7,227.3z M76,211c-0.5,0.5-1.8,1.2-2.8,1.2
				c-1,0-2.3-0.7-2.8-1.2l-0.4-0.4l-0.4,0.4c-1.3,1.2-3.5,1.6-5.4,1.6c4.1-1.7,7.7-6,9-8.5c1.4,2.4,4.8,6.7,9,8.5
				c-1.8,0-4-0.3-5.3-1.6l-0.4-0.4L76,211z M58.3,213c-1.1,0.1-2.4-0.4-3.1-1c-1.1-1.1-0.7-1.8-0.2-2.2c0.2-0.2,0.8-0.4,1.4-0.3
				c0.4,0.1,1.1,0.3,1.5,1c0.3,0.6,0.3,1.1,0.3,1.8C58.3,212.6,58.3,212.8,58.3,213z M58.7,215.2c0.2,0.8,0.7,1.8,1.4,2.9
				c-1.2-0.7-2.2-1.1-3.1-1.3c0.1-0.6,0-1.1-0.1-1.7C57.5,215.3,58.1,215.3,58.7,215.2z M54.6,216.6c-0.2,0-0.3,0-0.5,0
				c-0.8,0-1.4,0-2.1-0.4c-0.8-0.4-1-1-1-1.4c-0.1-0.6,0.1-1.1,0.3-1.4c0.4-0.4,1.2-0.9,2.3,0.2C54.3,214.3,54.8,215.5,54.6,216.6z
				 M10,282.3c-0.3-0.2-0.5-0.5-0.7-0.7c5.9-5.4,13.9-9.5,21.5-13.3c6.7-3.4,12.9-6.5,16.6-10.2c-1.6,3.7-4.3,6.8-6.9,9.7
				c-3.5,4-6.4,7.4-5.9,11.3c0.4,3.3,1.9,5.6,3.9,7.4C30.5,289.3,18.3,290.2,10,282.3z M55.6,274.7c0.8,3.7,1.4,7,0.2,8.6
				c-0.1-0.6-0.4-1.1-0.8-1.5c-1.1-1-2.8-1.1-4.2-0.3c2.9-4.2,3-8.1,3.2-11.9c0.1-1.4,0.1-2.9,0.3-4.3
				C54.4,268.6,55,271.8,55.6,274.7z M50.8,269.4c-0.2,4.7-0.4,8.8-5.4,13.5c-1,1-3,2.1-5.4,3.1c-2.1-1.6-3.6-3.8-4-7
				c-0.4-3.3,2.4-6.5,5.6-10.2c3.4-3.9,7.5-8.6,8.5-14.7c0.5-1.1,0.7-2.3,0.7-3.5c0-6.2-3.4-10-6.3-12.1c-3.3-2.4-7.8-3.8-12.1-3.8
				c-5.6,0-9.2,3.2-9.2,6.1c0,1.7,1.7,3.2,3.8,3.2c2.1,0,3.8-1.4,3.9-3.2c0-1.5-1.2-2.7-2.8-3.1c1.3-0.5,2.8-0.7,4.3-0.7
				c3.7,0,7.7,1.3,10.6,3.4c2.4,1.8,5.4,5,5.4,10.3c0,6.2-8.8,10.6-18.9,15.7c-7.4,3.7-15.7,7.9-21.9,13.6c-2.7-2.9-4-5-4.6-6.5
				c1,0,2.1-0.2,3.1-0.7c0.9-0.4,1.6-1,2.2-1.7c0.1,0,0.1-0.1,0.2-0.1c0.1-0.1,0.2-0.2,0.3-0.3c1.7-2.2,0-5.9-1.8-9.2l-0.2-0.3
				c-2.2-4.1,0.7-10,3.2-13.4c0.5-0.6,1.1-1.2,1.6-1.7c1.7-1.7,3.5-3.4,5.2-5.2c5.6-4.4,11.7-6.9,17.7-9.3
				c6.4-2.6,13.1-5.3,19.1-10.4c-2.1,4.9-9,9-10.1,9c1.3,0,10.3,5.5,10.7,11.3c0.6-1.6,0.9-6.1-1.4-8.3c0.6-0.6,1.5-1.9,1.5-3
				c0-1.2-0.8-2.5-1.5-3c1.8-1.7,2-4.8,1.7-6.8c0.3-0.3,0.7-0.6,1-0.9c0.2-0.2,0.3-0.3,0.5-0.5c0.3,0.1,0.6,0.2,0.9,0.3
				c-0.5,1.8-0.7,5.8,1.5,7.9c-0.6,0.6-1.5,1.9-1.5,3c0,1.2,0.8,2.4,1.5,3c-2.3,2.2-2,6.7-1.4,8.3c0.4-4.7,6.2-9.1,9.2-10.7
				c1.2,6.7-2.2,12.7-5.7,17.5c-0.7-1.8-1.2-3-1.9-3.7c-1.1-1-2.2-1.3-3.1-1.2c-0.1,0-0.1,0-0.2,0c0,0,0,0,0,0
				c-0.5,0.1-1,0.3-1.4,0.7c0,0-0.1,0.1-0.1,0.1l0,0c-0.1,0.2-0.3,0.3-0.4,0.5c-0.7,1.2-0.3,2.7,0.9,3.3c0.9,0.4,1.9,0.3,2.6-0.3
				c0.3,0.6,0.6,1.4,0.8,2c0.2,0.5,0.3,0.9,0.5,1.3c-0.5,0.6-1,1.1-1.4,1.6C51.3,259.2,51.1,264.6,50.8,269.4z M54.1,221.7
				c0,1.8-0.4,3.8-1.7,5.1l-0.4,0.4l0.4,0.4c0.5,0.5,1.3,1.7,1.3,2.7c0,1-0.8,2.1-1.3,2.6l-0.4,0.4l0.4,0.4c1.3,1.2,1.7,3.3,1.7,5.1
				c-1.8-3.9-6.3-7.3-8.9-8.6C47.7,228.9,52.3,225.6,54.1,221.7z M70.4,217.1c0.5-0.5,1.8-1.2,2.8-1.2c1,0,2.3,0.7,2.8,1.2l0.4,0.4
				l0.4-0.4c1.3-1.2,3.5-1.6,5.3-1.6c-4.1,1.7-7.6,6-8.9,8.4c0,0,0,0,0,0c-1.4-2.5-4.9-6.7-9-8.4c1.9,0,4.1,0.3,5.4,1.6l0.4,0.4
				L70.4,217.1z M65.9,229.4c-3-1.7-8.1-5.7-8.7-10.1c1.1,0.4,2.5,1.2,4.4,2.5C63.8,224.4,65.2,226.9,65.9,229.4z M70.2,227.8
				c6.2,3.1,14.6,3.1,20.8,0c-1.6,2.8-2.4,6.3-2.4,9.9c0,3.6,0.9,7,2.4,9.8c-3-1.5-6.6-2.3-10.4-2.3c-3.8,0-7.4,0.8-10.4,2.3
				c1.6-2.8,2.4-6.2,2.4-9.8C72.6,234,71.8,230.6,70.2,227.8z M66.1,230.1c0,0,0,0.1,0,0.1c-2.6,1.3-7,4.6-8.8,8.5
				c0-1.8,0.4-3.8,1.7-5.1l0.4-0.4l-0.4-0.4c-0.5-0.5-1.3-1.7-1.3-2.6c0-1,0.7-2.1,1.3-2.7l0.4-0.4l-0.4-0.4
				c-1.3-1.2-1.7-3.3-1.7-5.1C59.1,225.6,63.5,228.8,66.1,230.1z M96.3,220.3c3.7,3.5,2.6,12.1,1.6,19.6c-0.7,5.1-1.3,9.9-0.6,13.5
				c-3.8-0.7-9-0.1-14.3,0.5c-7.9,0.9-17,2-20.7-1.6c-0.2-0.1-0.3-0.5-0.5-0.8c4.4-5.4,9.5-13.3,7.4-22.2c1.2,2.4,1.8,5.3,1.8,8.2
				c0,5-1.8,9.7-5,12.7l1.1,1.1c3.2-3,8.1-4.7,13.4-4.7c5.3,0,10.2,1.7,13.4,4.7l1.1-1.1c-3.2-3-5-7.6-5-12.7c0-5.1,1.8-9.7,5-12.7
				l-0.6-0.5l0.8,0h-0.8l-0.5-0.5c-5.4,5.1-15.5,6.1-22.6,2.8c9.6,2.3,18.2-2.7,24-6.9C95.9,220,96.2,220.1,96.3,220.3z
				 M127.5,213.2c0.5,0.4,1,0.7,1.6,0.8c-1.7,1.1-5.2,0.5-9.1-0.2c-2.7-0.5-5.8-1-8.9-1.2c1.1-0.1,2.1-0.1,3.2-0.2
				c4.1-0.2,8.3-0.3,12.7-3.1C126.3,210.6,126.4,212.2,127.5,213.2z M127.9,170.8c8.4,7.9,7.3,19.7,4.4,27.2c-1.9-2-4.4-3.4-7.9-3.8
				c-4.2-0.5-7.8,2.4-12,5.6c-2.9,2.3-6.1,4.8-9.9,6.4c3.9-3.5,7.2-9.4,10.8-15.8c4-7.1,8.2-14.6,13.9-20.2
				C127.5,170.4,127.7,170.6,127.9,170.8z M125.5,168.7c-6,5.9-10.4,13.7-14.3,20.6c-5.4,9.6-10.1,17.9-16.6,17.9
				c-5.6,0-9-2.8-10.9-5.1c-2.2-2.8-3.6-6.5-3.6-10.1c0-1.4,0.2-2.8,0.8-4c0.4,1.5,1.7,2.6,3.2,2.6c1.9,0,3.4-1.6,3.4-3.6
				c0-2-1.5-3.6-3.3-3.6c-3.1,0-6.4,3.4-6.4,8.7c0,4,1.5,8.3,4,11.4c2.2,2.7,6.2,6,12.7,6c1,0,2-0.1,2.9-0.4
				c6.6-0.9,11.7-4.8,15.9-8.1c3.9-3.1,7.3-5.7,10.8-5.3c3.4,0.4,5.7,1.9,7.4,3.9c-1,2.2-2.1,3.9-3.1,4.8c-4.9,4.7-9.3,4.9-14.3,5.1
				c-5.1,0.2-10.8,0.4-17.6,5.7c-0.5,0.4-1.1,0.8-1.7,1.3c-0.5-0.2-0.9-0.3-1.4-0.5c-0.6-0.2-1.4-0.5-2.1-0.7
				c0.7-0.7,0.9-1.8,0.4-2.6c-0.6-1.1-2.2-1.5-3.5-0.8c-0.2,0.1-0.5,0.3-0.6,0.5l0,0c-1.1,1-1.6,2.8,0.3,4.6c0.7,0.7,2,1.2,4,1.8
				c-4.9,3.3-11.2,6.6-18.2,5.5c1.7-2.8,6.4-8.3,11.3-8.7c-1.7-0.5-6.4-0.9-8.8,1.4c-0.6-0.6-2-1.4-3.2-1.4c-1.2,0-2.6,0.8-3.2,1.4
				c-2.3-2.2-7.1-1.9-8.8-1.4c4.8,0.4,9.4,5.5,11.2,8.4c-2.8-0.6-5.6-2-8.5-4.3c-1.9-2.3-2.6-3.9-3-5c0.2-0.1,0.4-0.3,0.6-0.5
				c0.3-0.3,0.6-0.7,1-1c2.1,0.3,5.6,0.2,7.5-1.6c0.6,0.6,2,1.4,3.2,1.4c1.2,0,2.6-0.8,3.2-1.4c2.3,2.2,7.1,1.9,8.8,1.4
				c-6.2-0.5-12-8.9-12-10.2c0,1.1-4.7,8.1-10.2,9.8c5.4-5.7,8.3-12.1,11.1-18.3c2.6-5.6,5.2-11.4,9.8-16.7c1.9-1.7,3.7-3.4,5.5-4.9
				c0.6-0.5,1.2-1,1.8-1.5c3.6-2.4,9.8-5.1,14.2-3l0.3,0.2c3.5,1.7,7.4,3.3,9.8,1.7c0.1-0.1,0.2-0.2,0.4-0.3c0,0,0.1-0.1,0.1-0.2
				c0.7-0.5,1.3-1.2,1.8-2.1c0.5-1,0.8-2,0.7-2.9C120.1,164.8,122.4,166.1,125.5,168.7z M166.3,143.7c0.4,1.4,0.6,3,0.6,4.5
				c0,2.3-0.6,4.1-1.9,5.3l-1.1,1.1l1.1,1.1c1,0.9,2.5,3.2,2.5,5c0,1.9-1.5,4.1-2.5,5l-1.1,1.1l1.1,1.1c1.2,1.2,1.9,2.9,1.9,5.2
				c0,1.5-0.3,3-0.6,4.4c-3-7.6-10.1-13.4-15.9-15.7c0.1-0.3,0.2-0.7,0.2-1.1c0-0.5-0.1-0.9-0.3-1.3
				C156.1,157,163.3,151.2,166.3,143.7z M138.8,160.6c-4.2,1.2-7.8,3.3-10.9,6c-4.8-4.1-9-6.1-12.1-5.8c0,0,0,0-0.1,0
				c-1.7-0.2-3.7,1-4.8,3c-0.5,0.9-0.7,1.9-0.7,2.8c-0.8-0.3-1.8-0.7-3-1.3l-0.4-0.2c-1.6-0.8-3.4-1.1-5.1-1c3.9-2,7.7-3.5,10.2-3.5
				c-2.5,0-6.3-1.5-10.3-3.6c1.8,0.1,3.6-0.2,5.3-1l0.4-0.2c1.2-0.6,2.2-1,3-1.3c0,0.9,0.2,1.9,0.7,2.8c1.1,2,3,3.2,4.8,3
				c0,0,0,0,0.1,0c3.1,0.3,7.2-1.7,12.1-5.8C131,157.3,134.6,159.4,138.8,160.6z M127.9,150.4c-0.2,0.2-0.4,0.4-0.7,0.6
				c-5.7-5.6-9.9-13.1-13.9-20.2c-3.6-6.5-7-12.4-10.9-15.8c3.8,1.6,7,4.1,9.9,6.4c4.2,3.3,7.8,6.1,12,5.6c3.5-0.4,6-1.8,7.9-3.8
				C135.2,130.7,136.3,142.5,127.9,150.4z M129.1,107.2c-0.6,0.1-1.2,0.4-1.6,0.8c-1.1,1-1.2,2.6-0.4,3.9c-4.4-2.8-8.6-3-12.7-3.1
				c-1.1,0-2.2-0.1-3.2-0.2c3.1-0.1,6.1-0.7,8.9-1.2C124,106.7,127.4,106.1,129.1,107.2z M88,104.5c-1.9,1.8-1.4,3.5-0.3,4.6l0,0
				c0.2,0.2,0.4,0.3,0.6,0.5c1.3,0.7,2.9,0.3,3.5-0.8c0.5-0.8,0.3-1.9-0.4-2.6c0.7-0.3,1.5-0.5,2.1-0.7c0.5-0.2,1-0.3,1.4-0.5
				c0.6,0.4,1.1,0.9,1.6,1.3c6.8,5.2,12.6,5.5,17.6,5.7c5,0.2,9.3,0.4,14.3,5.1c1,0.9,2.1,2.6,3.1,4.8c-1.7,2-4.1,3.5-7.4,3.9
				c-3.5,0.4-6.9-2.2-10.8-5.3c-4.3-3.3-9.4-7.3-16.1-8.1c-0.8-0.2-1.7-0.3-2.6-0.3c-6.6,0-10.6,3.2-12.7,6c-2.5,3.1-4.1,7.4-4,11.4
				c0,5.3,3.3,8.7,6.4,8.7c1.8,0,3.3-1.6,3.3-3.6c0-2-1.5-3.6-3.4-3.6c-1.5,0-2.8,1.1-3.2,2.6c-0.5-1.2-0.8-2.7-0.8-4.1
				c0-3.5,1.3-7.3,3.6-10.1c1.9-2.3,5.3-5.1,10.9-5.1c6.6,0,11.2,8.3,16.6,17.9c3.9,6.9,8.3,14.7,14.3,20.6c-3.1,2.6-5.4,3.9-7,4.5
				c0-0.9-0.2-2-0.7-2.9c-0.5-0.9-1.1-1.6-1.8-2.1c0,0-0.1-0.1-0.1-0.2c-0.1-0.1-0.2-0.2-0.4-0.3c-2.3-1.7-6.3,0-9.8,1.7l-0.3,0.2
				c-4.7,2.2-11.7-1.2-15-3.7c-0.3-0.3-0.6-0.5-0.9-0.8c-1.6-1.5-3.3-3.1-5.1-4.7c-4.8-5.4-7.5-11.4-10.1-17.1
				c-2.7-6-5.5-12.2-10.7-17.8c5,2.2,9.2,8.4,9.2,9.4c0-1.2,5.8-9.7,12-10.2c-1.7-0.5-6.4-0.9-8.8,1.4c-0.6-0.6-2-1.4-3.2-1.4
				c-1.2,0-2.6,0.8-3.2,1.4c-1.8-1.7-4.8-1.9-7-1.7c-0.3-0.3-0.6-0.7-1-1c-0.2-0.2-0.4-0.3-0.6-0.5c0.1-0.2,0.1-0.5,0.2-0.7
				c1.9,0.5,6.2,0.6,8.3-1.5c0.6,0.6,2,1.4,3.2,1.4c1.2,0,2.6-0.8,3.2-1.4c2.3,2.2,7.1,1.9,8.8,1.4c-5-0.4-9.7-5.9-11.4-8.7
				c7.1-1.3,13.7,2,18.7,5.4C90,103.3,88.8,103.8,88,104.5z M83.1,67.2c5.3,0.6,10.5,1.2,14.3,0.5c-0.7,3.6-0.1,8.5,0.6,13.5
				c1,7.5,2.1,16-1.6,19.6c-0.2,0.2-0.5,0.3-0.9,0.5c-5.8-4.2-14.5-9.3-24-6.9c2.7-1.3,5.8-1.9,9.2-1.9c5.3,0,10.2,1.7,13.4,4.7
				l1.1-1.1c-3.2-3-5-7.6-5-12.7c0-5.1,1.8-9.7,5-12.7l-0.6-0.5l0.8,0l-0.8,0L94,69.8c-6.6,6.3-20.2,6.3-26.8,0l-1.1,1.1
				c3.2,3,5,7.6,5,12.7c0,3-0.7,5.8-1.8,8.3c2.2-8.8-3-16.8-7.4-22.3c0.2-0.4,0.4-0.7,0.5-0.8C66.1,65.2,75.2,66.3,83.1,67.2z
				 M55.6,46.5c-0.6,2.9-1.2,6.1-1.3,9.5c-0.2-1.4-0.3-2.9-0.3-4.3c-0.2-3.8-0.4-7.8-3.2-11.9c1.4,0.8,3.1,0.7,4.2-0.3
				c0.5-0.4,0.7-1,0.8-1.5C57,39.5,56.4,42.7,55.6,46.5z M45.5,38.2c5,4.7,5.1,8.8,5.4,13.5c0.2,4.8,0.5,10.3,6,16.7
				c0.4,0.5,0.9,1.1,1.4,1.6c-0.2,0.4-0.3,0.9-0.5,1.4c-0.2,0.6-0.5,1.4-0.8,2c-0.8-0.6-1.8-0.7-2.6-0.3c-1.2,0.6-1.6,2.1-0.9,3.3
				c0.1,0.2,0.2,0.3,0.4,0.5l0,0c0,0,0.1,0.1,0.1,0.1c0.4,0.4,0.9,0.6,1.4,0.7c0,0,0,0,0,0c0.1,0,0.1,0,0.2,0c0.9,0.1,2-0.1,3.1-1.2
				c0.7-0.7,1.2-1.9,1.9-3.7c3.6,4.8,7,10.9,5.7,17.6c-3-1.6-8.8-6-9.2-10.7c-0.6,1.6-0.9,6.1,1.4,8.3c-0.6,0.6-1.5,1.9-1.5,3
				c0,1.2,0.8,2.5,1.5,3.1c-2.1,2-2,5.9-1.6,7.8c-0.3,0.1-0.5,0.2-0.8,0.2c-0.1-0.2-0.3-0.4-0.5-0.5c-0.3-0.3-0.7-0.6-1-0.9
				c0.2-2,0-4.9-1.8-6.6c0.6-0.6,1.5-1.9,1.5-3c0-1.2-0.8-2.5-1.5-3c2.3-2.2,2-6.7,1.4-8.3c-0.5,5.9-9.4,11.3-10.7,11.3
				c1.1,0,7.6,3.9,9.9,8.6c-5.9-4.9-12.4-7.5-18.8-10.1c-6-2.4-12.1-4.9-17.7-9.3c-1.8-1.8-3.5-3.5-5.2-5.1c-0.5-0.5-1-1.1-1.6-1.7
				c-2.5-3.4-5.4-9.3-3.2-13.4l0.2-0.3c1.8-3.3,3.5-7,1.8-9.2c-0.1-0.1-0.2-0.2-0.3-0.3c0,0-0.1-0.1-0.2-0.1
				c-0.5-0.7-1.3-1.3-2.2-1.7c-1-0.5-2.1-0.7-3.1-0.7C3.7,46.2,5,44,7.8,41.1C14,46.8,22.3,51,29.7,54.7
				c10.1,5.1,18.9,9.5,18.9,15.7c0,5.3-2.9,8.5-5.4,10.3c-2.9,2.1-6.9,3.4-10.6,3.4c-1.5,0-3-0.2-4.3-0.7c1.6-0.4,2.8-1.6,2.8-3.1
				c0-1.8-1.7-3.2-3.9-3.2c-2.1,0-3.8,1.4-3.8,3.2c0,2.9,3.6,6.1,9.2,6.1c4.2,0,8.8-1.4,12.1-3.8c2.9-2.1,6.3-5.8,6.3-12.1
				c0-1.3-0.3-2.5-0.8-3.6c-1.1-6-5.1-10.6-8.5-14.4c-3.2-3.7-6-6.9-5.6-10.2c0.4-3.1,1.9-5.3,4-7C42.5,36.2,44.4,37.3,45.5,38.2z
				 M54,99.7c-1.8-3.9-6.3-7.3-8.9-8.5c2.6-1.3,7.1-4.6,8.9-8.5c0,1.8-0.4,3.8-1.7,5.1l-0.4,0.4l0.4,0.4c0.5,0.5,1.3,1.7,1.3,2.6
				c0,1-0.8,2.1-1.3,2.7l-0.4,0.4l0.4,0.4C53.7,95.8,54,97.9,54,99.7z M38.4,34.6c-2,1.8-3.5,4.1-3.9,7.4c-0.5,4,2.5,7.4,5.9,11.3
				c2.5,2.8,5.1,5.9,6.8,9.4c-3.7-3.6-9.8-6.7-16.5-10.1c-7.5-3.8-15.5-7.8-21.4-13.2c0.2-0.2,0.4-0.4,0.7-0.6
				C18.3,31,30.5,31.9,38.4,34.6z"/>
		</g>
		<g>
			<path d="M154,160.6c1.6,0.5,4.9,2.5,6.5,4l1.8-1.5c-0.2-0.4-0.7-1.7-0.7-2.3c0-0.1,0-0.1,0-0.2c0-0.1,0-0.1,0-0.2
				c0-0.6,0.4-1.9,0.7-2.3l-1.8-1.5C158.9,158,155.6,160.2,154,160.6z M160,160.4c0,0.1,0,0.1,0,0.2c0,0.1,0,0.1,0,0.2
				c0,0.5,0.1,1.1,0.3,1.7c-0.8-0.6-1.8-1.3-2.8-1.9c1-0.6,2-1.2,2.8-1.9C160.1,159.3,160,159.9,160,160.4z"/>
		</g>
		<g>
			<path d="M152.6,185.2L152.6,185.2c-4.1,0-5.1,5.2-5.1,6.8c1.9,0,7.1-0.8,7.1-5v0c4.5,0,5.3-5.3,5.3-6.7
				C158.5,180.4,152.6,181,152.6,185.2z M153.3,187.1c0,2.6-2.8,3.5-4.5,3.8c0.4-1.7,1.4-4.5,3.8-4.5l0.7,0L153.3,187.1z M154.5,186
				l-0.7,0v-0.7c0-0.8,0.3-1.5,0.9-2.1c1-0.9,2.6-1.4,3.8-1.6C158.2,183.3,157.3,186,154.5,186z"/>
		</g>
		<g>
			<path d="M154.7,204.9c-0.4-3.8-6-4.4-7.7-4.2c0.2,1.8,1.6,6.6,6,6.2c0.4,4.3,6.1,4.5,7.5,4.4
				C160.4,210,159.2,204.5,154.7,204.9z M148.5,201.8c0.8,0.1,1.7,0.2,2.5,0.5c1.6,0.6,2.5,1.5,2.6,2.7l0.1,0.7l-0.7,0.1
				C150.1,206,149,203.4,148.5,201.8z M159.1,210.1c-1.8-0.1-4.7-0.7-4.9-3.3l-0.1-0.7l0.7-0.1c0.9-0.1,1.6,0.1,2.2,0.6
				C158.1,207.4,158.8,208.9,159.1,210.1z"/>
		</g>
		<g>
			<path d="M156.1,195.4c-3.1-3-7.4-0.1-8.8,1.2c1.2,1.2,5.9,4.1,8.8,1.4c3.2,3,7.8-0.5,8.8-1.4
				C163.8,195.6,159.3,192.4,156.1,195.4z M155.8,196.7l-0.5,0.5c-0.9,0.8-2.2,1-3.8,0.5c-0.9-0.3-1.7-0.7-2.3-1.1
				c0.6-0.4,1.4-0.8,2.2-1.1c1.6-0.5,2.8-0.3,3.8,0.7L155.8,196.7z M159.1,198c-0.8,0-1.5-0.3-2.2-0.9l-0.5-0.5l0.5-0.5
				c1.9-1.8,4.6-0.5,6,0.4C162,197.3,160.5,198,159.1,198z"/>
		</g>
		<g>
			<path d="M144.1,183.8c0.9-0.9,1.3-1.9,1.3-2.8c0-2.4-2.1-4.8-2.7-5.5c-0.7,0.7-2.6,3-2.6,5.3c0,1,0.4,2.1,1.3,3
				c-1,0.9-1.4,2-1.4,3c0,2.2,1.7,4.4,2.6,5.3c0.9-0.8,2.7-3.2,2.7-5.5C145.3,185.6,145,184.6,144.1,183.8z M142.2,183
				c-0.7-0.6-1-1.3-1-2.2c0-1.3,0.7-2.6,1.4-3.5c0.7,1,1.5,2.4,1.5,3.7c0,0.8-0.3,1.5-0.9,2l-0.5,0.5L142.2,183z M142.6,190.3
				c-0.7-0.9-1.4-2.2-1.4-3.5c0-0.9,0.3-1.6,1-2.2l0.5-0.5l0.5,0.5c0.6,0.5,0.8,1.2,0.8,2C144.1,187.9,143.3,189.3,142.6,190.3z"/>
		</g>
		<g>
			<path d="M147.5,129.3c0,1.7,1.1,6.8,5.1,6.8v0c0,4.2,5.9,4.9,7.2,4.9c0-1.4-0.8-6.7-5.3-6.7l0,0
				C154.5,130.2,149.3,129.3,147.5,129.3z M158.5,139.8c-1.3-0.2-2.9-0.7-3.8-1.6c-0.6-0.6-0.9-1.2-0.9-2.1v-0.7h0.7
				C157.3,135.5,158.2,138.2,158.5,139.8z M153.3,134.3l0,0.7h-0.7c-2.4,0-3.4-2.7-3.8-4.5C150.5,130.9,153.3,131.7,153.3,134.3z"/>
		</g>
		<g>
			<path d="M153,114.6c-4.4-0.4-5.8,4.4-6,6.2c1.7,0.2,7.3-0.4,7.7-4.2c4.5,0.4,5.7-5.1,5.8-6.3
				C159.1,110.1,153.4,110.3,153,114.6z M153.6,116.4c-0.1,1.2-1,2.1-2.6,2.6c-0.8,0.3-1.7,0.5-2.5,0.5c0.5-1.6,1.6-4.2,4.4-3.9
				l0.7,0.1L153.6,116.4z M157.1,114.8c-0.7,0.5-1.4,0.7-2.2,0.6l-0.7-0.1l0.1-0.7c0.3-2.6,3.2-3.2,4.9-3.3
				C158.8,112.5,158.1,114,157.1,114.8z"/>
		</g>
		<g>
			<path d="M156.1,123.5c-2.9-2.7-7.5,0.2-8.8,1.4c1.3,1.3,5.6,4.1,8.8,1.2c3.2,3,7.7-0.2,8.8-1.2
				C163.9,124,159.3,120.5,156.1,123.5z M155.8,124.7l-0.5,0.5c-1,1-2.3,1.2-3.8,0.7c-0.8-0.3-1.6-0.7-2.2-1.1
				c0.6-0.4,1.4-0.8,2.3-1.1c1.6-0.5,2.9-0.4,3.8,0.5L155.8,124.7z M157,125.2l-0.5-0.5l0.5-0.5c0.6-0.6,1.3-0.9,2.2-0.9
				c1.4,0,2.8,0.7,3.9,1.4C161.6,125.8,158.9,127.1,157,125.2z"/>
		</g>
		<g>
			<path d="M141.4,137.6c-1,0.9-1.3,2-1.3,3c0,2.3,1.9,4.6,2.6,5.3c0.7-0.6,2.7-3,2.7-5.5c0-1-0.3-2-1.3-2.8
				c0.9-0.8,1.2-1.8,1.2-2.8c0-2.3-1.8-4.7-2.7-5.5c-0.9,0.9-2.6,3-2.6,5.3C140,135.6,140.4,136.7,141.4,137.6z M143.3,138.4
				c0.6,0.6,0.9,1.2,0.9,2c0,1.3-0.8,2.7-1.5,3.7c-0.7-0.9-1.4-2.2-1.4-3.5c0-0.8,0.3-1.6,1-2.2l0.5-0.5L143.3,138.4z M142.6,131.1
				c0.7,1,1.5,2.4,1.5,3.8c0,0.8-0.3,1.4-0.8,2l-0.5,0.5l-0.5-0.5c-0.7-0.6-1-1.4-1-2.2C141.2,133.3,141.9,132,142.6,131.1z"/>
		</g>
		<g>
			<path d="M20,9C20,9,20,9,20,9c0,1.3,0.7,6.8,5.2,6.8c0,3.8,5.5,4.9,7.2,4.9c0-1.8-0.9-6.7-5.3-6.7
				C27.1,9.7,21.5,9,20,9z M30.4,17.2c0.4,0.7,0.6,1.5,0.7,2.2c-1.8-0.3-4.7-1.3-4.7-3.6v-0.7h0.7C28.6,15.1,29.6,15.8,30.4,17.2z
				 M25.9,14v0.7h-0.7c-1.4,0-2.4-0.7-3.2-2.3c-0.3-0.7-0.6-1.5-0.7-2.2C23.1,10.5,25.9,11.4,25.9,14z"/>
		</g>
		<g>
			<path d="M45.9,13.8c-3.7,0.3-4.5,4.7-4.5,6.7c0,0.2,0,0.4,0,0.6c1.8-0.2,6.6-1.4,6.6-5.2c0-0.2,0-0.3,0-0.5
				c4-0.4,4.6-4.6,4.6-6.5c0-0.3,0-0.5,0-0.6c-1.3,0.1-6.7,1.2-6.7,5.1C45.9,13.5,45.9,13.6,45.9,13.8z M46.8,15.5
				c0,0.1,0,0.3,0,0.4c0,2.4-2.5,3.4-4.2,3.8c0.2-1.5,0.8-4.6,3.3-4.8l0.7-0.1L46.8,15.5z M47.1,13.7c0-0.1,0-0.2,0-0.3
				c0-2.2,2.7-3.3,4.3-3.7c-0.1,1.5-0.7,4.4-3.5,4.7l-0.7,0.1L47.1,13.7z"/>
		</g>
		<g>
			<path d="M37.2,20.8c0.9-0.8,2.7-3.2,2.7-5.5c0-1-0.3-1.9-1.2-2.8c0.9-0.9,1.3-1.9,1.3-2.8c0-2.4-2.1-4.8-2.7-5.5
				c-0.7,0.7-2.6,3-2.6,5.3c0,1,0.4,2.1,1.3,3c-1,0.9-1.4,2-1.4,3C34.5,17.7,36.2,19.9,37.2,20.8z M36.7,11.7c-0.7-0.6-1-1.3-1-2.2
				c0-1.3,0.7-2.6,1.4-3.5c0.7,1,1.5,2.4,1.5,3.7c0,0.8-0.3,1.5-0.9,2l-0.5,0.5L36.7,11.7z M36.7,13.3l0.5-0.5l0.5,0.5
				c0.6,0.5,0.8,1.2,0.8,2c0,1.3-0.8,2.8-1.5,3.8c-0.7-0.9-1.4-2.2-1.4-3.5C35.7,14.7,36,13.9,36.7,13.3z"/>
		</g>
		<g>
			<path d="M14.9,25.2c1,1,5.6,4.2,8.8,1.2c3.1,3,7.4,0.1,8.8-1.2c-1.2-1.2-5.9-4.1-8.8-1.4
				C20.5,20.8,15.8,24.4,14.9,25.2z M23.3,25.1l-0.5,0.5c-1.9,1.8-4.6,0.6-6-0.4c1-0.7,2.5-1.4,3.9-1.4c0.8,0,1.5,0.3,2.2,0.9
				L23.3,25.1z M28.3,24.2c0.9,0.3,1.6,0.7,2.3,1.1c-1.4,1-4.1,2.2-6,0.4L24,25.1l0.5-0.5C25.4,23.8,26.7,23.6,28.3,24.2z"/>
		</g>
		<g>
			<path d="M32.4,300.7c-1.8,0-7.2,1-7.2,4.9c-4.5,0-5.2,5.6-5.2,6.8c0,0,0,0,0,0c1.5,0,7.1-0.7,7.1-5
				C31.5,307.4,32.4,302.5,32.4,300.7z M26.4,305.6c0-2.3,2.9-3.3,4.7-3.6c-0.1,0.7-0.4,1.5-0.7,2.2c-0.7,1.4-1.8,2.1-3.3,2.1h-0.7
				V305.6z M25.9,307.4c0,2.6-2.8,3.5-4.6,3.8c0.1-0.6,0.3-1.4,0.7-2.2c0.7-1.5,1.8-2.3,3.2-2.3l0.7,0L25.9,307.4z"/>
		</g>
		<g>
			<path d="M41.5,300.3c0,0.2,0,0.4,0,0.6c0,2.1,0.8,6.4,4.5,6.7c0,0.1,0,0.3,0,0.4c0,3.9,5.5,5,6.7,5.1
				c0-0.2,0-0.4,0-0.6c0-1.9-0.6-6.2-4.6-6.5c0-0.2,0-0.3,0-0.5C48,301.7,43.3,300.5,41.5,300.3z M51.4,311.7
				c-1.7-0.4-4.3-1.4-4.3-3.7c0-0.1,0-0.2,0-0.3l0.1-0.7l0.7,0.1C50.7,307.3,51.3,310.2,51.4,311.7z M46.9,305.5c0,0.1,0,0.2,0,0.4
				l-0.1,0.7l-0.7-0.1c-2.5-0.2-3.2-3.3-3.3-4.8C44.3,302.1,46.9,303.1,46.9,305.5z"/>
		</g>
		<g>
			<path d="M34.5,305.9c0,1,0.4,2.1,1.4,3c-1,0.9-1.3,2-1.3,3c0,2.3,1.9,4.6,2.6,5.3c0.7-0.6,2.7-3,2.7-5.5
				c0-1-0.3-2-1.3-2.8c0.9-0.8,1.2-1.8,1.2-2.8c0-2.3-1.8-4.7-2.7-5.5C36.2,301.5,34.5,303.6,34.5,305.9z M37.8,309.7
				c0.6,0.6,0.9,1.2,0.9,2c0,1.3-0.8,2.7-1.5,3.7c-0.7-0.9-1.4-2.2-1.4-3.5c0-0.8,0.3-1.6,1-2.2l0.5-0.5L37.8,309.7z M38.6,306.1
				c0,0.8-0.3,1.4-0.8,2l-0.5,0.5l-0.5-0.5c-0.7-0.6-1-1.4-1-2.2c0-1.3,0.7-2.6,1.4-3.5C37.8,303.4,38.6,304.8,38.6,306.1z"/>
		</g>
		<g>
			<path d="M23.6,297.5c2.9,2.7,7.5-0.2,8.8-1.4c-1.3-1.3-5.6-4.1-8.8-1.2c-3.2-3-7.7,0.2-8.8,1.2
				C15.8,297,20.5,300.5,23.6,297.5z M24,296.2l0.5-0.5c2-1.9,4.6-0.6,6,0.4c-0.6,0.4-1.4,0.8-2.3,1.1c-1.6,0.5-2.9,0.4-3.8-0.5
				L24,296.2z M22.8,295.7l0.5,0.5l-0.5,0.5c-0.6,0.6-1.3,0.9-2.2,0.9c-1.3,0-2.8-0.7-3.9-1.4C18.2,295.2,20.9,293.9,22.8,295.7z"/>
		</g>
		<g>
			<path d="M103.2,191.9c0-1.8-0.9-6.7-5.3-6.7v0c0-4.3-5.6-5-7.1-5v0c0,1.3,0.7,6.8,5.2,6.8
				C96,190.9,101.5,191.9,103.2,191.9z M101.2,188.4c0.4,0.7,0.6,1.5,0.7,2.2c-1.8-0.3-4.7-1.3-4.7-3.6v-0.7l0.7,0
				C99.4,186.3,100.5,187,101.2,188.4z M92.8,183.6c-0.3-0.7-0.5-1.5-0.7-2.2c1.7,0.3,4.6,1.2,4.6,3.8v0.7H96
				C94.6,185.9,93.6,185.2,92.8,183.6z"/>
		</g>
		<g>
			<path d="M109.4,183.7c0.9-0.9,1.3-1.9,1.3-2.8c0-2.4-2.1-4.8-2.7-5.5c-0.7,0.7-2.6,3-2.6,5.3c0,1,0.4,2.1,1.3,3
				c-1,0.9-1.4,2-1.4,3c0,2.2,1.7,4.4,2.6,5.3c0.9-0.8,2.7-3.2,2.7-5.5C110.6,185.5,110.3,184.5,109.4,183.7z M107.6,182.9
				c-0.7-0.6-1-1.3-1-2.2c0-1.3,0.7-2.6,1.4-3.5c0.7,1,1.5,2.4,1.5,3.7c0,0.8-0.3,1.5-0.9,2l-0.5,0.5L107.6,182.9z M108,190.2
				c-0.7-0.9-1.4-2.2-1.4-3.5c0-0.9,0.3-1.6,1-2.2l0.5-0.5l0.5,0.5c0.6,0.5,0.8,1.2,0.8,2C109.4,187.8,108.7,189.3,108,190.2z"/>
		</g>
		<g>
			<path d="M85.7,196.5c1,1,5.6,4.2,8.8,1.2c3.1,3,7.4,0.1,8.8-1.2c-1.2-1.2-5.9-4.1-8.8-1.4
				C91.3,192.1,86.6,195.6,85.7,196.5z M94.2,196.4l-0.5,0.5c-1.9,1.8-4.6,0.6-6-0.4c1-0.7,2.5-1.4,3.9-1.4c0.8,0,1.5,0.3,2.2,0.9
				L94.2,196.4z M99.1,195.4c0.9,0.3,1.7,0.7,2.3,1.1c-0.6,0.4-1.4,0.8-2.2,1.1c-1.6,0.5-2.8,0.3-3.8-0.7l-0.5-0.5l0.5-0.5
				C96.2,195,97.5,194.9,99.1,195.4z"/>
		</g>
		<g>
			<path d="M97.9,136.3C97.9,136.3,97.9,136.3,97.9,136.3c4.4,0,5.3-4.9,5.3-6.7c-1.8,0-7.2,1-7.2,4.9
				c-4.5,0-5.2,5.6-5.2,6.8v0C92.3,141.3,97.9,140.6,97.9,136.3z M97.2,134.4c0-2.3,2.9-3.3,4.7-3.6c-0.1,0.7-0.4,1.5-0.7,2.2
				c-0.7,1.4-1.8,2.1-3.3,2.1h-0.7V134.4z M92.8,137.8c0.7-1.5,1.8-2.3,3.2-2.3l0.7,0v0.7c0,2.6-2.8,3.5-4.6,3.8
				C92.3,139.4,92.5,138.6,92.8,137.8z"/>
		</g>
		<g>
			<path d="M106.7,137.8c-1,0.9-1.3,2-1.3,3c0,2.3,1.9,4.6,2.6,5.3c0.7-0.6,2.7-3,2.7-5.5c0-1-0.3-2-1.3-2.8
				c0.9-0.8,1.2-1.8,1.2-2.8c0-2.3-1.8-4.7-2.7-5.5c-0.9,0.9-2.6,3-2.6,5.3C105.4,135.8,105.7,136.8,106.7,137.8z M108.6,138.6
				c0.6,0.6,0.9,1.2,0.9,2c0,1.3-0.8,2.7-1.5,3.7c-0.7-0.9-1.4-2.2-1.4-3.5c0-0.8,0.3-1.6,1-2.2l0.5-0.5L108.6,138.6z M108,131.2
				c0.7,1,1.5,2.4,1.5,3.8c0,0.8-0.3,1.4-0.8,2l-0.5,0.5l-0.5-0.5c-0.7-0.6-1-1.4-1-2.2C106.5,133.5,107.3,132.2,108,131.2z"/>
		</g>
		<g>
			<path d="M94.5,126.4c2.9,2.7,7.5-0.2,8.8-1.4c-1.3-1.3-5.6-4.1-8.8-1.2c-3.2-3-7.7,0.2-8.8,1.2
				C86.6,125.9,91.3,129.4,94.5,126.4z M94.8,125.1l0.5-0.5c1-1,2.3-1.2,3.8-0.7c0.8,0.3,1.6,0.7,2.2,1.1c-0.6,0.4-1.4,0.8-2.3,1.1
				c-1.6,0.5-2.9,0.4-3.8-0.5L94.8,125.1z M93.6,124.6l0.5,0.5l-0.5,0.5c-0.6,0.6-1.3,0.9-2.2,0.9c-1.4,0-2.8-0.7-3.9-1.4
				C89,124.1,91.7,122.8,93.6,124.6z"/>
		</g>
		<g>
			<path d="M26.9,69.1L26.9,69.1c4.4,0,5.3-4.9,5.3-6.7c-1.8,0-7.2,1-7.2,4.9c-4.5,0-5.1,5.6-5.2,6.8c0,0,0,0,0,0
				C21.3,74.1,26.9,73.4,26.9,69.1z M26.2,67.3c0-2.3,2.9-3.3,4.7-3.6c-0.1,0.7-0.4,1.5-0.7,2.2c-0.7,1.4-1.8,2.1-3.2,2.1h-0.7V67.3
				z M21.8,70.7c0.7-1.5,1.8-2.3,3.2-2.3l0.7,0v0.7c0,2.6-2.8,3.5-4.6,3.8C21.3,72.2,21.5,71.4,21.8,70.7z"/>
		</g>
		<g>
			<path d="M35.7,70.6c-1,0.9-1.3,2-1.3,3c0,2.3,1.9,4.6,2.6,5.3c0.7-0.6,2.7-3,2.7-5.5c0-1-0.3-2-1.3-2.8
				c0.9-0.8,1.2-1.8,1.2-2.8c0-2.3-1.8-4.7-2.7-5.5c-0.9,0.9-2.6,3-2.6,5.3C34.3,68.6,34.7,69.6,35.7,70.6z M37.6,71.4
				c0.6,0.6,0.9,1.2,0.9,2c0,1.3-0.8,2.7-1.5,3.7c-0.7-0.9-1.4-2.2-1.4-3.5c0-0.8,0.3-1.6,1-2.2l0.5-0.5L37.6,71.4z M36.9,64.1
				c0.7,1,1.5,2.4,1.5,3.8c0,0.8-0.3,1.4-0.8,2l-0.5,0.5l-0.5-0.5c-0.7-0.6-1-1.4-1-2.2C35.5,66.3,36.2,65,36.9,64.1z"/>
		</g>
		<g>
			<path d="M23.4,59.2c2.9,2.7,7.5-0.2,8.8-1.4c-1.3-1.3-5.6-4.1-8.8-1.2c-3.2-3-7.7,0.2-8.8,1.2
				C15.6,58.7,20.3,62.2,23.4,59.2z M23.8,57.9l0.5-0.5c1-1,2.3-1.2,3.8-0.7c0.8,0.3,1.6,0.7,2.2,1.1c-0.6,0.4-1.4,0.8-2.3,1.1
				c-1.6,0.5-2.9,0.4-3.8-0.5L23.8,57.9z M22.6,57.4l0.5,0.5l-0.5,0.5c-0.6,0.6-1.3,0.9-2.2,0.9c-1.3,0-2.8-0.7-3.9-1.5
				C18,56.9,20.7,55.6,22.6,57.4z"/>
		</g>
		<g>
			<path d="M26.9,252.1c0-4.3-5.6-5-7.1-5c0,0,0,0,0,0c0,1.3,0.7,6.8,5.2,6.8c0,3.8,5.5,4.9,7.2,4.9
				C32.2,257.1,31.3,252.2,26.9,252.1L26.9,252.1z M21.8,250.6c-0.3-0.7-0.5-1.5-0.7-2.2c1.7,0.3,4.6,1.2,4.6,3.8v0.7l-0.7,0
				C23.6,252.9,22.5,252.1,21.8,250.6z M30.2,255.3c0.4,0.7,0.6,1.5,0.7,2.2c-1.8-0.3-4.7-1.3-4.7-3.6v-0.7h0.7
				C28.4,253.3,29.4,253.9,30.2,255.3z"/>
		</g>
		<g>
			<path d="M36.9,258.9c0.9-0.8,2.7-3.2,2.7-5.5c0-1-0.3-1.9-1.2-2.8c0.9-0.9,1.3-1.8,1.3-2.8c0-2.4-2.1-4.8-2.7-5.5
				c-0.7,0.7-2.6,3-2.6,5.3c0,1,0.4,2.1,1.3,3c-1,0.9-1.4,2-1.4,3C34.3,255.9,36,258.1,36.9,258.9z M35.5,247.7
				c0-1.3,0.7-2.6,1.4-3.5c0.7,1,1.5,2.4,1.5,3.7c0,0.8-0.3,1.5-0.9,2l-0.5,0.5l-0.5-0.5C35.9,249.2,35.5,248.5,35.5,247.7z
				 M36.5,251.4l0.5-0.5l0.5,0.5c0.6,0.5,0.8,1.2,0.8,2c0,1.3-0.8,2.8-1.5,3.8c-0.7-0.9-1.4-2.2-1.4-3.5
				C35.5,252.8,35.8,252.1,36.5,251.4z"/>
		</g>
		<g>
			<path d="M23.4,262c-3.2-3-7.8,0.5-8.8,1.4c1,1,5.6,4.2,8.8,1.2c3.1,3,7.4,0.1,8.8-1.2
				C31,262.2,26.3,259.3,23.4,262z M23.1,263.3l-0.5,0.5c-1.9,1.8-4.6,0.6-6-0.4c1-0.7,2.5-1.4,3.9-1.4c0.8,0,1.5,0.3,2.2,0.9
				L23.1,263.3z M30.3,263.4c-0.6,0.4-1.4,0.8-2.2,1.1c-1.6,0.5-2.8,0.3-3.8-0.7l-0.5-0.5l0.5-0.5c0.9-0.8,2.2-1,3.8-0.5
				C28.9,262.6,29.7,263,30.3,263.4z"/>
		</g>
		<g>
			<path d="M66.8,150.7c-4-1.5-6.7,2.7-7.3,4.4c1.6,0.6,7,1.5,8.4-2c4.1,1.5,6.8-3.4,7.3-4.5
				C73.8,148,68.4,146.8,66.8,150.7z M66.8,152.6c-0.2,0.4-0.7,1.6-3.1,1.8c-0.9,0.1-1.7,0-2.5-0.1c0.4-0.6,0.9-1.2,1.5-1.8
				c1.2-1,2.4-1.3,3.7-0.8L67,152L66.8,152.6z M70.6,151.9c-0.7,0.3-1.5,0.3-2.3,0l-0.7-0.2l0.3-0.6c1-2.3,3.8-2.2,5.5-1.9
				C72.8,150.2,71.8,151.4,70.6,151.9z"/>
		</g>
		<g>
			<path d="M67.9,168.2c-1.4-3.5-6.8-2.6-8.4-2c0.7,1.6,3.3,5.8,7.3,4.4c1.6,3.9,7,2.7,8.3,2.2
				C74.7,171.6,72,166.8,67.9,168.2z M62.6,168.7c-0.6-0.5-1.1-1.2-1.5-1.8c0.7-0.1,1.6-0.2,2.5-0.1c2.5,0.2,3,1.4,3.2,1.8l0.3,0.6
				l-0.7,0.2C65.1,170,63.8,169.7,62.6,168.7z M73.4,172.1c-1.7,0.3-4.6,0.4-5.5-1.9l-0.3-0.6l0.7-0.2c0.8-0.3,1.5-0.3,2.3,0
				C71.8,169.8,72.8,171,73.4,172.1z"/>
		</g>
		<g>
			<path d="M7,94.2c0,0.5,0.1,0.9,0.3,1.5c-2.1,0.8-2.7,2.8-2.7,4.7c0,1.4,0.3,2.7,0.6,3.3c1.5-0.5,4.9-2.4,4.9-5.4
				c0-0.5-0.1-1-0.3-1.6c2.3-0.9,2.9-2.8,2.9-4.7c0-1.4-0.4-2.7-0.6-3.2C11,89.2,7,91.2,7,94.2z M8.6,97.1c0.2,0.4,0.2,0.8,0.2,1.2
				c0,1.7-1.6,3-3,3.8c-0.1-0.5-0.2-1.1-0.2-1.7c0-1.9,0.7-3.2,2-3.6l0.7-0.2L8.6,97.1z M11.3,90.4c0.1,0.5,0.2,1,0.2,1.6
				c0,2.8-1.6,3.4-2.2,3.6l-0.7,0.2l-0.3-0.6c-0.1-0.4-0.2-0.7-0.2-1C8.2,92.5,10,91.2,11.3,90.4z"/>
		</g>
		<g>
			<path d="M12.7,229.2c0-1.8-0.6-3.8-2.9-4.7c0.2-0.6,0.3-1.1,0.3-1.6c0-2.9-3.5-4.8-4.9-5.4
				c-0.3,0.6-0.6,1.9-0.6,3.3c0,1.9,0.6,3.9,2.7,4.7c-0.2,0.5-0.3,1-0.3,1.5c0,3.1,4,5,5.1,5.4C12.3,231.9,12.7,230.6,12.7,229.2z
				 M5.7,220.9c0-0.6,0.1-1.2,0.2-1.7c1.3,0.7,3,2.1,3,3.8c0,0.4-0.1,0.8-0.2,1.2l-0.3,0.6l-0.7-0.2C6.4,224,5.7,222.8,5.7,220.9z
				 M8.2,227c0-0.3,0.1-0.7,0.2-1l0.3-0.6l0.7,0.2c0.5,0.2,2.2,0.8,2.2,3.6c0,0.6-0.1,1.2-0.2,1.6C10,230.1,8.2,228.7,8.2,227z"/>
		</g>
		<g>
			<path d="M74,103.7l0.8-0.8c-0.8-0.8-1.7-2.3-2.1-3c-0.5,0.7-1.3,2.3-2.1,3l0.8,0.8c0.3-0.1,1.1-0.4,1.3-0.3
				C73,103.3,73.8,103.5,74,103.7z M71.4,102.8c0.5-0.6,0.9-1.3,1.3-1.9c0.3,0.6,0.8,1.3,1.4,1.9l-0.2,0.2c-0.3-0.1-0.8-0.2-1.2-0.2
				c-0.4,0-0.8,0.1-1.2,0.2L71.4,102.8z"/>
		</g>
		<g>
			<path d="M71.4,111l-0.8,0.8c0.8,0.8,1.6,2.3,2.1,3c0.4-0.7,1.3-2.3,2.1-3L74,111c-0.3,0.1-1.1,0.4-1.3,0.3
				C72.4,111.4,71.6,111.2,71.4,111z M74,111.9c-0.5,0.6-1,1.3-1.3,1.9c-0.4-0.6-0.8-1.3-1.3-1.9l0.2-0.2c0.3,0.1,0.8,0.2,1.2,0.2
				c0.3,0,0.8-0.1,1.2-0.2L74,111.9z"/>
		</g>
		<g>
			<path d="M47.3,91.1c0.7,0.5,2.4,1.3,3.2,2l0.9-0.8c-0.1-0.2-0.4-1-0.3-1.3c-0.1-0.3,0.2-1,0.3-1.3l-0.9-0.8
				C49.7,89.9,48.1,90.8,47.3,91.1z M50.5,91.1c0,0.3,0.1,0.8,0.2,1.1l-0.2,0.2c-0.6-0.4-1.3-0.9-2-1.2c0.6-0.3,1.4-0.8,2-1.3
				l0.2,0.2C50.6,90.4,50.4,90.8,50.5,91.1z"/>
		</g>
		<g>
			<path d="M63.6,91.1c-0.7-0.4-2.4-1.3-3.2-2l-0.9,0.8c0.1,0.2,0.4,1,0.3,1.3c0.1,0.3-0.2,1-0.3,1.3l0.9,0.8
				C61.2,92.4,62.8,91.6,63.6,91.1z M60.4,91.1c0-0.3-0.1-0.8-0.2-1.1l0.2-0.2c0.6,0.5,1.4,0.9,2,1.3c-0.6,0.4-1.4,0.8-2,1.2
				l-0.2-0.2C60.3,91.9,60.5,91.5,60.4,91.1z"/>
		</g>
		<g>
			<path d="M74.6,210.4l0.8-0.8c-0.8-0.8-1.7-2.3-2.1-3c-0.5,0.7-1.3,2.3-2.1,3l0.8,0.8c0.3-0.1,1-0.4,1.3-0.3
				C73.5,210.1,74.3,210.3,74.6,210.4z M71.9,209.6c0.5-0.6,0.9-1.3,1.3-1.9c0.4,0.6,0.8,1.3,1.3,1.9l-0.2,0.2
				c-0.3-0.1-0.8-0.2-1.2-0.2c-0.4,0-0.8,0.1-1.2,0.2L71.9,209.6z"/>
		</g>
		<g>
			<path d="M71.9,217.9l-0.8,0.8c0.8,0.8,1.6,2.3,2.1,3c0.4-0.7,1.3-2.3,2.1-3l-0.8-0.8c-0.3,0.1-1.1,0.4-1.3,0.3
				C73,218.3,72.2,218.1,71.9,217.9z M74.6,218.8c-0.5,0.6-1,1.3-1.3,1.9c-0.4-0.6-0.8-1.3-1.3-1.9l0.2-0.2c0.3,0.1,0.8,0.2,1.2,0.2
				c0.3,0,0.8-0.1,1.2-0.2L74.6,218.8z"/>
		</g>
		<g>
			<path d="M47.8,230.2c0.7,0.5,2.4,1.3,3.2,2l0.9-0.8c-0.1-0.2-0.4-1-0.3-1.3c-0.1-0.3,0.2-1,0.3-1.3l-0.9-0.8
				C50.2,228.9,48.6,229.8,47.8,230.2z M51,230.2c0,0.3,0.1,0.8,0.2,1.1l-0.2,0.2c-0.6-0.4-1.3-0.9-2-1.2c0.6-0.3,1.4-0.8,2-1.3
				l0.2,0.2C51.1,229.4,50.9,229.8,51,230.2z"/>
		</g>
		<g>
			<path d="M60,228.9c0.1,0.2,0.4,1,0.3,1.3c0.1,0.3-0.2,1-0.3,1.3l0.9,0.8c0.8-0.8,2.4-1.5,3.2-2
				c-0.7-0.4-2.4-1.3-3.2-2L60,228.9z M60.9,231.4l-0.2-0.2c0.1-0.3,0.3-0.8,0.2-1.1c0-0.3-0.1-0.8-0.2-1.1l0.2-0.2
				c0.6,0.5,1.4,0.9,2,1.3C62.2,230.5,61.5,231,60.9,231.4z"/>
		</g>
		<g>
			<path d="M74.5,236.4l0,0.5h3.2l0.1-0.4c0.1-0.4,0.3-0.7,0.6-1c0.3-0.3,0.6-0.4,1-0.5l0.4-0.1l0-3l-0.6,0
				c-2.6-0.1-4.9-0.9-6.2-2.1l-0.8,0.8C73.6,231.7,74.4,233.9,74.5,236.4z M78.7,232.9v1.1c-0.4,0.2-0.8,0.4-1.1,0.7
				c-0.3,0.3-0.6,0.7-0.7,1.1h-1.2c-0.1-1.4-0.5-2.7-1-3.7C75.9,232.5,77.2,232.8,78.7,232.9z"/>
		</g>
		<g>
			<path d="M81.8,235c0.4,0.1,0.7,0.3,1,0.5c0.3,0.3,0.5,0.6,0.6,1l0.1,0.4h3.2l0-0.5c0.1-2.5,0.9-4.6,2.3-5.9
				l-0.8-0.8c-1.3,1.2-3.6,2-6.2,2.1l-0.6,0v3L81.8,235z M82.5,234l0-1.1c1.5-0.1,2.8-0.4,4-0.9c-0.5,1.1-0.8,2.4-1,3.7h-1.2
				c-0.2-0.4-0.4-0.8-0.7-1.1C83.3,234.4,82.9,234.2,82.5,234z"/>
		</g>
		<g>
			<path d="M83.3,238.8c-0.1,0.4-0.3,0.7-0.6,1c-0.3,0.3-0.6,0.4-1,0.5l-0.4,0.1v3l0.6,0c2.6,0.1,4.9,0.9,6.2,2.1
				l0.8-0.8c-1.3-1.2-2.1-3.4-2.3-5.9l0-0.5h-3.2L83.3,238.8z M86.5,243.2c-1.2-0.5-2.5-0.8-4-0.9v-1.1c0.4-0.2,0.8-0.4,1.1-0.7
				c0.3-0.3,0.6-0.7,0.7-1h1.2C85.6,240.9,86,242.1,86.5,243.2z"/>
		</g>
		<g>
			<path d="M79.4,240.3c-0.4-0.1-0.7-0.3-1-0.5c-0.3-0.3-0.5-0.6-0.6-1l-0.1-0.4h-3.2l0,0.5
				c-0.1,2.5-0.9,4.6-2.3,5.9l0.8,0.8c1.3-1.2,3.6-2,6.2-2.1l0.6,0l0-3L79.4,240.3z M78.7,241.2l0,1.1c-1.5,0.1-2.8,0.4-4,0.9
				c0.5-1.1,0.8-2.4,1-3.7h1.2c0.2,0.4,0.4,0.8,0.7,1.1C77.9,240.8,78.3,241.1,78.7,241.2z"/>
		</g>
		<g>
			<path d="M81.8,238.8c0.3-0.3,0.5-0.7,0.5-1.2c0-0.4-0.2-0.8-0.5-1.2c-0.7-0.6-1.8-0.6-2.4,0
				c-0.3,0.3-0.5,0.7-0.5,1.2c0,0.4,0.2,0.8,0.5,1.2C80,239.4,81.1,239.4,81.8,238.8z M80.1,237.6c0-0.1,0-0.2,0.2-0.4
				c0.1-0.1,0.3-0.1,0.4-0.1c0.1,0,0.2,0,0.4,0.1c0.1,0.1,0.2,0.3,0.2,0.4c0,0.1,0,0.2-0.2,0.4c-0.1,0.1-0.3,0.1-0.4,0.1
				c-0.1,0-0.2,0-0.4-0.1C80.1,237.9,80.1,237.7,80.1,237.6z"/>
		</g>
		<g>
			<path d="M77.8,82.4c0.1-0.4,0.3-0.7,0.6-1c0.3-0.3,0.6-0.4,1-0.5l0.4-0.1l0-3l-0.6,0c-2.6-0.1-4.9-0.9-6.2-2.1
				l-0.8,0.8c1.3,1.2,2.1,3.4,2.3,5.9l0,0.5h3.2L77.8,82.4z M74.7,78c1.2,0.5,2.5,0.8,4,0.9V80c-0.4,0.2-0.8,0.4-1.1,0.7
				c-0.3,0.3-0.6,0.7-0.7,1.1h-1.2C75.5,80.3,75.2,79.1,74.7,78z"/>
		</g>
		<g>
			<path d="M81.8,80.9c0.4,0.1,0.7,0.3,1,0.5c0.3,0.3,0.5,0.6,0.6,1l0.1,0.4h3.2l0-0.5c0.1-2.5,0.9-4.6,2.3-5.9h0
				l-0.8-0.8h0c-1.3,1.2-3.6,2-6.2,2.1l-0.6,0v3L81.8,80.9z M82.5,80l0-1.1c1.5-0.1,2.8-0.4,4-0.9c-0.5,1.1-0.8,2.4-1,3.8h-1.2
				c-0.2-0.4-0.4-0.8-0.7-1.1C83.3,80.4,82.9,80.1,82.5,80z"/>
		</g>
		<g>
			<path d="M83.3,84.7c-0.1,0.4-0.3,0.7-0.6,1c-0.3,0.3-0.6,0.4-1,0.5l-0.4,0.1v3l0.6,0c2.6,0.1,4.9,0.9,6.2,2.1
				l0.8-0.8c-1.3-1.2-2.1-3.4-2.3-5.9l0-0.5h-3.2L83.3,84.7z M86.5,89.2c-1.2-0.5-2.5-0.8-4-0.9v-1.1c0.4-0.2,0.8-0.4,1.1-0.7
				c0.3-0.3,0.6-0.7,0.7-1h1.2C85.6,86.8,86,88.1,86.5,89.2z"/>
		</g>
		<g>
			<path d="M79.9,89.3v-3l-0.5-0.1c-0.4-0.1-0.7-0.3-1-0.5c-0.3-0.3-0.5-0.6-0.6-1l-0.1-0.4h-3.2l0,0.5
				c-0.1,2.5-0.9,4.6-2.3,5.9l0.8,0.8c1.3-1.2,3.6-2,6.2-2.1L79.9,89.3z M75.7,85.4h1.2c0.2,0.4,0.4,0.8,0.7,1
				c0.3,0.3,0.7,0.5,1.1,0.7l0,1.1c-1.5,0.1-2.8,0.4-4,0.9C75.2,88.1,75.5,86.8,75.7,85.4z"/>
		</g>
		<g>
			<path d="M81.8,84.7c0.3-0.3,0.5-0.7,0.5-1.2c0-0.4-0.2-0.8-0.5-1.2c-0.7-0.6-1.8-0.6-2.4,0
				c-0.3,0.3-0.5,0.7-0.5,1.2c0,0.4,0.2,0.8,0.5,1.2C80,85.4,81.1,85.4,81.8,84.7z M80.1,83.6c0-0.1,0-0.2,0.2-0.4
				c0.1-0.1,0.3-0.1,0.4-0.1s0.2,0,0.4,0.2c0.1,0.1,0.2,0.3,0.2,0.4c0,0.1,0,0.2-0.2,0.4c-0.1,0.1-0.3,0.1-0.4,0.1s-0.2,0-0.4-0.1
				C80.1,83.8,80.1,83.7,80.1,83.6z"/>
		</g>
		<g>
			<path d="M76.3,161.7c-0.2-0.3-0.3-0.7-0.3-1.2c0-0.4,0.1-0.8,0.4-1.2l-1.3-1.3c-1.7,1.4-3.7,2.4-5.6,2.4
				c1.8,0,3.9,1,5.6,2.4L76.3,161.7z"/>
		</g>
		<g>
			<path d="M78.3,158.4c0.5,0,0.9,0.1,1.2,0.3l1.3-1.3c-1.5-1.6-2.6-3.5-2.6-5.3c0,1.8-1,3.7-2.6,5.3l1.3,1.3
				C77.4,158.5,77.9,158.4,78.3,158.4z"/>
		</g>
		<g>
			<path d="M80.2,159.5c0.2,0.3,0.3,0.7,0.3,1.2c0,0.4-0.1,0.8-0.4,1.2l1.3,1.3c1.7-1.4,3.7-2.4,5.6-2.4
				c-1.9,0-3.9-1-5.6-2.4L80.2,159.5z"/>
		</g>
		<g>
			<path d="M78.2,162.8c-0.5,0-0.9-0.1-1.2-0.3l-1.3,1.3c1.5,1.6,2.6,3.5,2.6,5.3c0-1.8,1-3.7,2.6-5.3l-1.3-1.3
				C79.1,162.7,78.7,162.8,78.2,162.8z"/>
		</g>
		<g>
			<path d="M78.3,162c0.8,0,1.5-0.6,1.5-1.4c0-0.8-0.7-1.4-1.5-1.4c-0.8,0-1.5,0.6-1.5,1.4
				C76.8,161.4,77.4,162,78.3,162z"/>
		</g>
		<g>
			<path d="M1.2,84.7c0.2,0.3,0.3,0.7,0.3,1.2c0,0.4-0.1,0.8-0.4,1.2l1.3,1.3c1.7-1.4,3.7-2.4,5.6-2.4
				c-1.9,0-3.9-1-5.6-2.4L1.2,84.7z"/>
		</g>
		<g>
			<path d="M1.2,234.3c0.2,0.3,0.3,0.7,0.3,1.2c0,0.4-0.1,0.8-0.4,1.2l1.3,1.3c1.7-1.4,3.7-2.4,5.6-2.4
				c-1.9,0-3.9-1-5.6-2.4L1.2,234.3z"/>
		</g>
		<g>
			<path d="M15,175.6c1.2,1.2,3.2,10.7-0.9,15.2c0.8-0.4,2.1-1.2,3.3-2.3c1.2-1.1,2.2-2.6,2.2-4.2
				c0.9,0,2.1-0.7,3-1.5s1.6-2,1.6-2.8c1.7,0,3.2-1,4.4-2.1c1.2-1.1,2-2.4,2.4-3.1C26.4,178.6,16.2,176.7,15,175.6z M28.3,177.5
				c-0.9,0.9-2.4,1.9-4,1.9h-0.6v0.6c0,0.6-0.6,1.6-1.4,2.4c-0.8,0.8-1.9,1.3-2.5,1.3h-0.6v0.6c0,1.5-1.1,2.9-2.1,3.8
				c-0.3,0.3-0.7,0.6-1,0.8c1.8-4,1.1-9.5,0.2-12.2c2.9,0.9,8.7,1.5,12.9-0.2C28.9,176.8,28.6,177.1,28.3,177.5z"/>
		</g>
		<g>
			<path d="M18.8,182l1.4,0.2c0.1-0.2,0.4-0.8,0.6-1c0,0,0.1-0.1,0.1-0.1c0,0,0,0,0.1-0.1c0.2-0.2,0.8-0.5,1.1-0.5
				l-0.3-1.3c-1.1,0-2.4-0.2-3.5-0.6C18.7,179.7,18.8,180.9,18.8,182z M21.4,180.1c-0.3,0.1-0.6,0.3-0.8,0.5c0,0,0,0-0.1,0.1
				c0,0-0.1,0.1-0.1,0.1c-0.2,0.2-0.4,0.5-0.6,0.8l-0.4-0.1c0-0.6,0-1.4-0.2-2.1c0.7,0.1,1.3,0.3,2.1,0.3L21.4,180.1z"/>
		</g>
		<g>
			<path d="M35.7,194.7l-0.3,0.3c1,0.9,2.4,5.9,2.4,11.5c0,3.8-0.7,9.1-3.8,12.6l-0.6,0.7l0.9-0.4
				c1.3-0.6,3.5-2,5.3-3.7c2.3-2.2,3.6-4.5,3.6-6.7c1.5-0.1,3.4-1.3,4.7-2.5c1.2-1.2,2.5-3,2.6-4.4c2.3-0.1,4.7-1.2,7.1-3.4
				c1.8-1.7,3.3-3.8,3.9-5l0.4-0.8l-0.7,0.6C53.7,199.4,37.7,196.6,35.7,194.7z M56.6,197.8c-1.5,1.4-3.8,3.1-6.3,3.1l-1.1,0v1.1
				c0,0.9-0.9,2.5-2.2,3.7c-1.3,1.2-2.9,2.1-3.9,2.1h-1.1v1.1c0,2.4-1.8,4.6-3.2,6c-0.3,0.3-0.6,0.6-1,0.9c1-2.5,1.6-5.7,1.6-9.1
				c0-3.3-0.5-6.9-1.4-9.6c4.5,1.3,13.1,2.2,19.7-0.2C57.2,197.2,56.9,197.5,56.6,197.8z"/>
		</g>
		<g>
			<path d="M40.8,199.6l-0.4-0.2l0.2,0.4c0.5,1.4,0.8,3.1,0.8,5.4l0,0.2l2.6,0.4l0.1-0.2c0.1-0.4,0.6-1.3,0.9-1.6
				c0,0,0.1-0.1,0.2-0.1l0.1-0.1c0,0,0-0.1,0.1-0.1c0.3-0.3,1.2-0.7,1.6-0.8l0.2-0.1l-0.5-2.4h-0.2
				C44.4,200.5,42.4,200.1,40.8,199.6z M45.5,202.1c-0.5,0.2-0.9,0.5-1.2,0.8c0,0-0.1,0.1-0.1,0.1c0,0-0.1,0.1-0.2,0.1l-0.1,0.1
				c-0.4,0.3-0.7,0.9-0.9,1.2l-0.4-0.1l0,0c0-0.9-0.1-1.9-0.3-2.9c0.9,0.2,1.9,0.4,3,0.4L45.5,202.1z"/>
		</g>
		<g>
			<path d="M35.7,126.4c2-1.9,18-4.7,25.4,1.3l0.7,0.6l-0.4-0.8c-0.7-1.2-2.1-3.3-3.9-5c-2.3-2.2-4.7-3.4-7.1-3.4
				c-0.1-1.5-1.4-3.3-2.6-4.4c-1.2-1.2-3.1-2.4-4.7-2.5c-0.1-2.2-1.3-4.5-3.6-6.7c-1.8-1.7-4-3.1-5.3-3.7l-0.9-0.4L34,102
				c3.2,3.5,3.8,8.8,3.8,12.6c0,5.6-1.4,10.5-2.4,11.5L35.7,126.4z M39.2,114.5c0-3.4-0.5-6.5-1.6-9.1c0.4,0.3,0.7,0.6,1,0.9
				c1.5,1.4,3.2,3.6,3.2,6v1.1H43c1,0,2.6,0.9,3.9,2.1c1.3,1.2,2.2,2.8,2.2,3.7v1.1l1.1,0c2.5,0,4.8,1.7,6.3,3.1
				c0.3,0.3,0.6,0.6,0.9,0.9c-6.6-2.4-15.2-1.5-19.7-0.2C38.7,121.4,39.2,117.9,39.2,114.5z"/>
		</g>
		<g>
			<path d="M46.6,120.7l0.5-2.4l-0.2,0c-0.4-0.1-1.3-0.5-1.6-0.8c0,0-0.1-0.1-0.1-0.1l-0.1-0.1c0,0-0.1-0.1-0.2-0.1
				c-0.3-0.3-0.8-1.2-0.9-1.6l-0.1-0.2l-2.6,0.4v0.2c0,2.3-0.3,4-0.8,5.4l-0.2,0.4l0.4-0.2c1.6-0.6,3.6-0.9,5.5-0.9H46.6z
				 M42.7,116.9L42.7,116.9l0.4-0.1c0.2,0.3,0.5,0.9,0.9,1.2L44,118c0.1,0,0.1,0.1,0.1,0.1c0,0,0,0.1,0.1,0.1
				c0.3,0.3,0.7,0.5,1.2,0.7l-0.1,0.4c-1.1,0-2.1,0.2-3,0.4C42.6,118.8,42.7,117.7,42.7,116.9z"/>
		</g>
		<g>
			<path d="M14.2,130.4c4,4.5,2.1,14.1,0.9,15.2c1.2-1.1,11.3-3,16.1,0.8c-0.4-0.7-1.3-2-2.4-3.1
				c-1.2-1.1-2.8-2.1-4.4-2.1c0-0.8-0.7-2-1.6-2.8s-2.1-1.5-3-1.5c0-1.6-1-3.1-2.2-4.2C16.3,131.6,14.9,130.8,14.2,130.4z
				 M19.7,137.5c0.7,0,1.7,0.6,2.5,1.3c0.8,0.8,1.4,1.8,1.4,2.4v0.6l0.6,0c1.6,0,3.1,1.1,4,1.9c0.3,0.3,0.6,0.6,0.9,0.9
				c-4.2-1.7-10-1.1-12.9-0.2c0.9-2.7,1.6-8.2-0.2-12.2c0.3,0.3,0.7,0.5,1,0.9c0.9,0.9,2.1,2.3,2.1,3.8v0.6L19.7,137.5z"/>
		</g>
		<g>
			<path d="M18.8,139.2c0,1.1-0.1,2.4-0.5,3.4c1.1-0.4,2.4-0.6,3.5-0.6l0.3-1.3c-0.2-0.1-0.8-0.3-1.1-0.5
				c0,0,0-0.1-0.1-0.1c0,0-0.1-0.1-0.1-0.1c-0.2-0.2-0.5-0.8-0.6-1.1L18.8,139.2z M20.5,140.5C20.5,140.5,20.5,140.5,20.5,140.5
				c0.3,0.3,0.6,0.4,0.9,0.6l-0.1,0.4c-0.8,0-1.5,0.2-2.1,0.3c0.2-0.7,0.2-1.5,0.2-2.1l0.4-0.1c0.2,0.3,0.4,0.6,0.6,0.8
				C20.4,140.4,20.5,140.5,20.5,140.5z"/>
		</g>
		<g>
			<path d="M0,137.4c3.8,11,14.7,20.7,26.5,23.2c-6.2,1.3-12.3,4.5-17.4,9.3c-4.3,4.1-7.4,8.9-9.1,13.8l0,6.3
				c0.5-6.8,4.1-13.7,10-19.3c6.4-6.1,14.5-9.6,22.2-9.6V160C16.8,160,1.2,145.7,0,131L0,137.4z"/>
		</g>
		<g>
			<path d="M0,147.7c0.9,1.8,2.2,3.6,3.7,5.4L2,154.7c-0.7-0.3-1.3-0.4-2-0.5l0,1.3c0.8,0.1,1.6,0.3,2.3,0.7l3.2-3
				c-2.6-2.7-4.5-5.7-5.5-8.8L0,147.7z"/>
		</g>
		<g>
			<path d="M3.9,157.9c0.5,0.8,0.8,1.8,0.8,2.8c0,1-0.3,2-0.8,2.8l3.2,3c4-3.4,8.9-5.8,13.4-5.8
				c-4.4,0-9.3-2.4-13.3-5.8L3.9,157.9z M7.2,164.8l-1.7-1.6c0.4-0.8,0.6-1.7,0.6-2.6c0-0.9-0.2-1.7-0.6-2.6l1.7-1.6
				c2.3,1.8,4.7,3.2,7.1,4.1C11.9,161.6,9.5,163,7.2,164.8z"/>
		</g>
		<g>
			<path d="M0,167c0.6-0.1,1.2-0.2,1.8-0.4l1.7,1.6c-1.4,1.6-2.6,3.3-3.5,5l0,3.1c1-2.8,2.9-5.7,5.3-8.2l-3.2-3
				c-0.6,0.4-1.3,0.6-2.1,0.7L0,167z"/>
		</g>
		<g>
			<path d="M44.9,137.1c-1.5-1.4-3.2,0.7-6.5-0.4c-2.9-1-5.5-4.8-9.6-4c0.8-3.9-3.3-6.4-4.3-9.1
				c-1.1-3.1,1.1-4.7-0.4-6.1c-0.6-0.5-2.2-1.1-3,0.1c0.4-1.5-1.2-3.9-2.8-5.4c-0.4,0.3-1.3,0.7-1.6,0.9c3.5,5.7,3.7,14.7,10.5,21.1
				s16.3,6.6,22.3,9.9c0.2-0.3,0.7-1.1,1-1.5c-1.6-1.5-4.1-3-5.7-2.6C46,139.2,45.4,137.7,44.9,137.1z"/>
		</g>
		<g>
			<path d="M44.8,128.6c-6.9-1.6-11.1,1.5-13,3.3c2.8-0.6,11.4-0.9,14.4,0.3C44.6,131.4,44.7,129.3,44.8,128.6z"/>
		</g>
		<g>
			<path d="M33.1,117.5c-0.7,0.1-2.9,0.2-3.7-1.4c1.2,2.9,0.9,11,0.3,13.6C31.6,128,34.8,124,33.1,117.5z"/>
		</g>
		<g>
			<path d="M16.6,208.1c0.3,0.2,1.2,0.6,1.6,0.9c1.6-1.5,3.2-3.9,2.8-5.4c0.8,1.2,2.5,0.7,3,0.1
				c1.5-1.4-0.8-3,0.4-6.1c1-2.7,5.1-5.2,4.3-9.1c4.1,0.8,6.7-3.1,9.6-4c3.3-1.1,5,1,6.5-0.4c0.6-0.5,1.2-2.1-0.1-2.9
				c1.6,0.4,4.1-1.1,5.7-2.6c-0.3-0.4-0.8-1.2-1-1.5c-6,3.4-15.5,3.5-22.3,9.9C20.3,193.4,20.2,202.4,16.6,208.1z"/>
		</g>
		<g>
			<path d="M46.2,189.1c-3,1.2-11.6,0.9-14.4,0.3c1.9,1.8,6.1,4.8,13,3.3C44.7,191.9,44.6,189.9,46.2,189.1z"/>
		</g>
		<g>
			<path d="M33.1,203.7c1.6-6.5-1.6-10.5-3.5-12.3c0.6,2.6,0.9,10.8-0.3,13.6C30.2,203.5,32.4,203.6,33.1,203.7z"/>
		</g>
		<g>
			<path d="M139,203.7c-1.1,1.1-0.8,2.4-0.2,3c0.6,0.6,1.7,1.2,2.6,0.4c0.8-0.8,0.7-1.8,0-2.1
				c3.2,1,5.2,11.9,7.7,13.7c-2.7,2.6-7.4,3.7-9.9,1.8c1.4,0.1,2-1.3,0.8-2.5c-1.2-1.1-2.6-0.3-2.8,0.9c-0.6,2.6,1.9,4.8,4.9,5.1
				c0.9,4.7-1,10.8-5.2,16.8c-5.7,8.1-14.3,14.6-22.1,16.6c0.2-2.3,0.5-4.8,0.9-7.2c1.4-10.7,2.9-21.7-3.1-27.3
				c-1.2-1.1-2.6-1.6-3.9-2.1c-0.2-0.1-0.4-0.1-0.6-0.2c1.2-0.9,1.6-2.4,0.9-3.6c-0.8-1.4-2.7-1.9-4.3-1c-0.5,0.3-0.9,0.6-1.2,1
				c-1,1.2-1.3,3,0.7,4.8c1,0.9,2.2,1.4,3.4,1.8c1.1,0.4,2.1,0.8,2.8,1.4c4.8,4.6,3.4,15.3,2.2,24.8c-0.9,6.6-1.7,12.8-0.6,17.3
				c-4.8-1-11.4-0.2-18.3,0.6c-10,1.2-21.4,2.5-26.2-2c-0.7-0.7-1.1-1.6-1.5-2.7c-0.5-1.1-0.9-2.3-1.9-3.2c-2-1.9-3.9-1.6-5.1-0.7
				c-0.4,0.3-0.8,0.7-1.1,1.2c-0.9,1.5-0.4,3.4,1.1,4.1c1.3,0.6,2.8,0.3,3.8-0.8c0.1,0.2,0.2,0.4,0.2,0.6c0.5,1.2,1,2.6,2.2,3.7
				c5.9,5.6,17.6,4.2,28.8,2.9c2.5-0.3,5-0.6,7.4-0.8c-2.1,7.4-8.9,15.7-17.6,21.2c-6.4,4-12.8,5.8-17.7,4.9
				c-0.3-2.8-2.7-5.2-5.4-4.6c-1.2,0.2-2.2,1.5-1,2.7c1.2,1.1,2.8,0.5,2.6-0.8c2.1,2.3,0.9,6.8-1.9,9.4c-1.9-2.3-13.4-4.3-14.4-7.3
				c0.3,0.6,1.4,0.8,2.2,0c0.8-0.8,0.2-1.9-0.4-2.4c-0.6-0.6-2-0.9-3.2,0.2c-1.6,1.5-0.8,3.7,0.4,4.9c3.1,2.9,12.8,4.3,15.8,8.2
				c0.8-1.1,3.5-3.3,4.9-7.1c5.8,0.9,12.8-1,19.9-5.4c2.9-1.8,5.5-3.9,7.9-6.2c5.7-5.4,9.9-11.9,11.2-17.7c1.5-0.1,2.9-0.1,4.2,0
				c-1.1,1.3-1,3.2,0.3,4.4c1.4,1.3,3.6,1.3,5,0c1.4,1.3,3.6,1.3,5,0c1.4-1.3,1.4-3.5,0-4.8c0,0,0,0,0.1-0.1c1.4-1.3,1.4-3.5,0-4.8
				c-1.3-1.2-3.3-1.3-4.7-0.3c-0.1-1.1-0.1-2.4,0-3.7c6.1-1.4,12.8-5.2,18.4-10.6c2.4-2.3,4.6-4.8,6.5-7.5
				c4.7-6.7,6.7-13.3,5.7-18.8c4-1.3,6.3-3.9,7.5-4.6c-4.1-2.8-5.6-12-8.6-15C143,203,140.6,202.2,139,203.7z"/>
		</g>
		<g>
			<path d="M119.3,47c-1.4-1.3-3.6-1.3-5,0c-1.4-1.3-3.7-1.3-5,0c-1.3,1.2-1.4,3.1-0.3,4.4c-1.3,0.1-2.7,0.1-4.2,0
				c-1.4-5.9-5.5-12.3-11.2-17.7c-2.4-2.3-5.1-4.4-7.9-6.2c-7.1-4.5-14.1-6.3-19.9-5.4c-1.3-3.8-4.1-5.9-4.9-7.1
				c-3,3.9-12.7,5.3-15.8,8.2c-1.2,1.1-2,3.3-0.4,4.9c1.1,1.1,2.6,0.8,3.2,0.2c0.6-0.6,1.3-1.7,0.4-2.4c-0.8-0.8-1.9-0.6-2.2,0
				c1.1-3,12.5-4.9,14.4-7.3c2.7,2.6,3.9,7,1.9,9.4c0.1-1.3-1.4-1.9-2.6-0.8c-1.2,1.2-0.3,2.4,1,2.7c2.7,0.5,5-1.8,5.4-4.6
				c5-0.8,11.4,0.9,17.7,4.9c8.7,5.5,15.6,13.8,17.6,21.2C99,51,96.5,50.7,94,50.4c-11.3-1.3-22.9-2.7-28.8,2.9
				C64,54.5,63.5,55.8,63,57c-0.1,0.2-0.2,0.4-0.2,0.6c-1-1.1-2.5-1.5-3.8-0.8c-1.5,0.7-2,2.6-1.1,4.1c0.3,0.5,0.7,0.9,1.1,1.2
				c1.2,0.9,3.1,1.2,5.1-0.7c1-0.9,1.4-2.1,1.9-3.2c0.4-1,0.8-2,1.5-2.7c4.8-4.6,16.2-3.2,26.2-2c6.9,0.8,13.6,1.6,18.3,0.6
				c-1.1,4.5-0.2,10.8,0.6,17.3c1.2,9.5,2.7,20.2-2.2,24.8c-0.7,0.7-1.7,1-2.8,1.4c-1.2,0.4-2.4,0.9-3.4,1.8c-2,1.9-1.7,3.6-0.7,4.8
				c0.3,0.4,0.7,0.8,1.2,1c1.6,0.8,3.6,0.4,4.3-1c0.7-1.2,0.3-2.7-0.9-3.6c0.2-0.1,0.4-0.1,0.6-0.2c1.3-0.5,2.7-1,3.9-2.1
				c5.9-5.6,4.5-16.6,3.1-27.3c-0.3-2.4-0.6-4.9-0.8-7.2c7.8,2.1,16.4,8.5,22.1,16.6c4.2,6,6.1,12.1,5.2,16.8
				c-2.9,0.3-5.5,2.5-4.9,5.1c0.3,1.2,1.6,2.1,2.8,0.9c1.2-1.1,0.5-2.6-0.8-2.5c2.4-2,7.2-0.8,9.9,1.8c-2.5,1.8-4.5,12.6-7.7,13.7
				c0.6-0.3,0.8-1.3,0-2.1c-0.8-0.8-2-0.2-2.6,0.4c-0.6,0.6-1,1.9,0.2,3c1.6,1.5,4,0.7,5.1-0.4c3.1-2.9,4.5-12.2,8.6-15
				c-1.2-0.8-3.5-3.3-7.5-4.6c1-5.5-1-12.1-5.7-18.8c-1.9-2.7-4.1-5.2-6.5-7.5c-5.6-5.3-12.3-9.2-18.4-10.6c-0.1-1.3,0-2.6,0-3.7
				c1.4,1,3.4,0.9,4.7-0.3c1.4-1.3,1.4-3.5,0-4.8c0,0,0,0-0.1-0.1C120.7,50.4,120.7,48.3,119.3,47z"/>
		</g>
		<g>
			<path d="M144.2,195c-1.4-1.3-3.6-1.3-4.9,0c-1.4,1.3-1.4,3.4,0,4.7c1.4,1.3,3.6,1.3,4.9,0
				C145.6,198.4,145.6,196.3,144.2,195z M140.1,198.9c-0.9-0.9-0.9-2.2,0-3.1c0.9-0.9,2.4-0.9,3.3,0c0.9,0.9,0.9,2.2,0,3.1
				C142.5,199.7,141,199.7,140.1,198.9z"/>
		</g>
		<g>
			<path d="M139.4,121.6c-1.4,1.3-1.4,3.4,0,4.7c1.4,1.3,3.6,1.3,5,0c1.4-1.3,1.4-3.4,0-4.7
				C143,120.3,140.8,120.3,139.4,121.6z M143.5,125.5c-0.9,0.9-2.4,0.9-3.3,0c-0.9-0.9-0.9-2.2,0-3.1c0.9-0.9,2.4-0.9,3.3,0
				C144.4,123.3,144.4,124.7,143.5,125.5z"/>
		</g>
		<g>
			<path d="M40.4,28c1.4-1.3,1.4-3.4,0-4.7c-1.4-1.3-3.6-1.3-5,0c-1.4,1.3-1.4,3.4,0,4.7
				C36.9,29.3,39.1,29.3,40.4,28z M36.3,24.1c0.9-0.9,2.4-0.9,3.3,0c0.9,0.9,0.9,2.2,0,3.1c-0.9,0.9-2.4,0.9-3.3,0
				C35.4,26.3,35.4,24.9,36.3,24.1z"/>
		</g>
		<g>
			<path d="M35.1,293.6c-1.4,1.3-1.4,3.4,0,4.7c1.4,1.3,3.6,1.3,5,0c1.4-1.3,1.4-3.4,0-4.7
				C38.7,292.3,36.5,292.3,35.1,293.6z M39.2,297.5c-0.9,0.9-2.4,0.9-3.3,0c-0.9-0.9-0.9-2.2,0-3.1c0.9-0.9,2.4-0.9,3.3,0
				C40.1,295.3,40.1,296.6,39.2,297.5z"/>
		</g>
	</g>
</g>
</svg>
