<!-- Generator: Adobe Illustrator 19.1.0, SVG Export Plug-In  -->
<svg version="1.1"
	 xmlns="http://www.w3.org/2000/svg" xmlns:xlink="http://www.w3.org/1999/xlink" xmlns:a="http://ns.adobe.com/AdobeSVGViewerExtensions/3.0/"
	 x="0px" y="0px" width="45.3px" height="74.3px" viewBox="0 0 45.3 74.3" enable-background="new 0 0 45.3 74.3"
	 xml:space="preserve">
<defs>
</defs>
<g>
	<path fill="#5A4A42" d="M45.3,22.7C45.3,10.1,35.2,0,22.7,0S0,10.1,0,22.7s22.7,51.7,22.7,51.7S45.3,35.2,45.3,22.7z"/>
	<circle fill="#F8F4E9" cx="22.8" cy="23" r="17.5"/>
</g>
<path fill="#4D4D4D" d="M15.2,16.2c-2.4,0-6.1,3.6-6.7,5.7c-0.1,0.3-0.3,1.1-0.1,1.1c0.2,0,0.4-0.1,0.5-0.2c0.4-0.6,0.4-1.4,0.9-2.1
	c1.6-2.2,4.8-2.2,6.9-0.8c0.5,0.4,1,0.8,1.5,1.3c2.5,2.4,4,5.3,5.3,8.5c0.4,1,0.6,2.2,1,3.2c0.1,0.2,0.2,0.4,0.2,0.6
	c0,0.1,0.2,0.2,0.3,0.1c0.2-0.2,0.4-0.3,0.7-0.5c0.5-0.3,1.6-0.9,1.9-1.3c0.6-0.8,0.7-2,1-3c0.8-2.1,1.8-4.2,2.7-6.3
	c0.6-1.2,1-2.6,2.1-3.6c0.6-0.7,4-0.2,4.1-0.5c0.1-0.3,0-0.5-0.2-0.6c-0.3-0.2-4.1,0-4.1,0s-2,0-3,0c-0.5,0-1-0.1-1.4,0.1
	c-0.2,0.1-0.5,0.3-0.5,0.5c0,0.2,0.1,0.1,0.1,0.2c0.7,0,2.2-0.3,2.6,0.2c0.2,0.2,0,0.8-0.1,1c-0.4,0.9-0.8,1.8-1.1,2.7
	c-0.6,1.4-1.1,2.9-1.7,4.3c-0.3,0.8-0.7,1.5-1,2.3c-0.1,0-0.2,0-0.3,0c-0.1-0.2-0.2-0.4-0.3-0.7c-0.1-0.3-0.2-0.5-0.3-0.8
	c-0.4-0.8-0.8-1.6-1.2-2.3c-1.5-3.2-4-8.4-8-9.2C16.5,16.1,15.2,16.2,15.2,16.2z"/>
</svg>
